<?xml version="1.0" standalone="no"?>
<!DOCTYPE svg PUBLIC "-//W3C//DTD SVG 1.1//EN" "http://www.w3.org/Graphics/SVG/1.1/DTD/svg11.dtd" >
<svg xmlns="http://www.w3.org/2000/svg" xmlns:xlink="http://www.w3.org/1999/xlink" version="1.1">
<metadata>
Created by FontForge 20170910 at Thu Jun  9 16:39:52 2011
 By Jimmy Wärting
Copyright (c) 2009 by Dino dos Santos _DSType. All rights reserved.
</metadata>
<defs>
<font id="VelinoSans-Bold" horiz-adv-x="600" >
  <font-face 
    font-family="Velino Sans Bold"
    font-weight="700"
    font-stretch="normal"
    units-per-em="1000"
    panose-1="2 0 5 3 4 0 0 2 0 4"
    ascent="750"
    descent="-250"
    x-height="500"
    cap-height="680"
    bbox="-77 -306 1261 957"
    underline-thickness="50"
    underline-position="-100"
    stemh="110"
    stemv="136"
    unicode-range="U+0020-FB04"
  />
<missing-glyph horiz-adv-x="560" 
d="M66 500h428v-500h-428v500zM273 249l-196 236v-469zM289 249l194 -231v465zM88 488l193 -229l192 229h-385zM281 240l-191 -228h381z" />
    <glyph glyph-name=".notdef" horiz-adv-x="560" 
d="M66 500h428v-500h-428v500zM273 249l-196 236v-469zM289 249l194 -231v465zM88 488l193 -229l192 229h-385zM281 240l-191 -228h381z" />
    <glyph glyph-name="space" unicode=" " horiz-adv-x="230" 
 />
    <glyph glyph-name="exclam" unicode="!" horiz-adv-x="232" 
d="M51 56c0 35 30 65 66 65s65 -30 65 -65c0 -36 -29 -66 -65 -66s-66 30 -66 66zM44 680h145l-21 -498h-103z" />
    <glyph glyph-name="quotedbl" unicode="&#x22;" horiz-adv-x="392" 
d="M38 680h133l-14 -230h-103zM221 680h133l-16 -230h-103z" />
    <glyph glyph-name="numbersign" unicode="#" horiz-adv-x="602" 
d="M76 238h112v54h-112v86h112v112h86v-112h54v112h86v-112h112v-86h-112v-54h112v-86h-112v-112h-86v112h-54v-112h-86v112h-112v86zM274 292v-54h54v54h-54z" />
    <glyph glyph-name="dollar" unicode="$" horiz-adv-x="571" 
d="M304 -70h-40v60c-72 1 -138 14 -214 40l-13 135c91 -29 164 -50 227 -51v172c-98 47 -224 93 -224 212c0 122 100 185 224 191v61h40v-61c68 -2 137 -17 215 -47l-40 -120c-64 23 -116 41 -175 44v-152c98 -55 230 -115 230 -221c0 -117 -102 -191 -230 -201v-62z
M375 179c0 36 -30 62 -71 86v-148c45 7 71 30 71 62zM199 515c0 -28 26 -53 65 -77v126c-45 -5 -65 -25 -65 -49z" />
    <glyph glyph-name="percent" unicode="%" horiz-adv-x="947" 
d="M534 700h86l-210 -720h-86zM718 239c-40 0 -65 -30 -65 -93s25 -93 65 -93c41 0 65 31 65 93c0 63 -25 93 -65 93zM718 -10c-89 0 -152 65 -152 156s63 156 152 156s153 -65 153 -156s-64 -156 -153 -156zM228 623c-40 0 -65 -30 -65 -93s25 -93 65 -93c41 0 65 31 65 93
c0 63 -25 93 -65 93zM228 374c-89 0 -152 65 -152 156s63 156 152 156s153 -65 153 -156s-64 -156 -153 -156z" />
    <glyph glyph-name="ampersand" unicode="&#x26;" horiz-adv-x="670" 
d="M490 360h132c-18 -100 -54 -173 -96 -227l111 -133h-166l-39 47c-75 -47 -148 -57 -176 -57c-156 0 -224 80 -224 190c0 85 64 140 135 186c-39 51 -68 101 -68 153c0 114 98 171 193 171c110 0 179 -53 179 -160c0 -82 -61 -134 -127 -178l25 -29l79 -95
c19 33 34 76 42 132zM274 113c12 0 46 4 83 24l-101 121c-7 8 -14 16 -20 24c-37 -27 -62 -54 -62 -88c0 -52 45 -81 100 -81zM232 526c0 -27 18 -58 43 -92c40 28 69 57 69 94c0 45 -29 63 -54 63c-40 0 -58 -31 -58 -65z" />
    <glyph glyph-name="quotesingle" unicode="'" horiz-adv-x="209" 
d="M38 680h133l-14 -230h-103z" />
    <glyph glyph-name="parenleft" unicode="(" horiz-adv-x="326" 
d="M51 340c0 149 53 297 161 420h89c-82 -142 -113 -276 -113 -420c0 -141 31 -270 113 -420h-89c-108 123 -161 275 -161 420z" />
    <glyph glyph-name="parenright" unicode=")" horiz-adv-x="326" 
d="M275 340c0 -145 -54 -297 -161 -420h-89c82 150 113 279 113 420c0 144 -31 278 -113 420h89c107 -123 161 -271 161 -420z" />
    <glyph glyph-name="asterisk" unicode="*" horiz-adv-x="442" 
d="M120 648l38 3l56 -89l-22 103l29 24l28 -24l-21 -102l56 88l37 -2l2 -38l-88 -57l102 23l25 -29l-25 -28l-101 20l86 -54l-1 -38l-38 -1l-55 85l22 -100l-29 -25l-28 25l20 100l-54 -86l-38 2l-1 38l86 54l-102 -21l-24 29l24 28l102 -21l-87 56z" />
    <glyph glyph-name="plus" unicode="+" horiz-adv-x="502" 
d="M193 90v115h-117v115h117v120h115v-120h118v-115h-118v-115h-115z" />
    <glyph glyph-name="comma" unicode="," horiz-adv-x="224" 
d="M85 2c-33 0 -52 29 -52 57s19 66 68 66c56 0 88 -49 88 -94c0 -87 -65 -145 -125 -177l-36 48c41 27 74 65 74 84c0 12 -7 16 -17 16z" />
    <glyph glyph-name="hyphen" unicode="-" horiz-adv-x="438" 
d="M76 320h286v-115h-286v115z" />
    <glyph glyph-name="period" unicode="." horiz-adv-x="224" 
d="M46 56c0 35 29 65 65 65s66 -30 66 -65c0 -36 -30 -66 -66 -66s-65 30 -65 66z" />
    <glyph glyph-name="slash" unicode="/" horiz-adv-x="417" 
d="M250 700h121l-204 -720h-121z" />
    <glyph glyph-name="zero" unicode="0" horiz-adv-x="577" 
d="M288 575c-78 0 -107 -99 -107 -230s29 -240 107 -240c77 0 108 109 108 240s-31 230 -108 230zM288 -10c-189 0 -251 161 -251 355c0 193 62 345 251 345c188 0 252 -152 252 -345c0 -194 -64 -355 -252 -355z" />
    <glyph glyph-name="one" unicode="1" horiz-adv-x="351" 
d="M147 543l-116 -24l-21 112l181 54h92v-685h-136v543z" />
    <glyph glyph-name="two" unicode="2" horiz-adv-x="512" 
d="M209 563c-38 0 -76 -10 -135 -35l-42 113c76 34 131 49 210 49c142 0 212 -91 212 -208c0 -140 -99 -240 -237 -352v-2h263l-17 -128h-437v130c226 160 284 256 284 328c0 93 -65 105 -101 105z" />
    <glyph glyph-name="three" unicode="3" horiz-adv-x="522" 
d="M358 367v-2c83 -26 127 -98 127 -172c0 -127 -96 -203 -242 -203c-79 0 -140 11 -217 49l40 108c60 -28 111 -38 167 -38c77 0 104 51 104 88c0 60 -44 95 -113 95h-79v120h71c85 0 105 41 105 84c0 38 -27 75 -89 75c-53 0 -93 -11 -154 -39l-40 109
c78 38 150 49 221 49c107 0 202 -58 202 -169c0 -74 -40 -126 -103 -154z" />
    <glyph glyph-name="four" unicode="4" horiz-adv-x="556" 
d="M163 261h151v230h-2c-43 -84 -105 -176 -149 -230zM290 685h160v-424h74v-128h-74v-133h-136v133h-292v127c99 120 204 265 268 425z" />
    <glyph glyph-name="five" unicode="5" horiz-adv-x="521" 
d="M242 -10c-71 0 -134 12 -211 50l44 112c63 -29 101 -43 154 -43c75 0 107 36 107 87c0 60 -58 123 -217 151l-54 9l11 324h367v-128h-241l-4 -96l44 -11c111 -26 242 -100 242 -244c0 -120 -93 -211 -242 -211z" />
    <glyph glyph-name="six" unicode="6" horiz-adv-x="544" 
d="M178 374l2 -1c22 30 80 56 129 56c116 0 198 -81 198 -216c0 -144 -99 -223 -227 -223c-167 0 -243 138 -243 298c0 305 284 394 405 412l21 -105c-126 -30 -249 -101 -285 -221zM184 263c-8 -75 17 -158 92 -158c45 0 87 31 87 104c0 50 -25 95 -90 95
c-33 0 -69 -17 -89 -41z" />
    <glyph glyph-name="seven" unicode="7" horiz-adv-x="447" 
d="M285 550v2h-259v128h405v-102c-90 -164 -157 -331 -193 -578h-153c27 175 105 392 200 550z" />
    <glyph glyph-name="eight" unicode="8" horiz-adv-x="555" 
d="M352 504c0 52 -38 79 -81 79c-42 0 -76 -29 -76 -72c0 -46 36 -80 98 -103c35 25 59 56 59 96zM370 175c0 56 -59 86 -120 110c-45 -22 -73 -62 -73 -99c0 -57 44 -89 99 -89c62 0 94 36 94 78zM518 177c0 -118 -107 -187 -251 -187c-122 0 -230 56 -230 174
c0 71 25 124 115 176c-70 48 -95 104 -95 167c0 113 105 183 218 183c117 0 213 -71 213 -174c0 -65 -31 -116 -96 -161c84 -42 126 -101 126 -178z" />
    <glyph glyph-name="nine" unicode="9" horiz-adv-x="544" 
d="M366 306l-2 1c-22 -30 -80 -56 -129 -56c-116 0 -198 81 -198 216c0 144 99 223 227 223c167 0 243 -138 243 -298c0 -305 -284 -394 -405 -412l-21 105c126 30 249 101 285 221zM360 417c8 75 -17 158 -92 158c-45 0 -87 -31 -87 -104c0 -50 25 -95 90 -95
c33 0 69 17 89 41z" />
    <glyph glyph-name="colon" unicode=":" horiz-adv-x="224" 
d="M46 360c0 36 29 65 65 65s66 -29 66 -65s-30 -66 -66 -66s-65 30 -65 66zM46 56c0 35 29 65 65 65s66 -30 66 -65c0 -36 -30 -66 -66 -66s-65 30 -65 66z" />
    <glyph glyph-name="semicolon" unicode=";" horiz-adv-x="224" 
d="M43 360c0 36 30 65 66 65c35 0 65 -29 65 -65s-30 -66 -65 -66c-36 0 -66 30 -66 66zM86 2c-33 0 -52 29 -52 57s19 66 68 66c56 0 88 -49 88 -94c0 -87 -65 -145 -125 -177l-36 48c41 27 74 65 74 84c0 12 -7 16 -17 16z" />
    <glyph glyph-name="less" unicode="&#x3c;" horiz-adv-x="432" 
d="M76 309l280 169v-129l-143 -79l143 -79v-129l-280 168v79z" />
    <glyph glyph-name="equal" unicode="=" horiz-adv-x="502" 
d="M76 414h350v-115h-350v115zM76 231h350v-115h-350v115z" />
    <glyph glyph-name="greater" unicode="&#x3e;" horiz-adv-x="432" 
d="M76 478l280 -169v-79l-280 -168v129l143 79l-143 79v129z" />
    <glyph glyph-name="question" unicode="?" horiz-adv-x="477" 
d="M157 56c0 35 29 65 65 65s66 -30 66 -65c0 -36 -30 -66 -66 -66s-65 30 -65 66zM236 690c145 0 199 -106 199 -187c0 -131 -98 -173 -155 -193l-10 -128h-103l-9 183c63 21 133 53 133 122c0 57 -44 72 -84 72c-30 0 -79 -10 -127 -26l-38 119c55 24 128 38 194 38z" />
    <glyph glyph-name="at" unicode="@" horiz-adv-x="828" 
d="M464 110h-1c-21 -50 -60 -76 -96 -76c-69 0 -104 66 -103 149c0 86 47 230 158 230c29 0 52 -15 68 -39l34 32h61l-30 -239c-5 -33 10 -57 39 -57c57 0 115 89 115 180c0 181 -141 234 -251 234c-159 0 -305 -128 -305 -309c0 -203 143 -273 282 -273c81 0 173 34 232 80
l31 -57c-74 -60 -173 -96 -276 -96c-197 0 -374 132 -374 352c0 191 150 374 404 374c182 0 328 -109 328 -302c0 -131 -89 -259 -210 -259c-73 0 -103 40 -106 76zM435 327c-58 0 -76 -79 -76 -128c-2 -44 11 -78 46 -78c32 0 56 29 61 68l15 120c-7 8 -23 18 -46 18z" />
    <glyph glyph-name="A" unicode="A" horiz-adv-x="620" 
d="M446 0l-41 144h-198l-40 -144h-152l203 685h189l198 -685h-159zM306 499l-65 -227h131l-64 227h-2z" />
    <glyph glyph-name="B" unicode="B" horiz-adv-x="599" 
d="M444 355v-2c61 -22 118 -76 118 -165c0 -118 -84 -188 -219 -188h-290v680h273c134 0 212 -66 212 -178c0 -72 -42 -124 -94 -147zM318 286h-113v-158h116c47 0 81 21 81 79s-35 79 -84 79zM382 483c0 44 -25 69 -71 69h-106v-138h105c46 0 72 22 72 69z" />
    <glyph glyph-name="C" unicode="C" horiz-adv-x="615" 
d="M43 340c0 195 94 350 309 350c74 0 139 -12 224 -50l-39 -120c-71 31 -114 46 -169 46c-105 0 -165 -97 -165 -226c0 -152 68 -222 149 -222c59 0 102 36 134 94l110 -64c-60 -135 -176 -158 -252 -158c-207 0 -301 155 -301 350z" />
    <glyph glyph-name="D" unicode="D" horiz-adv-x="630" 
d="M302 0h-249v680h249c216 0 285 -150 285 -335c0 -186 -69 -345 -285 -345zM302 552h-97v-424h97c104 0 125 102 125 217s-21 207 -125 207z" />
    <glyph glyph-name="E" unicode="E" horiz-adv-x="534" 
d="M491 680v-128h-286v-138h241v-128h-241v-158h295l-17 -128h-430v680h438z" />
    <glyph glyph-name="F" unicode="F" horiz-adv-x="518" 
d="M491 680v-128h-286v-158h241v-128h-241v-266h-152v680h438z" />
    <glyph glyph-name="G" unicode="G" horiz-adv-x="629" 
d="M360 114c17 0 42 3 64 11v111h-83v128h235v-364h-52l-44 22c-40 -24 -103 -32 -136 -32c-215 0 -301 155 -301 350s94 350 309 350c74 0 139 -12 224 -50l-39 -120c-71 31 -114 46 -169 46c-105 0 -165 -97 -165 -226s52 -226 157 -226z" />
    <glyph glyph-name="H" unicode="H" horiz-adv-x="611" 
d="M205 0h-152v680h152v-266h201v266h152v-680h-152v286h-201v-286z" />
    <glyph glyph-name="I" unicode="I" horiz-adv-x="258" 
d="M205 680v-680h-152v680h152z" />
    <glyph glyph-name="J" unicode="J" horiz-adv-x="258" 
d="M53 36v644h152v-644c0 -94 -43 -197 -198 -236l-47 99c78 32 93 91 93 137z" />
    <glyph glyph-name="K" unicode="K" horiz-adv-x="606" 
d="M205 680v-284l206 284h179l-211 -289l212 -391h-180l-140 270l-66 -89v-181h-152v680h152z" />
    <glyph glyph-name="L" unicode="L" horiz-adv-x="514" 
d="M53 680h152v-552h295l-17 -128h-430v680z" />
    <glyph glyph-name="M" unicode="M" horiz-adv-x="761" 
d="M257 680l130 -399h2l118 399h201v-680h-152v374h-2l-120 -374h-106l-121 374h-2v-374h-152v680h204z" />
    <glyph glyph-name="N" unicode="N" horiz-adv-x="631" 
d="M207 381h-2v-381h-152v680h152l219 -381h2v381h152v-680h-152z" />
    <glyph glyph-name="O" unicode="O" horiz-adv-x="678" 
d="M339 566c-104 0 -136 -90 -136 -221s32 -231 136 -231s136 100 136 231s-32 221 -136 221zM339 -10c-217 0 -296 161 -296 355c0 193 79 345 296 345c216 0 296 -152 296 -345c0 -194 -80 -355 -296 -355z" />
    <glyph glyph-name="P" unicode="P" horiz-adv-x="580" 
d="M326 248h-121v-248h-152v680h273c131 0 218 -85 218 -214s-87 -218 -218 -218zM205 552v-176h89c47 0 90 23 90 90c0 66 -42 86 -89 86h-90z" />
    <glyph glyph-name="Q" unicode="Q" horiz-adv-x="678" 
d="M635 345c0 -174 -64 -320 -232 -349c6 -46 47 -66 93 -66c28 0 61 10 90 25l35 -74c-35 -33 -104 -59 -169 -59c-74 0 -179 36 -186 175c-162 32 -223 177 -223 348c0 193 79 345 296 345c216 0 296 -152 296 -345zM339 566c-104 0 -136 -90 -136 -221s32 -231 136 -231
s136 100 136 231s-32 221 -136 221z" />
    <glyph glyph-name="R" unicode="R" horiz-adv-x="607" 
d="M400 299v-4c47 -23 79 -62 104 -110l96 -185h-174l-105 202c-22 44 -35 54 -68 54h-48v-256h-152v680h273c131 0 218 -77 218 -206c0 -91 -61 -157 -144 -175zM205 552v-176h89c47 0 90 23 90 90c0 66 -42 86 -89 86h-90z" />
    <glyph glyph-name="S" unicode="S" horiz-adv-x="540" 
d="M49 498c0 128 105 192 228 192c70 0 141 -15 222 -48l-39 -120c-63 25 -113 44 -175 44c-53 0 -76 -22 -76 -51c0 -98 304 -91 304 -322c0 -126 -112 -203 -245 -203c-71 0 -135 13 -208 40l-13 135c87 -29 156 -51 216 -51c56 0 90 26 90 65c0 121 -304 96 -304 319z
" />
    <glyph glyph-name="T" unicode="T" horiz-adv-x="502" 
d="M483 552h-156v-552h-152v552h-156v128h464v-128z" />
    <glyph glyph-name="U" unicode="U" horiz-adv-x="631" 
d="M313 -10c-145 0 -260 63 -260 241v449h152v-449c0 -63 31 -117 108 -117s113 54 113 117v449h152v-449c0 -178 -120 -241 -265 -241z" />
    <glyph glyph-name="V" unicode="V" horiz-adv-x="602" 
d="M305 181l130 499h152l-191 -685h-197l-184 685h159l129 -499h2z" />
    <glyph glyph-name="W" unicode="W" horiz-adv-x="924" 
d="M538 680l105 -499h2l105 499h159l-160 -685h-205l-82 356l-82 -356h-205l-160 685h159l105 -499h2l105 499h152z" />
    <glyph glyph-name="X" unicode="X" horiz-adv-x="624" 
d="M427 0l-122 230h-2l-118 -230h-164l191 357l-182 323h174l107 -200h2l101 200h172l-183 -331l200 -349h-176z" />
    <glyph glyph-name="Y" unicode="Y" horiz-adv-x="586" 
d="M292 414h2l108 266h169l-202 -448v-232h-152v232l-202 448h169z" />
    <glyph glyph-name="Z" unicode="Z" horiz-adv-x="526" 
d="M208 130v-2h297l-17 -128h-467v111l287 439v2h-267v128h449v-111z" />
    <glyph glyph-name="bracketleft" unicode="[" horiz-adv-x="318" 
d="M213 6h80v-86h-224v840h224v-86h-80v-668z" />
    <glyph glyph-name="backslash" unicode="\" horiz-adv-x="417" 
d="M46 700h121l204 -720h-121z" />
    <glyph glyph-name="bracketright" unicode="]" horiz-adv-x="318" 
d="M25 6h80v668h-80v86h224v-840h-224v86z" />
    <glyph glyph-name="asciicircum" unicode="^" horiz-adv-x="470" 
d="M235 430l-67 -80h-92l117 176h84l117 -176h-92z" />
    <glyph glyph-name="underscore" unicode="_" horiz-adv-x="602" 
d="M76 -32h450v-83h-450v83z" />
    <glyph glyph-name="grave" unicode="`" horiz-adv-x="359" 
d="M76 602l40 94l167 -102l-29 -53z" />
    <glyph glyph-name="a" unicode="a" horiz-adv-x="509" 
d="M314 54l-2 10h-2c-35 -51 -84 -74 -143 -74c-87 0 -141 55 -141 132c0 101 82 143 177 164l109 25v27c0 34 -27 61 -76 61c-41 0 -94 -16 -143 -40l-42 97c66 39 151 54 208 54c120 0 189 -66 189 -162v-215c0 -20 6 -30 43 -35l-13 -107c-130 0 -152 23 -164 63z
M312 212v16l-97 -25c-28 -6 -53 -20 -53 -57c0 -36 31 -49 56 -49c57 0 94 55 94 115z" />
    <glyph glyph-name="b" unicode="b" horiz-adv-x="526" 
d="M43 692l102 18h34v-282h2c21 51 68 82 124 82c121 0 188 -118 188 -260s-74 -260 -200 -260c-42 0 -82 16 -112 55h-2l-34 -45h-102v692zM353 250c0 80 -27 145 -93 145c-49 0 -81 -39 -81 -97v-166c13 -12 41 -27 77 -27c70 0 97 65 97 145z" />
    <glyph glyph-name="c" unicode="c" horiz-adv-x="462" 
d="M291 395c-81 0 -118 -57 -118 -145s38 -145 115 -145c41 0 80 12 117 31l42 -101c-65 -36 -125 -45 -181 -45c-152 0 -233 112 -233 260s81 260 242 260c59 0 95 -3 145 -21l-9 -114c-62 17 -90 20 -120 20z" />
    <glyph glyph-name="d" unicode="d" horiz-adv-x="526" 
d="M347 692l102 18h34v-710h-126l-10 72h-2c-21 -51 -68 -82 -124 -82c-121 0 -188 118 -188 260s74 260 200 260c42 0 82 -16 112 -55h2v237zM173 250c0 -80 27 -145 93 -145c49 0 81 39 81 97v166c-13 12 -41 27 -77 27c-70 0 -97 -65 -97 -145z" />
    <glyph glyph-name="e" unicode="e" horiz-adv-x="512" 
d="M277 510c152 0 202 -92 202 -215c0 -24 -4 -51 -8 -77h-296c6 -69 56 -117 123 -117c41 0 90 12 127 31l38 -97c-65 -36 -131 -45 -187 -45c-152 0 -243 112 -243 260s83 260 244 260zM277 399c-57 0 -94 -37 -100 -92h169c1 5 1 11 1 16c0 40 -19 76 -70 76z" />
    <glyph glyph-name="f" unicode="f" horiz-adv-x="339" 
d="M77 500v50c0 104 48 160 157 160c25 0 73 -7 105 -19l-10 -105c-22 7 -45 13 -67 13c-39 0 -49 -21 -49 -62v-37h106v-103h-106v-397h-136v397h-55v68z" />
    <glyph glyph-name="g" unicode="g" horiz-adv-x="503" 
d="M130 -45c0 -38 47 -52 100 -52c54 0 116 17 116 54c0 19 -17 31 -49 33l-144 9c-14 -13 -23 -28 -23 -44zM241 267c39 0 63 25 63 74s-23 74 -63 74c-39 0 -61 -25 -61 -74s23 -74 61 -74zM324 497c31 20 67 37 122 37c10 0 26 -2 35 -3l-12 -94c-23 5 -45 7 -65 7v-2
c26 -26 35 -71 35 -101c0 -112 -86 -169 -214 -169c-40 0 -60 -8 -60 -30c0 -16 14 -23 38 -25l145 -12c89 -8 142 -63 142 -129c0 -101 -90 -176 -272 -176c-115 0 -202 36 -202 122c0 43 25 77 83 99v2c-39 20 -50 52 -50 79c-2 38 22 77 74 95v2c-45 25 -79 80 -79 142
c0 116 89 169 198 169c23 0 48 -4 82 -13z" />
    <glyph glyph-name="h" unicode="h" horiz-adv-x="518" 
d="M43 692l102 18h34v-296h2c34 68 90 96 145 96c90 0 149 -67 149 -168v-342h-136v312c0 53 -30 79 -71 79c-40 0 -89 -37 -89 -123v-268h-136v692z" />
    <glyph glyph-name="i" unicode="i" horiz-adv-x="222" 
d="M33 641c0 44 34 70 78 70s79 -26 79 -70s-35 -71 -79 -71s-78 27 -78 71zM43 492l102 18h34v-510h-136v492z" />
    <glyph glyph-name="j" unicode="j" horiz-adv-x="222" 
d="M33 641c0 44 34 70 78 70s79 -26 79 -70s-35 -71 -79 -71s-78 27 -78 71zM179 510v-470c0 -95 -14 -208 -190 -240l-39 102c76 31 93 52 93 98v492l102 18h34z" />
    <glyph glyph-name="k" unicode="k" horiz-adv-x="534" 
d="M43 692l102 18h34v-398l163 188h163l-175 -200l192 -300h-168l-122 202l-53 -58v-144h-136v692z" />
    <glyph glyph-name="l" unicode="l" horiz-adv-x="222" 
d="M43 692l102 18h34v-710h-136v692z" />
    <glyph glyph-name="m" unicode="m" horiz-adv-x="814" 
d="M475 270v-270h-136v312c0 53 -30 79 -71 79c-40 0 -89 -37 -89 -123v-268h-136v492l102 18h34v-96h2c34 68 90 96 145 96c69 0 119 -39 139 -104h4c34 68 98 104 153 104c90 0 149 -67 149 -168v-342h-136v312c0 53 -30 79 -71 79c-40 0 -89 -36 -89 -121z" />
    <glyph glyph-name="n" unicode="n" horiz-adv-x="518" 
d="M43 492l102 18h34v-96h2c34 68 90 96 145 96c90 0 149 -67 149 -168v-342h-136v312c0 53 -30 79 -71 79c-40 0 -89 -37 -89 -123v-268h-136v492z" />
    <glyph glyph-name="o" unicode="o" horiz-adv-x="540" 
d="M270 395c-66 0 -97 -57 -97 -145s31 -145 97 -145s97 57 97 145s-31 145 -97 145zM270 -10c-152 0 -237 112 -237 260s85 260 237 260s237 -112 237 -260s-85 -260 -237 -260z" />
    <glyph glyph-name="p" unicode="p" horiz-adv-x="526" 
d="M43 492l102 18h34v-82h2c21 51 68 82 124 82c121 0 188 -118 188 -260s-74 -260 -200 -260c-42 0 -82 16 -112 55h-2v-245h-136v692zM353 250c0 80 -27 145 -93 145c-49 0 -81 -39 -81 -97v-166c13 -12 41 -27 77 -27c70 0 97 65 97 145z" />
    <glyph glyph-name="q" unicode="q" horiz-adv-x="526" 
d="M483 -200h-136v272h-2c-21 -51 -68 -82 -124 -82c-121 0 -188 118 -188 260s74 260 200 260c42 0 82 -16 112 -55h2l44 45h92v-700zM173 250c0 -80 27 -145 93 -145c49 0 81 39 81 97v166c-13 12 -41 27 -77 27c-70 0 -97 -65 -97 -145z" />
    <glyph glyph-name="r" unicode="r" horiz-adv-x="349" 
d="M43 492l102 18h34v-114h2c37 84 87 114 156 114l-9 -137c-88 0 -149 -29 -149 -110v-263h-136v492z" />
    <glyph glyph-name="s" unicode="s" horiz-adv-x="441" 
d="M41 366c0 100 92 144 188 144c52 0 118 -9 166 -24l-9 -107c-69 20 -126 24 -156 24c-32 0 -46 -12 -46 -31c0 -71 226 -53 226 -226c0 -97 -78 -156 -190 -156c-75 0 -119 9 -173 24l-13 105c76 -18 146 -22 182 -22c35 0 54 17 54 37c0 73 -229 57 -229 232z" />
    <glyph glyph-name="t" unicode="t" horiz-adv-x="359" 
d="M77 142v255h-55v68l55 35l68 120h68v-120h122v-103h-122v-234c0 -41 8 -62 47 -62c11 0 38 7 54 13l25 -105c-32 -12 -88 -19 -113 -19c-109 0 -149 48 -149 152z" />
    <glyph glyph-name="u" unicode="u" horiz-adv-x="518" 
d="M475 0h-127l-9 86h-2c-34 -68 -90 -96 -145 -96c-90 0 -149 67 -149 168v342h136v-312c0 -53 30 -79 71 -79c40 0 89 37 89 123v268h136v-500z" />
    <glyph glyph-name="v" unicode="v" horiz-adv-x="526" 
d="M353 -5h-185l-157 505h153l103 -353h2l97 353h149z" />
    <glyph glyph-name="w" unicode="w" horiz-adv-x="768" 
d="M385 239h-2l-50 -244h-185l-137 505h153l83 -353h2l58 353h154l58 -353h2l83 353h153l-137 -505h-185z" />
    <glyph glyph-name="x" unicode="x" horiz-adv-x="521" 
d="M350 0l-92 148h-2l-91 -148h-153l171 263l-154 237h154l82 -131h2l82 131h149l-158 -239l169 -261h-159z" />
    <glyph glyph-name="y" unicode="y" horiz-adv-x="526" 
d="M177 -7l-166 507h153l107 -361h2l93 361h149l-154 -481c-55 -173 -147 -219 -256 -219c-26 0 -61 4 -86 9l13 116c14 -3 33 -5 42 -5c38 0 89 17 103 73z" />
    <glyph glyph-name="z" unicode="z" horiz-adv-x="448" 
d="M412 500v-103l-212 -284v-2h230l-13 -111h-391v103l216 284v2h-201l4 111h367z" />
    <glyph glyph-name="braceleft" unicode="{" horiz-adv-x="342" 
d="M201 341v-2c31 -12 59 -45 59 -91c0 -76 -30 -129 -30 -174c0 -38 22 -51 79 -51v-103c-161 0 -223 36 -223 130c0 74 30 147 30 190c0 44 -20 60 -70 60v79c50 0 70 17 70 61c0 43 -30 116 -30 190c0 94 62 130 223 130v-103c-57 0 -79 -13 -79 -51
c0 -45 30 -98 30 -174c0 -47 -28 -77 -59 -91z" />
    <glyph glyph-name="bar" unicode="|" horiz-adv-x="270" 
d="M194 -20h-118v720h118v-720z" />
    <glyph glyph-name="braceright" unicode="}" horiz-adv-x="342" 
d="M141 339v2c-31 14 -59 44 -59 91c0 76 30 129 30 174c0 38 -22 51 -79 51v103c161 0 223 -36 223 -130c0 -74 -30 -147 -30 -190c0 -44 20 -61 70 -61v-79c-50 0 -70 -16 -70 -60c0 -43 30 -116 30 -190c0 -94 -62 -130 -223 -130v103c57 0 79 13 79 51
c0 45 -30 98 -30 174c0 46 28 79 59 91z" />
    <glyph glyph-name="asciitilde" unicode="~" horiz-adv-x="528" 
d="M142 348l-66 33c23 65 53 115 115 115c61 0 109 -51 142 -51c23 0 36 25 49 52l70 -41c-27 -74 -62 -107 -107 -107c-57 0 -111 51 -146 51c-30 0 -43 -26 -57 -52z" />
    <glyph glyph-name="Euro" unicode="&#x20ac;" horiz-adv-x="674" 
d="M32 437h66c27 147 122 253 300 253c74 0 139 -12 224 -50l-39 -120c-71 31 -114 46 -169 46c-77 0 -129 -51 -152 -129h160v-51h-170c-2 -15 -3 -30 -3 -46c0 -15 0 -30 2 -43h171v-51h-163c22 -87 77 -128 139 -128c59 0 102 36 134 94l110 -64
c-60 -135 -176 -158 -252 -158c-173 0 -267 107 -293 256h-65v51h58c-1 14 -1 28 -1 43s1 31 2 46h-59v51z" />
    <glyph glyph-name="quotesinglbase" unicode="&#x201a;" horiz-adv-x="220" 
d="M91 2c-33 0 -52 29 -52 57s19 66 68 66c56 0 88 -49 88 -94c0 -87 -65 -145 -125 -177l-36 48c41 27 74 65 74 84c0 12 -7 16 -17 16z" />
    <glyph glyph-name="florin" unicode="&#x192;" horiz-adv-x="464" 
d="M286 397l-77 -437c-18 -104 -75 -160 -182 -160c-25 0 -72 7 -103 19l30 105c19 -7 41 -13 63 -13c38 0 51 21 58 62l75 424h-55l12 68l61 35l9 50c19 104 75 160 184 160c25 0 72 -7 103 -19l-30 -105c-19 7 -42 13 -63 13c-40 0 -53 -21 -60 -62l-7 -37h106l-18 -103
h-106z" />
    <glyph glyph-name="quotedblbase" unicode="&#x201e;" horiz-adv-x="410" 
d="M86 2c-33 0 -52 29 -52 57s19 66 68 66c56 0 88 -49 88 -94c0 -87 -65 -145 -125 -177l-36 48c41 27 74 65 74 84c0 12 -7 16 -17 16zM286 2c-33 0 -52 29 -52 57s19 66 68 66c56 0 88 -49 88 -94c0 -87 -65 -145 -125 -177l-36 48c41 27 74 65 74 84c0 12 -7 16 -17 16z
" />
    <glyph glyph-name="ellipsis" unicode="&#x2026;" horiz-adv-x="640" 
d="M55 56c0 35 29 65 65 65s66 -30 66 -65c0 -36 -30 -66 -66 -66s-65 30 -65 66zM255 56c0 35 29 65 65 65s66 -30 66 -65c0 -36 -30 -66 -66 -66s-65 30 -65 66zM455 56c0 35 29 65 65 65s66 -30 66 -65c0 -36 -30 -66 -66 -66s-65 30 -65 66z" />
    <glyph glyph-name="dagger" unicode="&#x2020;" horiz-adv-x="700" 
d="M369 451h-38l-64 239h167zM331 389h38l65 -489h-167zM319 439v-38l-234 -65v167zM381 401v38l234 64v-167z" />
    <glyph glyph-name="daggerdbl" unicode="&#x2021;" horiz-adv-x="700" 
d="M369 451h-38l-64 239h167zM434 249l-65 -148h-38l-64 148l64 140h38zM319 439v-38l-234 -65v167zM381 401v38l234 64v-167zM331 39h38l65 -239h-167zM319 89v-38l-234 -64v167zM381 51v38l234 65v-167z" />
    <glyph glyph-name="circumflex" unicode="&#x2c6;" horiz-adv-x="470" 
d="M235 630l-67 -80h-92l117 176h84l117 -176h-92z" />
    <glyph glyph-name="perthousand" unicode="&#x2030;" horiz-adv-x="1337" 
d="M534 700h86l-210 -720h-86zM718 239c-40 0 -65 -30 -65 -93s25 -93 65 -93c41 0 65 31 65 93c0 63 -25 93 -65 93zM718 -10c-89 0 -152 65 -152 156s63 156 152 156s153 -65 153 -156s-64 -156 -153 -156zM228 623c-40 0 -65 -30 -65 -93s25 -93 65 -93c41 0 65 31 65 93
c0 63 -25 93 -65 93zM228 374c-89 0 -152 65 -152 156s63 156 152 156s153 -65 153 -156s-64 -156 -153 -156zM1108 239c-40 0 -65 -30 -65 -93s25 -93 65 -93c41 0 65 31 65 93c0 63 -25 93 -65 93zM1108 -10c-89 0 -152 65 -152 156s63 156 152 156s153 -65 153 -156
s-64 -156 -153 -156z" />
    <glyph glyph-name="Scaron" unicode="&#x160;" horiz-adv-x="540" 
d="M49 498c0 128 105 192 228 192c70 0 141 -15 222 -48l-39 -120c-63 25 -113 44 -175 44c-53 0 -76 -22 -76 -51c0 -98 304 -91 304 -322c0 -126 -112 -203 -245 -203c-71 0 -135 13 -208 40l-13 135c87 -29 156 -51 216 -51c56 0 90 26 90 65c0 121 -304 96 -304 319z
M213 906l67 -80l67 80h92l-117 -176h-84l-117 176h92z" />
    <glyph glyph-name="guilsinglleft" unicode="&#x2039;" horiz-adv-x="346" 
d="M76 309l194 137v-129l-75 -47l75 -47v-129l-194 136v79z" />
    <glyph glyph-name="OE" unicode="&#x152;" horiz-adv-x="956" 
d="M913 680v-128h-286v-138h241v-128h-241v-158h295l-17 -128h-406v51c-41 -38 -93 -61 -160 -61c-217 0 -296 161 -296 355c0 193 79 345 296 345c67 0 119 -22 160 -58v48h414zM339 566c-104 0 -136 -90 -136 -221s32 -231 136 -231s136 100 136 231s-32 221 -136 221z
" />
    <glyph glyph-name="Zcaron" unicode="&#x17d;" horiz-adv-x="526" 
d="M208 130v-2h297l-17 -128h-467v111l287 439v2h-267v128h449v-111zM210 906l67 -80l67 80h92l-117 -176h-84l-117 176h92z" />
    <glyph glyph-name="quoteleft" unicode="&#x2018;" horiz-adv-x="220" 
d="M136 552c33 0 52 -29 52 -57s-19 -66 -68 -66c-56 0 -88 49 -88 94c0 87 65 145 125 177l36 -48c-41 -27 -74 -65 -74 -84c0 -12 7 -16 17 -16z" />
    <glyph glyph-name="quoteright" unicode="&#x2019;" horiz-adv-x="220" 
d="M87 577c-33 0 -52 29 -52 57s19 66 68 66c56 0 88 -49 88 -94c0 -87 -65 -145 -125 -177l-36 48c41 27 74 65 74 84c0 12 -7 16 -17 16z" />
    <glyph glyph-name="quotedblleft" unicode="&#x201c;" horiz-adv-x="410" 
d="M329 552c33 0 52 -29 52 -57s-19 -66 -68 -66c-56 0 -88 49 -88 94c0 87 65 145 125 177l36 -48c-41 -27 -74 -65 -74 -84c0 -12 7 -16 17 -16zM129 552c33 0 52 -29 52 -57s-19 -66 -68 -66c-56 0 -88 49 -88 94c0 87 65 145 125 177l36 -48c-41 -27 -74 -65 -74 -84
c0 -12 7 -16 17 -16z" />
    <glyph glyph-name="quotedblright" unicode="&#x201d;" horiz-adv-x="410" 
d="M86 577c-33 0 -52 29 -52 57s19 66 68 66c56 0 88 -49 88 -94c0 -87 -65 -145 -125 -177l-36 48c41 27 74 65 74 84c0 12 -7 16 -17 16zM286 577c-33 0 -52 29 -52 57s19 66 68 66c56 0 88 -49 88 -94c0 -87 -65 -145 -125 -177l-36 48c41 27 74 65 74 84
c0 12 -7 16 -17 16z" />
    <glyph glyph-name="bullet" unicode="&#x2022;" horiz-adv-x="397" 
d="M100 232c0 55 43 99 98 99s99 -44 99 -99s-44 -98 -99 -98s-98 43 -98 98z" />
    <glyph glyph-name="endash" unicode="&#x2013;" horiz-adv-x="602" 
d="M76 320h450v-115h-450v115z" />
    <glyph glyph-name="emdash" unicode="&#x2014;" horiz-adv-x="702" 
d="M76 320h550v-115h-550v115z" />
    <glyph glyph-name="tilde" unicode="&#x2dc;" horiz-adv-x="528" 
d="M142 548l-66 33c23 65 53 115 115 115c61 0 109 -51 142 -51c23 0 36 25 49 52l70 -41c-27 -74 -62 -107 -107 -107c-57 0 -111 51 -146 51c-30 0 -43 -26 -57 -52z" />
    <glyph glyph-name="trademark" unicode="&#x2122;" horiz-adv-x="667" 
d="M269 622h-71v-248h-68v248h-70v58h209v-58zM405 680l59 -180l53 180h90v-306h-68v170l-55 -170h-48l-55 170v-170h-68v306h92z" />
    <glyph glyph-name="scaron" unicode="&#x161;" horiz-adv-x="441" 
d="M41 366c0 100 92 144 188 144c52 0 118 -9 166 -24l-9 -107c-69 20 -126 24 -156 24c-32 0 -46 -12 -46 -31c0 -71 226 -53 226 -226c0 -97 -78 -156 -190 -156c-75 0 -119 9 -173 24l-13 105c76 -18 146 -22 182 -22c35 0 54 17 54 37c0 73 -229 57 -229 232zM154 726
l67 -80l67 80h92l-117 -176h-84l-117 176h92z" />
    <glyph glyph-name="guilsinglright" unicode="&#x203a;" horiz-adv-x="346" 
d="M76 446l194 -137v-79l-194 -136v129l75 47l-75 47v129z" />
    <glyph glyph-name="oe" unicode="&#x153;" horiz-adv-x="847" 
d="M612 510c152 0 202 -92 202 -215c0 -24 -4 -51 -8 -77h-296c6 -69 56 -117 123 -117c41 0 90 12 127 31l38 -97c-65 -36 -131 -45 -187 -45c-72 0 -131 25 -172 67c-40 -42 -97 -67 -169 -67c-152 0 -237 112 -237 260s85 260 237 260c71 0 127 -25 167 -66
c41 41 99 66 175 66zM270 395c-66 0 -97 -57 -97 -145s31 -145 97 -145s97 57 97 145s-31 145 -97 145zM612 399c-57 0 -94 -37 -100 -92h169c1 5 1 11 1 16c0 40 -19 76 -70 76z" />
    <glyph glyph-name="zcaron" unicode="&#x17e;" horiz-adv-x="448" 
d="M412 500v-103l-212 -284v-2h230l-13 -111h-391v103l216 284v2h-201l4 111h367zM168 726l67 -80l67 80h92l-117 -176h-84l-117 176h92z" />
    <glyph glyph-name="Ydieresis" unicode="&#x178;" horiz-adv-x="586" 
d="M292 414h2l108 266h169l-202 -448v-232h-152v232l-202 448h169zM123 817c0 40 32 64 71 64c40 0 72 -24 72 -64s-32 -64 -72 -64c-39 0 -71 24 -71 64zM321 817c0 40 32 64 72 64c39 0 71 -24 71 -64s-32 -64 -71 -64c-40 0 -72 24 -72 64z" />
    <glyph glyph-name="exclamdown" unicode="&#xa1;" horiz-adv-x="232" 
d="M181 444c0 -35 -30 -65 -66 -65s-65 30 -65 65c0 36 29 66 65 66s66 -30 66 -66zM189 -180h-146l21 498h104z" />
    <glyph glyph-name="cent" unicode="&#xa2;" horiz-adv-x="506" 
d="M312 -70h-40v60c-148 4 -226 114 -226 260c0 143 75 252 226 259v71h40v-70c45 -1 78 -6 121 -21l-9 -114c-57 15 -85 19 -112 20v-290c37 2 72 13 106 31l42 -101c-53 -29 -102 -40 -148 -44v-61zM186 250c0 -76 28 -129 86 -142v283c-59 -13 -86 -66 -86 -141z" />
    <glyph glyph-name="sterling" unicode="&#xa3;" horiz-adv-x="561" 
d="M54 359h51c-10 49 -22 98 -22 139c0 128 105 192 228 192c70 0 141 -15 222 -48l-39 -120c-62 25 -113 44 -175 44c-45 0 -76 -21 -76 -67c0 -34 19 -84 30 -140h111v-51h-105v-12c0 -55 -16 -112 -71 -166v-2h329l-17 -128h-466v128c48 29 65 74 65 125
c0 18 -2 36 -5 55h-60v51z" />
    <glyph glyph-name="currency" unicode="&#xa4;" horiz-adv-x="484" 
d="M93 249c0 45 17 85 46 114l-74 90l7 8l76 -90c25 22 58 36 95 36c35 0 68 -14 94 -36l74 90l8 -8l-74 -89c30 -29 48 -70 48 -115s-18 -86 -47 -114l72 -86l-8 -9l-73 87c-26 -22 -59 -35 -94 -35c-37 0 -70 13 -95 35l-73 -87l-8 9l72 86c-29 29 -46 69 -46 114z
M105 249c0 -79 62 -145 138 -145c75 0 138 66 138 145s-63 146 -138 146c-76 0 -138 -67 -138 -146z" />
    <glyph glyph-name="yen" unicode="&#xa5;" horiz-adv-x="588" 
d="M124 221h94v11l-202 448h169l108 -266h2l108 266h169l-202 -448v-11h94v-51h-94v-170h-152v170h-94v51z" />
    <glyph glyph-name="brokenbar" unicode="&#xa6;" horiz-adv-x="270" 
d="M194 380h-118v320h118v-320zM194 -20h-118v320h118v-320z" />
    <glyph glyph-name="section" unicode="&#xa7;" horiz-adv-x="473" 
d="M47 666c0 100 92 144 188 144c52 0 119 -9 166 -24l-9 -107c-69 20 -126 24 -155 24c-33 0 -47 -12 -47 -31c0 -68 236 -71 236 -208c0 -57 -61 -125 -98 -153l-80 42c26 21 44 43 44 63c0 96 -245 69 -245 250zM426 134c0 -100 -92 -144 -188 -144c-52 0 -118 9 -166 24
l9 107c69 -20 126 -24 156 -24c32 0 46 12 46 31c0 68 -236 71 -236 208c0 57 61 125 98 153l81 -42c-27 -21 -45 -43 -45 -63c0 -96 245 -69 245 -250z" />
    <glyph glyph-name="dieresis" unicode="&#xa8;" horiz-adv-x="493" 
d="M75 637c0 40 32 64 71 64c40 0 72 -24 72 -64s-32 -64 -72 -64c-39 0 -71 24 -71 64zM273 637c0 40 32 64 72 64c39 0 71 -24 71 -64s-32 -64 -71 -64c-40 0 -72 24 -72 64z" />
    <glyph glyph-name="copyright" unicode="&#xa9;" horiz-adv-x="800" 
d="M60 340c0 188 152 340 340 340s340 -152 340 -340s-152 -340 -340 -340s-340 152 -340 340zM95 340c0 -169 136 -305 305 -305s305 136 305 305s-136 305 -305 305s-305 -136 -305 -305zM254 338c0 97 47 175 155 175c37 0 69 -6 112 -25l-19 -60c-36 15 -57 23 -85 23
c-53 0 -83 -49 -83 -113c0 -77 34 -111 75 -111c30 0 51 18 67 47l55 -32c-30 -67 -88 -79 -126 -79c-104 0 -151 77 -151 175z" />
    <glyph glyph-name="ordfeminine" unicode="&#xaa;" horiz-adv-x="342" 
d="M203 412l-1 7h-1c-22 -31 -51 -45 -86 -45c-52 0 -85 33 -85 79c0 61 50 86 107 99l65 15v16c0 20 -17 36 -46 36c-25 0 -56 -9 -86 -24l-25 59c39 23 91 32 125 32c72 0 113 -40 113 -97v-129c0 -12 4 -18 26 -21l-8 -64c-78 0 -91 13 -98 37zM24 332h294v-36h-294v36z
M202 507v10l-59 -15c-16 -4 -31 -12 -31 -34s18 -30 33 -30c34 0 57 33 57 69z" />
    <glyph glyph-name="guillemotleft" unicode="&#xab;" horiz-adv-x="574" 
d="M76 309l194 137v-129l-75 -47l75 -47v-129l-194 136v79zM304 309l194 137v-129l-75 -47l75 -47v-129l-194 136v79z" />
    <glyph glyph-name="logicalnot" unicode="&#xac;" horiz-adv-x="585" 
d="M485 290v-197h-61v136h-324v61h385z" />
    <glyph glyph-name="uni00AD" unicode="&#xad;" horiz-adv-x="502" 
d="M76 320h350v-115h-350v115z" />
    <glyph glyph-name="registered" unicode="&#xae;" horiz-adv-x="800" 
d="M60 340c0 188 152 340 340 340s340 -152 340 -340s-152 -340 -340 -340s-340 152 -340 340zM95 340c0 -169 136 -305 305 -305s305 136 305 305s-136 305 -305 305s-305 -136 -305 -305zM456 318v-2c23 -11 40 -31 52 -55l48 -92h-87l-52 101c-12 22 -18 27 -34 27h-24
v-128h-76v340h136c66 0 109 -39 109 -103c0 -46 -30 -79 -72 -88zM359 445v-88h44c23 0 45 11 45 45c0 33 -21 43 -44 43h-45z" />
    <glyph glyph-name="macron" unicode="&#xaf;" horiz-adv-x="430" 
d="M76 661h278v-83h-278v83z" />
    <glyph glyph-name="degree" unicode="&#xb0;" horiz-adv-x="365" 
d="M100 628c0 49 38 82 82 82s83 -33 83 -82s-39 -83 -83 -83s-82 34 -82 83zM149 628c0 -14 10 -34 33 -34c24 0 34 20 34 34s-10 33 -34 33c-23 0 -33 -19 -33 -33z" />
    <glyph glyph-name="plusminus" unicode="&#xb1;" horiz-adv-x="502" 
d="M76 80h350v-75h-350v75zM193 106v115h-117v115h117v120h115v-120h118v-115h-118v-115h-115z" />
    <glyph glyph-name="twosuperior" unicode="&#xb2;" horiz-adv-x="334" 
d="M141 786c-18 0 -36 -6 -64 -17l-24 66c39 18 68 25 108 25c73 0 109 -45 109 -105c0 -70 -49 -115 -109 -164v-2h123l-10 -74h-224v75c106 74 136 116 136 151c0 40 -27 45 -45 45z" />
    <glyph glyph-name="threesuperior" unicode="&#xb3;" horiz-adv-x="337" 
d="M224 699v-1c42 -14 63 -50 63 -85c0 -65 -50 -103 -124 -103c-42 0 -71 5 -113 25l24 63c30 -15 56 -19 83 -19c29 0 44 18 44 36c0 27 -20 41 -49 41h-40v69h36c40 0 45 18 45 35c0 18 -14 31 -37 31c-26 0 -45 -6 -77 -19l-23 63c42 20 79 25 116 25
c52 0 102 -28 102 -85c0 -35 -17 -61 -50 -76z" />
    <glyph glyph-name="acute" unicode="&#xb4;" horiz-adv-x="359" 
d="M243 696l40 -94l-178 -61l-29 53z" />
    <glyph glyph-name="mu" unicode="&#xb5;" horiz-adv-x="518" 
d="M475 0h-127l-9 86h-2c-34 -68 -90 -96 -145 -96c-5 0 -10 0 -15 1c-8 -82 -42 -164 -188 -191l-39 102c76 31 93 52 93 98v500h136v-320c3 -48 32 -71 71 -71c40 0 89 37 89 123v268h136v-500z" />
    <glyph glyph-name="paragraph" unicode="&#xb6;" horiz-adv-x="670" 
d="M594 0h-118v680h118v-680zM418 680v-680h-20c-215 0 -350 134 -350 340c0 220 135 340 350 340h20z" />
    <glyph glyph-name="periodcentered" unicode="&#xb7;" horiz-adv-x="224" 
d="M47 277c0 36 28 58 65 58c36 0 65 -22 65 -58c0 -37 -29 -59 -65 -59c-37 0 -65 22 -65 59z" />
    <glyph glyph-name="cedilla" unicode="&#xb8;" horiz-adv-x="338" 
d="M123 -84v84h58v-40c43 -9 81 -28 81 -76c0 -53 -37 -84 -113 -84c-24 0 -49 4 -73 12l10 50c15 -5 35 -10 53 -10c23 0 34 13 34 28c0 19 -17 30 -50 36z" />
    <glyph glyph-name="onesuperior" unicode="&#xb9;" horiz-adv-x="329" 
d="M59 515v64h70v196l-66 -17l-12 66l102 34h55v-279h71v-64h-220z" />
    <glyph glyph-name="ordmasculine" unicode="&#xba;" horiz-adv-x="342" 
d="M24 332h294v-36h-294v36zM170 617c-40 0 -58 -34 -58 -87s18 -87 58 -87s58 34 58 87s-18 87 -58 87zM170 374c-91 0 -142 67 -142 156s51 156 142 156s142 -67 142 -156s-51 -156 -142 -156z" />
    <glyph glyph-name="guillemotright" unicode="&#xbb;" horiz-adv-x="574" 
d="M304 446l194 -137v-79l-194 -136v129l75 47l-75 47v129zM76 446l194 -137v-79l-194 -136v129l75 47l-75 47v129z" />
    <glyph glyph-name="onequarter" unicode="&#xbc;" horiz-adv-x="815" 
d="M59 340v64h70v196l-66 -17l-12 66l102 34h55v-279h71v-64h-220zM587 139h64v92h-1c-19 -35 -46 -72 -63 -92zM637 343h93v-204h35v-73h-35v-66h-79v66h-145v74c49 60 99 123 131 203zM511 700h54l-210 -720h-54z" />
    <glyph glyph-name="onehalf" unicode="&#xbd;" horiz-adv-x="815" 
d="M59 340v64h70v196l-66 -17l-12 66l102 34h55v-279h71v-64h-220zM622 271c-17 0 -35 -6 -64 -17l-24 66c39 18 68 25 108 25c73 0 109 -45 109 -105c0 -70 -48 -115 -109 -164v-2h123l-10 -74h-224v75c107 74 136 116 136 151c0 40 -27 45 -45 45zM505 700h54l-210 -720
h-54z" />
    <glyph glyph-name="threequarters" unicode="&#xbe;" horiz-adv-x="819" 
d="M224 524v-1c42 -14 63 -50 63 -85c0 -65 -50 -103 -124 -103c-42 0 -71 5 -113 25l24 63c30 -15 56 -19 83 -19c29 0 44 18 44 36c0 27 -20 41 -49 41h-40v69h36c40 0 45 18 45 35c0 18 -14 31 -37 31c-26 0 -45 -6 -77 -19l-23 63c42 20 79 25 116 25
c52 0 102 -28 102 -85c0 -35 -17 -61 -50 -76zM591 139h64v92h-1c-19 -35 -46 -72 -63 -92zM641 343h93v-204h35v-73h-35v-66h-79v66h-145v74c49 60 99 123 131 203zM501 700h54l-210 -720h-54z" />
    <glyph glyph-name="questiondown" unicode="&#xbf;" horiz-adv-x="477" 
d="M320 444c0 -35 -29 -65 -65 -65s-66 30 -66 65c0 36 30 66 66 66s65 -30 65 -66zM241 -190c-145 0 -199 106 -199 187c0 131 98 173 155 193l10 128h103l9 -183c-63 -21 -133 -53 -133 -122c0 -57 44 -72 84 -72c30 0 79 10 127 26l38 -119c-55 -24 -127 -38 -194 -38z
" />
    <glyph glyph-name="Agrave" unicode="&#xc0;" horiz-adv-x="620" 
d="M446 0l-41 144h-198l-40 -144h-152l203 685h189l198 -685h-159zM306 499l-65 -227h131l-64 227h-2zM148 782l40 94l167 -102l-29 -53z" />
    <glyph glyph-name="Aacute" unicode="&#xc1;" horiz-adv-x="620" 
d="M446 0l-41 144h-198l-40 -144h-152l203 685h189l198 -685h-159zM306 499l-65 -227h131l-64 227h-2zM449 876l40 -94l-178 -61l-29 53z" />
    <glyph glyph-name="Acircumflex" unicode="&#xc2;" horiz-adv-x="620" 
d="M446 0l-41 144h-198l-40 -144h-152l203 685h189l198 -685h-159zM306 499l-65 -227h131l-64 227h-2zM311 810l-67 -80h-92l117 176h84l117 -176h-92z" />
    <glyph glyph-name="Atilde" unicode="&#xc3;" horiz-adv-x="620" 
d="M446 0l-41 144h-198l-40 -144h-152l203 685h189l198 -685h-159zM306 499l-65 -227h131l-64 227h-2zM188 728l-66 33c23 65 53 115 115 115c61 0 109 -51 142 -51c23 0 36 25 49 52l70 -41c-27 -74 -62 -107 -107 -107c-57 0 -111 51 -146 51c-30 0 -43 -26 -57 -52z" />
    <glyph glyph-name="Adieresis" unicode="&#xc4;" horiz-adv-x="620" 
d="M446 0l-41 144h-198l-40 -144h-152l203 685h189l198 -685h-159zM306 499l-65 -227h131l-64 227h-2zM140 817c0 40 32 64 71 64c40 0 72 -24 72 -64s-32 -64 -72 -64c-39 0 -71 24 -71 64zM338 817c0 40 32 64 72 64c39 0 71 -24 71 -64s-32 -64 -71 -64
c-40 0 -72 24 -72 64z" />
    <glyph glyph-name="Aring" unicode="&#xc5;" horiz-adv-x="620" 
d="M446 0l-41 144h-198l-40 -144h-152l203 685h189l198 -685h-159zM306 499l-65 -227h131l-64 227h-2zM219 807c0 51 36 88 91 88c54 0 91 -37 91 -88s-37 -87 -91 -87s-91 36 -91 87zM267 807c0 -29 21 -42 43 -42s43 13 43 42c0 30 -21 43 -43 43s-43 -13 -43 -43z" />
    <glyph glyph-name="AE" unicode="&#xc6;" horiz-adv-x="930" 
d="M887 680v-128h-286v-138h241v-128h-241v-158h295l-17 -128h-430v144h-202l-80 -144h-152l392 680h480zM446 499l-129 -227h132v227h-3z" />
    <glyph glyph-name="Ccedilla" unicode="&#xc7;" horiz-adv-x="615" 
d="M43 340c0 195 94 350 309 350c74 0 139 -12 224 -50l-39 -120c-71 31 -114 46 -169 46c-105 0 -165 -97 -165 -226c0 -152 68 -222 149 -222c59 0 102 36 134 94l110 -64c-53 -118 -147 -150 -221 -156v-32c43 -9 81 -28 81 -76c0 -53 -37 -84 -113 -84
c-24 0 -49 4 -73 12l10 50c15 -5 35 -10 53 -10c23 0 34 13 34 28c0 19 -17 30 -50 36v75c-188 13 -274 162 -274 349z" />
    <glyph glyph-name="Egrave" unicode="&#xc8;" horiz-adv-x="534" 
d="M491 680v-128h-286v-138h241v-128h-241v-158h295l-17 -128h-430v680h438zM113 782l40 94l167 -102l-29 -53z" />
    <glyph glyph-name="Eacute" unicode="&#xc9;" horiz-adv-x="534" 
d="M491 680v-128h-286v-138h241v-128h-241v-158h295l-17 -128h-430v680h438zM357 876l40 -94l-178 -61l-29 53z" />
    <glyph glyph-name="Ecircumflex" unicode="&#xca;" horiz-adv-x="534" 
d="M491 680v-128h-286v-138h241v-128h-241v-158h295l-17 -128h-430v680h438zM268 810l-67 -80h-92l117 176h84l117 -176h-92z" />
    <glyph glyph-name="Edieresis" unicode="&#xcb;" horiz-adv-x="534" 
d="M491 680v-128h-286v-138h241v-128h-241v-158h295l-17 -128h-430v680h438zM97 817c0 40 32 64 71 64c40 0 72 -24 72 -64s-32 -64 -72 -64c-39 0 -71 24 -71 64zM295 817c0 40 32 64 72 64c39 0 71 -24 71 -64s-32 -64 -71 -64c-40 0 -72 24 -72 64z" />
    <glyph glyph-name="Igrave" unicode="&#xcc;" horiz-adv-x="258" 
d="M205 680v-680h-152v680h152zM-47 782l40 94l167 -102l-29 -53z" />
    <glyph glyph-name="Iacute" unicode="&#xcd;" horiz-adv-x="258" 
d="M205 680v-680h-152v680h152zM259 876l40 -94l-178 -61l-29 53z" />
    <glyph glyph-name="Icircumflex" unicode="&#xce;" horiz-adv-x="258" 
d="M205 680v-680h-152v680h152zM130 810l-67 -80h-92l117 176h84l117 -176h-92z" />
    <glyph glyph-name="Idieresis" unicode="&#xcf;" horiz-adv-x="258" 
d="M205 680v-680h-152v680h152zM-41 817c0 40 32 64 71 64c40 0 72 -24 72 -64s-32 -64 -72 -64c-39 0 -71 24 -71 64zM157 817c0 40 32 64 72 64c39 0 71 -24 71 -64s-32 -64 -71 -64c-40 0 -72 24 -72 64z" />
    <glyph glyph-name="Eth" unicode="&#xd0;" horiz-adv-x="653" 
d="M0 391h76v289h249c216 0 285 -150 285 -335c0 -186 -69 -345 -285 -345h-249v276h-76v115zM325 552h-97v-161h100v-115h-100v-148h97c104 0 125 102 125 217s-21 207 -125 207z" />
    <glyph glyph-name="Ntilde" unicode="&#xd1;" horiz-adv-x="631" 
d="M207 381h-2v-381h-152v680h152l219 -381h2v381h152v-680h-152zM193 728l-66 33c23 65 53 115 115 115c61 0 109 -51 142 -51c23 0 36 25 49 52l70 -41c-27 -74 -62 -107 -107 -107c-57 0 -111 51 -146 51c-30 0 -43 -26 -57 -52z" />
    <glyph glyph-name="Ograve" unicode="&#xd2;" horiz-adv-x="678" 
d="M339 566c-104 0 -136 -90 -136 -221s32 -231 136 -231s136 100 136 231s-32 221 -136 221zM339 -10c-217 0 -296 161 -296 355c0 193 79 345 296 345c216 0 296 -152 296 -345c0 -194 -80 -355 -296 -355zM191 782l40 94l167 -102l-29 -53z" />
    <glyph glyph-name="Oacute" unicode="&#xd3;" horiz-adv-x="678" 
d="M339 566c-104 0 -136 -90 -136 -221s32 -231 136 -231s136 100 136 231s-32 221 -136 221zM339 -10c-217 0 -296 161 -296 355c0 193 79 345 296 345c216 0 296 -152 296 -345c0 -194 -80 -355 -296 -355zM494 876l40 -94l-178 -61l-29 53z" />
    <glyph glyph-name="Ocircumflex" unicode="&#xd4;" horiz-adv-x="678" 
d="M339 566c-104 0 -136 -90 -136 -221s32 -231 136 -231s136 100 136 231s-32 221 -136 221zM339 -10c-217 0 -296 161 -296 355c0 193 79 345 296 345c216 0 296 -152 296 -345c0 -194 -80 -355 -296 -355zM340 810l-67 -80h-92l117 176h84l117 -176h-92z" />
    <glyph glyph-name="Otilde" unicode="&#xd5;" horiz-adv-x="678" 
d="M339 566c-104 0 -136 -90 -136 -221s32 -231 136 -231s136 100 136 231s-32 221 -136 221zM339 -10c-217 0 -296 161 -296 355c0 193 79 345 296 345c216 0 296 -152 296 -345c0 -194 -80 -355 -296 -355zM217 728l-66 33c23 65 53 115 115 115c61 0 109 -51 142 -51
c23 0 36 25 49 52l70 -41c-27 -74 -62 -107 -107 -107c-57 0 -111 51 -146 51c-30 0 -43 -26 -57 -52z" />
    <glyph glyph-name="Odieresis" unicode="&#xd6;" horiz-adv-x="678" 
d="M339 566c-104 0 -136 -90 -136 -221s32 -231 136 -231s136 100 136 231s-32 221 -136 221zM339 -10c-217 0 -296 161 -296 355c0 193 79 345 296 345c216 0 296 -152 296 -345c0 -194 -80 -355 -296 -355zM169 817c0 40 32 64 71 64c40 0 72 -24 72 -64s-32 -64 -72 -64
c-39 0 -71 24 -71 64zM367 817c0 40 32 64 72 64c39 0 71 -24 71 -64s-32 -64 -71 -64c-40 0 -72 24 -72 64z" />
    <glyph glyph-name="multiply" unicode="&#xd7;" horiz-adv-x="523" 
d="M364 80l-102 101l-102 -102l-82 81l103 103l-105 105l82 81l104 -105l104 104l81 -82l-103 -103l101 -101z" />
    <glyph glyph-name="Oslash" unicode="&#xd8;" horiz-adv-x="678" 
d="M526 712l43 -26l-36 -59c72 -62 102 -165 102 -282c0 -194 -80 -355 -296 -355c-68 0 -123 15 -166 43l-39 -65l-43 26l43 71c-65 66 -91 167 -91 280c0 193 79 345 296 345c61 0 112 -13 153 -35zM475 345c0 59 -7 109 -23 147l-205 -337c21 -26 51 -41 92 -41
c104 0 136 100 136 231zM339 566c-104 0 -136 -90 -136 -221c0 -52 5 -99 17 -137l200 330c-20 18 -47 28 -81 28z" />
    <glyph glyph-name="Ugrave" unicode="&#xd9;" horiz-adv-x="631" 
d="M313 -10c-145 0 -260 63 -260 241v449h152v-449c0 -63 31 -117 108 -117s113 54 113 117v449h152v-449c0 -178 -120 -241 -265 -241zM147 782l40 94l167 -102l-29 -53z" />
    <glyph glyph-name="Uacute" unicode="&#xda;" horiz-adv-x="631" 
d="M313 -10c-145 0 -260 63 -260 241v449h152v-449c0 -63 31 -117 108 -117s113 54 113 117v449h152v-449c0 -178 -120 -241 -265 -241zM450 876l40 -94l-178 -61l-29 53z" />
    <glyph glyph-name="Ucircumflex" unicode="&#xdb;" horiz-adv-x="631" 
d="M313 -10c-145 0 -260 63 -260 241v449h152v-449c0 -63 31 -117 108 -117s113 54 113 117v449h152v-449c0 -178 -120 -241 -265 -241zM316 810l-67 -80h-92l117 176h84l117 -176h-92z" />
    <glyph glyph-name="Udieresis" unicode="&#xdc;" horiz-adv-x="631" 
d="M313 -10c-145 0 -260 63 -260 241v449h152v-449c0 -63 31 -117 108 -117s113 54 113 117v449h152v-449c0 -178 -120 -241 -265 -241zM145 817c0 40 32 64 71 64c40 0 72 -24 72 -64s-32 -64 -72 -64c-39 0 -71 24 -71 64zM343 817c0 40 32 64 72 64c39 0 71 -24 71 -64
s-32 -64 -71 -64c-40 0 -72 24 -72 64z" />
    <glyph glyph-name="Yacute" unicode="&#xdd;" horiz-adv-x="586" 
d="M292 414h2l108 266h169l-202 -448v-232h-152v232l-202 448h169zM435 876l40 -94l-178 -61l-29 53z" />
    <glyph glyph-name="Thorn" unicode="&#xde;" horiz-adv-x="580" 
d="M326 114h-121v-114h-152v680h152v-134h121c131 0 218 -85 218 -214s-87 -218 -218 -218zM205 418v-176h89c47 0 90 23 90 90c0 66 -42 86 -89 86h-90z" />
    <glyph glyph-name="germandbls" unicode="&#xdf;" horiz-adv-x="605" 
d="M307 710c109 0 197 -42 197 -148c0 -94 -119 -147 -119 -197c0 -61 189 -70 189 -211c0 -115 -92 -164 -193 -164c-43 0 -71 8 -104 19l-10 107c37 -12 73 -19 99 -19c49 0 68 24 68 49c0 82 -164 94 -164 198c0 53 83 135 83 202c0 40 -27 61 -63 61
c-46 0 -77 -42 -77 -116v-491h-136v397h-55v68l55 35c0 158 120 210 230 210z" />
    <glyph glyph-name="agrave" unicode="&#xe0;" horiz-adv-x="509" 
d="M314 54l-2 10h-2c-35 -51 -84 -74 -143 -74c-87 0 -141 55 -141 132c0 101 82 143 177 164l109 25v27c0 34 -27 61 -76 61c-41 0 -94 -16 -143 -40l-42 97c66 39 151 54 208 54c120 0 189 -66 189 -162v-215c0 -20 6 -30 43 -35l-13 -107c-130 0 -152 23 -164 63z
M312 212v16l-97 -25c-28 -6 -53 -20 -53 -57c0 -36 31 -49 56 -49c57 0 94 55 94 115zM92 602l40 94l167 -102l-29 -53z" />
    <glyph glyph-name="aacute" unicode="&#xe1;" horiz-adv-x="509" 
d="M314 54l-2 10h-2c-35 -51 -84 -74 -143 -74c-87 0 -141 55 -141 132c0 101 82 143 177 164l109 25v27c0 34 -27 61 -76 61c-41 0 -94 -16 -143 -40l-42 97c66 39 151 54 208 54c120 0 189 -66 189 -162v-215c0 -20 6 -30 43 -35l-13 -107c-130 0 -152 23 -164 63z
M312 212v16l-97 -25c-28 -6 -53 -20 -53 -57c0 -36 31 -49 56 -49c57 0 94 55 94 115zM365 696l40 -94l-178 -61l-29 53z" />
    <glyph glyph-name="acircumflex" unicode="&#xe2;" horiz-adv-x="509" 
d="M314 54l-2 10h-2c-35 -51 -84 -74 -143 -74c-87 0 -141 55 -141 132c0 101 82 143 177 164l109 25v27c0 34 -27 61 -76 61c-41 0 -94 -16 -143 -40l-42 97c66 39 151 54 208 54c120 0 189 -66 189 -162v-215c0 -20 6 -30 43 -35l-13 -107c-130 0 -152 23 -164 63z
M312 212v16l-97 -25c-28 -6 -53 -20 -53 -57c0 -36 31 -49 56 -49c57 0 94 55 94 115zM259 630l-67 -80h-92l117 176h84l117 -176h-92z" />
    <glyph glyph-name="atilde" unicode="&#xe3;" horiz-adv-x="509" 
d="M314 54l-2 10h-2c-35 -51 -84 -74 -143 -74c-87 0 -141 55 -141 132c0 101 82 143 177 164l109 25v27c0 34 -27 61 -76 61c-41 0 -94 -16 -143 -40l-42 97c66 39 151 54 208 54c120 0 189 -66 189 -162v-215c0 -20 6 -30 43 -35l-13 -107c-130 0 -152 23 -164 63z
M312 212v16l-97 -25c-28 -6 -53 -20 -53 -57c0 -36 31 -49 56 -49c57 0 94 55 94 115zM147 548l-66 33c23 65 53 115 115 115c61 0 109 -51 142 -51c23 0 36 25 49 52l70 -41c-27 -74 -62 -107 -107 -107c-57 0 -111 51 -146 51c-30 0 -43 -26 -57 -52z" />
    <glyph glyph-name="adieresis" unicode="&#xe4;" horiz-adv-x="509" 
d="M314 54l-2 10h-2c-35 -51 -84 -74 -143 -74c-87 0 -141 55 -141 132c0 101 82 143 177 164l109 25v27c0 34 -27 61 -76 61c-41 0 -94 -16 -143 -40l-42 97c66 39 151 54 208 54c120 0 189 -66 189 -162v-215c0 -20 6 -30 43 -35l-13 -107c-130 0 -152 23 -164 63z
M312 212v16l-97 -25c-28 -6 -53 -20 -53 -57c0 -36 31 -49 56 -49c57 0 94 55 94 115zM86 637c0 40 32 64 71 64c40 0 72 -24 72 -64s-32 -64 -72 -64c-39 0 -71 24 -71 64zM284 637c0 40 32 64 72 64c39 0 71 -24 71 -64s-32 -64 -71 -64c-40 0 -72 24 -72 64z" />
    <glyph glyph-name="aring" unicode="&#xe5;" horiz-adv-x="509" 
d="M314 54l-2 10h-2c-35 -51 -84 -74 -143 -74c-87 0 -141 55 -141 132c0 101 82 143 177 164l109 25v27c0 34 -27 61 -76 61c-41 0 -94 -16 -143 -40l-42 97c66 39 151 54 208 54c120 0 189 -66 189 -162v-215c0 -20 6 -30 43 -35l-13 -107c-130 0 -152 23 -164 63z
M312 212v16l-97 -25c-28 -6 -53 -20 -53 -57c0 -36 31 -49 56 -49c57 0 94 55 94 115zM170 627c0 51 36 88 91 88c54 0 91 -37 91 -88s-37 -87 -91 -87s-91 36 -91 87zM218 627c0 -29 21 -42 43 -42s43 13 43 42c0 30 -21 43 -43 43s-43 -13 -43 -43z" />
    <glyph glyph-name="ae" unicode="&#xe6;" horiz-adv-x="792" 
d="M557 510c152 0 202 -92 202 -215c0 -24 -4 -51 -8 -77h-296c6 -69 56 -117 123 -117c41 0 90 12 127 31l38 -97c-65 -36 -131 -45 -187 -45c-98 0 -170 46 -210 118c-51 -93 -123 -118 -179 -118c-87 0 -141 55 -141 132c0 101 82 143 177 164l109 25v27
c0 34 -27 61 -76 61c-41 0 -94 -16 -143 -40l-42 97c66 39 151 54 208 54c62 0 110 -18 143 -49c39 31 91 49 155 49zM312 212v16l-97 -25c-28 -6 -53 -20 -53 -57c0 -36 31 -49 56 -49c57 0 94 55 94 115zM557 399c-57 0 -94 -37 -100 -92h169c1 5 1 11 1 16
c0 40 -19 76 -70 76z" />
    <glyph glyph-name="ccedilla" unicode="&#xe7;" horiz-adv-x="462" 
d="M291 395c-81 0 -118 -57 -118 -145s38 -145 115 -145c41 0 80 12 117 31l42 -101c-59 -33 -115 -43 -166 -45v-30c43 -9 81 -28 81 -76c0 -53 -37 -84 -113 -84c-24 0 -49 4 -73 12l10 50c15 -5 35 -10 53 -10c23 0 34 13 34 28c0 19 -17 30 -50 36v78
c-124 19 -190 122 -190 256c0 148 81 260 242 260c59 0 95 -3 145 -21l-9 -114c-62 17 -90 20 -120 20z" />
    <glyph glyph-name="egrave" unicode="&#xe8;" horiz-adv-x="512" 
d="M277 510c152 0 202 -92 202 -215c0 -24 -4 -51 -8 -77h-296c6 -69 56 -117 123 -117c41 0 90 12 127 31l38 -97c-65 -36 -131 -45 -187 -45c-152 0 -243 112 -243 260s83 260 244 260zM277 399c-57 0 -94 -37 -100 -92h169c1 5 1 11 1 16c0 40 -19 76 -70 76zM145 602
l40 94l167 -102l-29 -53z" />
    <glyph glyph-name="eacute" unicode="&#xe9;" horiz-adv-x="512" 
d="M277 510c152 0 202 -92 202 -215c0 -24 -4 -51 -8 -77h-296c6 -69 56 -117 123 -117c41 0 90 12 127 31l38 -97c-65 -36 -131 -45 -187 -45c-152 0 -243 112 -243 260s83 260 244 260zM277 399c-57 0 -94 -37 -100 -92h169c1 5 1 11 1 16c0 40 -19 76 -70 76zM380 696
l40 -94l-178 -61l-29 53z" />
    <glyph glyph-name="ecircumflex" unicode="&#xea;" horiz-adv-x="512" 
d="M277 510c152 0 202 -92 202 -215c0 -24 -4 -51 -8 -77h-296c6 -69 56 -117 123 -117c41 0 90 12 127 31l38 -97c-65 -36 -131 -45 -187 -45c-152 0 -243 112 -243 260s83 260 244 260zM277 399c-57 0 -94 -37 -100 -92h169c1 5 1 11 1 16c0 40 -19 76 -70 76zM256 630
l-67 -80h-92l117 176h84l117 -176h-92z" />
    <glyph glyph-name="edieresis" unicode="&#xeb;" horiz-adv-x="512" 
d="M277 510c152 0 202 -92 202 -215c0 -24 -4 -51 -8 -77h-296c6 -69 56 -117 123 -117c41 0 90 12 127 31l38 -97c-65 -36 -131 -45 -187 -45c-152 0 -243 112 -243 260s83 260 244 260zM277 399c-57 0 -94 -37 -100 -92h169c1 5 1 11 1 16c0 40 -19 76 -70 76zM94 637
c0 40 32 64 71 64c40 0 72 -24 72 -64s-32 -64 -72 -64c-39 0 -71 24 -71 64zM292 637c0 40 32 64 72 64c39 0 71 -24 71 -64s-32 -64 -71 -64c-40 0 -72 24 -72 64z" />
    <glyph glyph-name="igrave" unicode="&#xec;" horiz-adv-x="223" 
d="M-60 602l40 94l167 -102l-29 -53zM43 492l102 18h34v-510h-136v492z" />
    <glyph glyph-name="iacute" unicode="&#xed;" horiz-adv-x="223" 
d="M233 696l40 -94l-178 -61l-29 53zM43 492l102 18h34v-510h-136v492z" />
    <glyph glyph-name="icircumflex" unicode="&#xee;" horiz-adv-x="223" 
d="M43 492l102 18h34v-510h-136v492zM112 630l-67 -80h-92l117 176h84l117 -176h-92z" />
    <glyph glyph-name="idieresis" unicode="&#xef;" horiz-adv-x="223" 
d="M-60 637c0 40 32 64 71 64c40 0 72 -24 72 -64s-32 -64 -72 -64c-39 0 -71 24 -71 64zM138 637c0 40 32 64 72 64c39 0 71 -24 71 -64s-32 -64 -71 -64c-40 0 -72 24 -72 64zM43 492l102 18h34v-510h-136v492z" />
    <glyph glyph-name="eth" unicode="&#xf0;" horiz-adv-x="536" 
d="M136 527l58 34c-37 19 -77 34 -117 44l21 105c53 -8 136 -32 214 -81l87 51l29 -51l-64 -37c77 -66 139 -163 139 -304c0 -160 -76 -298 -243 -298c-128 0 -227 79 -227 223c0 135 82 216 198 216c49 0 107 -26 129 -56l2 1c-19 61 -59 112 -112 151l-85 -49zM358 261
c-19 24 -58 43 -91 43c-65 0 -90 -45 -90 -95c0 -73 42 -104 87 -104c78 0 94 80 94 156z" />
    <glyph glyph-name="ntilde" unicode="&#xf1;" horiz-adv-x="518" 
d="M43 492l102 18h34v-96h2c34 68 90 96 145 96c90 0 149 -67 149 -168v-342h-136v312c0 53 -30 79 -71 79c-40 0 -89 -37 -89 -123v-268h-136v492zM137 548l-66 33c23 65 53 115 115 115c61 0 109 -51 142 -51c23 0 36 25 49 52l70 -41c-27 -74 -62 -107 -107 -107
c-57 0 -111 51 -146 51c-30 0 -43 -26 -57 -52z" />
    <glyph glyph-name="ograve" unicode="&#xf2;" horiz-adv-x="540" 
d="M270 395c-66 0 -97 -57 -97 -145s31 -145 97 -145s97 57 97 145s-31 145 -97 145zM270 -10c-152 0 -237 112 -237 260s85 260 237 260s237 -112 237 -260s-85 -260 -237 -260zM116 602l40 94l167 -102l-29 -53z" />
    <glyph glyph-name="oacute" unicode="&#xf3;" horiz-adv-x="540" 
d="M270 395c-66 0 -97 -57 -97 -145s31 -145 97 -145s97 57 97 145s-31 145 -97 145zM270 -10c-152 0 -237 112 -237 260s85 260 237 260s237 -112 237 -260s-85 -260 -237 -260zM410 696l40 -94l-178 -61l-29 53z" />
    <glyph glyph-name="ocircumflex" unicode="&#xf4;" horiz-adv-x="540" 
d="M270 395c-66 0 -97 -57 -97 -145s31 -145 97 -145s97 57 97 145s-31 145 -97 145zM270 -10c-152 0 -237 112 -237 260s85 260 237 260s237 -112 237 -260s-85 -260 -237 -260zM271 630l-67 -80h-92l117 176h84l117 -176h-92z" />
    <glyph glyph-name="otilde" unicode="&#xf5;" horiz-adv-x="540" 
d="M270 395c-66 0 -97 -57 -97 -145s31 -145 97 -145s97 57 97 145s-31 145 -97 145zM270 -10c-152 0 -237 112 -237 260s85 260 237 260s237 -112 237 -260s-85 -260 -237 -260zM148 548l-66 33c23 65 53 115 115 115c61 0 109 -51 142 -51c23 0 36 25 49 52l70 -41
c-27 -74 -62 -107 -107 -107c-57 0 -111 51 -146 51c-30 0 -43 -26 -57 -52z" />
    <glyph glyph-name="odieresis" unicode="&#xf6;" horiz-adv-x="540" 
d="M270 395c-66 0 -97 -57 -97 -145s31 -145 97 -145s97 57 97 145s-31 145 -97 145zM270 -10c-152 0 -237 112 -237 260s85 260 237 260s237 -112 237 -260s-85 -260 -237 -260zM99 637c0 40 32 64 71 64c40 0 72 -24 72 -64s-32 -64 -72 -64c-39 0 -71 24 -71 64zM297 637
c0 40 32 64 72 64c39 0 71 -24 71 -64s-32 -64 -71 -64c-40 0 -72 24 -72 64z" />
    <glyph glyph-name="divide" unicode="&#xf7;" horiz-adv-x="455" 
d="M76 320h350v-115h-350v115zM188 92c0 35 30 65 66 65c35 0 65 -30 65 -65c0 -36 -30 -66 -65 -66c-36 0 -66 30 -66 66zM188 440c0 35 30 65 66 65c35 0 65 -30 65 -65c0 -36 -30 -66 -65 -66c-36 0 -66 30 -66 66z" />
    <glyph glyph-name="oslash" unicode="&#xf8;" horiz-adv-x="540" 
d="M270 -10c-43 0 -80 9 -112 25l-28 -47l-43 26l29 49c-54 46 -83 120 -83 207c0 148 85 260 237 260c43 0 82 -10 114 -26l29 48l43 -26l-31 -51c53 -47 82 -120 82 -205c0 -148 -85 -260 -237 -260zM270 395c-66 0 -97 -57 -97 -145c0 -35 5 -66 15 -89l133 219
c-14 10 -31 15 -51 15zM367 250c0 34 -5 63 -14 86l-132 -218c14 -9 30 -13 49 -13c66 0 97 57 97 145z" />
    <glyph glyph-name="ugrave" unicode="&#xf9;" horiz-adv-x="518" 
d="M475 0h-127l-9 86h-2c-34 -68 -90 -96 -145 -96c-90 0 -149 67 -149 168v342h136v-312c0 -53 30 -79 71 -79c40 0 89 37 89 123v268h136v-500zM92 602l40 94l167 -102l-29 -53z" />
    <glyph glyph-name="uacute" unicode="&#xfa;" horiz-adv-x="518" 
d="M475 0h-127l-9 86h-2c-34 -68 -90 -96 -145 -96c-90 0 -149 67 -149 168v342h136v-312c0 -53 30 -79 71 -79c40 0 89 37 89 123v268h136v-500zM384 696l40 -94l-178 -61l-29 53z" />
    <glyph glyph-name="ucircumflex" unicode="&#xfb;" horiz-adv-x="518" 
d="M475 0h-127l-9 86h-2c-34 -68 -90 -96 -145 -96c-90 0 -149 67 -149 168v342h136v-312c0 -53 30 -79 71 -79c40 0 89 37 89 123v268h136v-500zM260 630l-67 -80h-92l117 176h84l117 -176h-92z" />
    <glyph glyph-name="udieresis" unicode="&#xfc;" horiz-adv-x="518" 
d="M475 0h-127l-9 86h-2c-34 -68 -90 -96 -145 -96c-90 0 -149 67 -149 168v342h136v-312c0 -53 30 -79 71 -79c40 0 89 37 89 123v268h136v-500zM88 637c0 40 32 64 71 64c40 0 72 -24 72 -64s-32 -64 -72 -64c-39 0 -71 24 -71 64zM286 637c0 40 32 64 72 64
c39 0 71 -24 71 -64s-32 -64 -71 -64c-40 0 -72 24 -72 64z" />
    <glyph glyph-name="yacute" unicode="&#xfd;" horiz-adv-x="526" 
d="M177 -7l-166 507h153l107 -361h2l93 361h149l-154 -481c-55 -173 -147 -219 -256 -219c-26 0 -61 4 -86 9l13 116c14 -3 33 -5 42 -5c38 0 89 17 103 73zM397 696l40 -94l-178 -61l-29 53z" />
    <glyph glyph-name="thorn" unicode="&#xfe;" horiz-adv-x="526" 
d="M43 692l102 18h34v-282h2c21 51 68 82 124 82c121 0 188 -118 188 -260s-74 -260 -200 -260c-42 0 -82 16 -112 55h-2v-245h-136v892zM353 250c0 80 -27 145 -93 145c-49 0 -81 -39 -81 -97v-166c13 -12 41 -27 77 -27c70 0 97 65 97 145z" />
    <glyph glyph-name="ydieresis" unicode="&#xff;" horiz-adv-x="526" 
d="M177 -7l-166 507h153l107 -361h2l93 361h149l-154 -481c-55 -173 -147 -219 -256 -219c-26 0 -61 4 -86 9l13 116c14 -3 33 -5 42 -5c38 0 89 17 103 73zM92 637c0 40 32 64 71 64c40 0 72 -24 72 -64s-32 -64 -72 -64c-39 0 -71 24 -71 64zM290 637c0 40 32 64 72 64
c39 0 71 -24 71 -64s-32 -64 -71 -64c-40 0 -72 24 -72 64z" />
    <glyph glyph-name="breve" unicode="&#x2d8;" horiz-adv-x="442" 
d="M221 552c-106 0 -145 85 -145 158h87c1 -36 17 -70 58 -70s57 34 58 70h87c0 -73 -39 -158 -145 -158z" />
    <glyph glyph-name="cyrbreve" horiz-adv-x="442" 
d="M221 552c-106 0 -145 85 -145 158h87c1 -36 17 -70 58 -70s57 34 58 70h87c0 -73 -39 -158 -145 -158z" />
    <glyph glyph-name="caron" unicode="&#x2c7;" horiz-adv-x="371" 
d="M168 726l67 -80l67 80h92l-117 -176h-84l-117 176h92z" />
    <glyph glyph-name="commaaccent" horiz-adv-x="293" 
d="M121 -158c-33 0 -52 29 -52 57s19 66 68 66c56 0 88 -49 88 -94c0 -87 -65 -145 -125 -177l-36 48c41 27 74 65 74 84c0 12 -7 16 -17 16z" />
    <glyph glyph-name="undercommaaccent" horiz-adv-x="293" 
d="M121 -158c-33 0 -52 29 -52 57s19 66 68 66c56 0 88 -49 88 -94c0 -87 -65 -145 -125 -177l-36 48c41 27 74 65 74 84c0 12 -7 16 -17 16z" />
    <glyph glyph-name="dieresisacute" horiz-adv-x="633" 
d="M76 637c0 40 32 64 71 64c40 0 72 -24 72 -64s-32 -64 -72 -64c-39 0 -71 24 -71 64zM414 637c0 40 32 64 72 64c39 0 71 -24 71 -64s-32 -64 -71 -64c-40 0 -72 24 -72 64zM346 777l80 -56l-127 -145l-52 31z" />
    <glyph glyph-name="dieresisgrave" horiz-adv-x="633" 
d="M557 637c0 -40 -32 -64 -71 -64c-40 0 -72 24 -72 64s32 64 72 64c39 0 71 -24 71 -64zM219 637c0 -40 -32 -64 -72 -64c-39 0 -71 24 -71 64s32 64 71 64c40 0 72 -24 72 -64zM207 721l80 56l99 -170l-52 -31z" />
    <glyph glyph-name="dotaccent" unicode="&#x2d9;" horiz-adv-x="282" 
d="M77 637c0 36 28 58 65 58c35 0 64 -22 64 -58c0 -37 -29 -59 -64 -59c-37 0 -65 22 -65 59z" />
    <glyph glyph-name="hungarumlaut" unicode="&#x2dd;" horiz-adv-x="541" 
d="M224 698l41 -78l-160 -79l-29 53zM424 698l41 -78l-160 -79l-29 53z" />
    <glyph glyph-name="dblgrave" horiz-adv-x="541" 
d="M276 620l41 78l148 -104l-29 -53zM76 620l41 78l148 -104l-29 -53z" />
    <glyph glyph-name="cyrflex" horiz-adv-x="470" 
d="M235 630l-67 -80h-92l117 176h84l117 -176h-92z" />
    <glyph glyph-name="uni02C9" unicode="&#x2c9;" horiz-adv-x="430" 
d="M76 661h278v-83h-278v83z" />
    <glyph glyph-name="ogonek" unicode="&#x2db;" horiz-adv-x="294" 
d="M253 -123l19 -48c-23 -17 -59 -29 -88 -29c-59 0 -94 34 -94 81c0 44 29 86 79 119h62c-27 -23 -56 -64 -56 -96c0 -23 16 -38 38 -38c12 0 28 4 40 11z" />
    <glyph glyph-name="ring" unicode="&#x2da;" horiz-adv-x="334" 
d="M76 627c0 51 36 88 91 88c54 0 91 -37 91 -88s-37 -87 -91 -87s-91 36 -91 87zM124 627c0 -29 21 -42 43 -42s43 13 43 42c0 30 -21 43 -43 43s-43 -13 -43 -43z" />
    <glyph glyph-name="Acute" horiz-adv-x="359" 
d="M243 876l40 -94l-178 -61l-29 53z" />
    <glyph glyph-name="Breve" horiz-adv-x="442" 
d="M221 732c-106 0 -145 85 -145 158h87c1 -36 17 -70 58 -70s57 34 58 70h87c0 -73 -39 -158 -145 -158z" />
    <glyph glyph-name="cyrBreve" horiz-adv-x="442" 
d="M221 732c-106 0 -145 85 -145 158h87c1 -36 17 -70 58 -70s57 34 58 70h87c0 -73 -39 -158 -145 -158z" />
    <glyph glyph-name="Caron" horiz-adv-x="371" 
d="M168 906l67 -80l67 80h92l-117 -176h-84l-117 176h92z" />
    <glyph glyph-name="Cedilla" horiz-adv-x="338" 
d="M123 -84v84h58v-40c43 -9 81 -28 81 -76c0 -53 -37 -84 -113 -84c-24 0 -49 4 -73 12l10 50c15 -5 35 -10 53 -10c23 0 34 13 34 28c0 19 -17 30 -50 36z" />
    <glyph glyph-name="Circumflex" horiz-adv-x="470" 
d="M235 810l-67 -80h-92l117 176h84l117 -176h-92z" />
    <glyph glyph-name="commaaccent.cap" horiz-adv-x="293" 
d="M121 -158c-33 0 -52 29 -52 57s19 66 68 66c56 0 88 -49 88 -94c0 -87 -65 -145 -125 -177l-36 48c41 27 74 65 74 84c0 12 -7 16 -17 16z" />
    <glyph glyph-name="Dieresis" horiz-adv-x="493" 
d="M76 817c0 40 32 64 71 64c40 0 72 -24 72 -64s-32 -64 -72 -64c-39 0 -71 24 -71 64zM274 817c0 40 32 64 72 64c39 0 71 -24 71 -64s-32 -64 -71 -64c-40 0 -72 24 -72 64z" />
    <glyph glyph-name="DieresisAcute" horiz-adv-x="633" 
d="M76 817c0 40 32 64 71 64c40 0 72 -24 72 -64s-32 -64 -72 -64c-39 0 -71 24 -71 64zM414 817c0 40 32 64 72 64c39 0 71 -24 71 -64s-32 -64 -71 -64c-40 0 -72 24 -72 64zM346 957l80 -56l-127 -145l-52 31z" />
    <glyph glyph-name="DieresisGrave" horiz-adv-x="633" 
d="M557 817c0 -40 -32 -64 -71 -64c-40 0 -72 24 -72 64s32 64 72 64c39 0 71 -24 71 -64zM219 817c0 -40 -32 -64 -72 -64c-39 0 -71 24 -71 64s32 64 71 64c40 0 72 -24 72 -64zM207 901l80 56l99 -170l-52 -31z" />
    <glyph glyph-name="Dotaccent" horiz-adv-x="282" 
d="M77 817c0 36 28 58 65 58c35 0 64 -22 64 -58c0 -37 -29 -59 -64 -59c-37 0 -65 22 -65 59z" />
    <glyph glyph-name="Hungarumlaut" horiz-adv-x="541" 
d="M224 878l41 -78l-160 -79l-29 53zM424 878l41 -78l-160 -79l-29 53z" />
    <glyph glyph-name="Grave" horiz-adv-x="359" 
d="M76 782l40 94l167 -102l-29 -53z" />
    <glyph glyph-name="dblGrave" horiz-adv-x="541" 
d="M276 800l41 78l148 -104l-29 -53zM76 800l41 78l148 -104l-29 -53z" />
    <glyph glyph-name="cyrFlex" horiz-adv-x="470" 
d="M235 810l-67 -80h-92l117 176h84l117 -176h-92z" />
    <glyph glyph-name="Macron" horiz-adv-x="430" 
d="M76 841h278v-83h-278v83z" />
    <glyph glyph-name="Ogonek" horiz-adv-x="294" 
d="M253 -123l19 -48c-23 -17 -59 -29 -88 -29c-59 0 -94 34 -94 81c0 44 29 86 79 119h62c-27 -23 -56 -64 -56 -96c0 -23 16 -38 38 -38c12 0 28 4 40 11z" />
    <glyph glyph-name="Ring" horiz-adv-x="334" 
d="M76 807c0 51 36 88 91 88c54 0 91 -37 91 -88s-37 -87 -91 -87s-91 36 -91 87zM124 807c0 -29 21 -42 43 -42s43 13 43 42c0 30 -21 43 -43 43s-43 -13 -43 -43z" />
    <glyph glyph-name="Tilde" horiz-adv-x="528" 
d="M142 728l-66 33c23 65 53 115 115 115c61 0 109 -51 142 -51c23 0 36 25 49 52l70 -41c-27 -74 -62 -107 -107 -107c-57 0 -111 51 -146 51c-30 0 -43 -26 -57 -52z" />
    <glyph glyph-name="Acutesmall" horiz-adv-x="359" 
d="M243 736l40 -94l-178 -61l-29 53z" />
    <glyph glyph-name="Brevesmall" horiz-adv-x="442" 
d="M221 592c-106 0 -145 85 -145 158h87c1 -36 17 -70 58 -70s57 34 58 70h87c0 -73 -39 -158 -145 -158z" />
    <glyph glyph-name="Caronsmall" horiz-adv-x="371" 
d="M168 766l67 -80l67 80h92l-117 -176h-84l-117 176h92z" />
    <glyph glyph-name="Cedillasmall" horiz-adv-x="338" 
d="M123 -84v84h58v-40c43 -9 81 -28 81 -76c0 -53 -37 -84 -113 -84c-24 0 -49 4 -73 12l10 50c15 -5 35 -10 53 -10c23 0 34 13 34 28c0 19 -17 30 -50 36z" />
    <glyph glyph-name="Circumflexsmall" horiz-adv-x="470" 
d="M235 670l-67 -80h-92l117 176h84l117 -176h-92z" />
    <glyph glyph-name="commaaccent.small" horiz-adv-x="293" 
d="M121 -158c-33 0 -52 29 -52 57s19 66 68 66c56 0 88 -49 88 -94c0 -87 -65 -145 -125 -177l-36 48c41 27 74 65 74 84c0 12 -7 16 -17 16z" />
    <glyph glyph-name="Dieresissmall" horiz-adv-x="493" 
d="M76 677c0 40 32 64 71 64c40 0 72 -24 72 -64s-32 -64 -72 -64c-39 0 -71 24 -71 64zM274 677c0 40 32 64 72 64c39 0 71 -24 71 -64s-32 -64 -71 -64c-40 0 -72 24 -72 64z" />
    <glyph glyph-name="DieresisAcute.small" horiz-adv-x="633" 
d="M76 677c0 40 32 64 71 64c40 0 72 -24 72 -64s-32 -64 -72 -64c-39 0 -71 24 -71 64zM414 677c0 40 32 64 72 64c39 0 71 -24 71 -64s-32 -64 -71 -64c-40 0 -72 24 -72 64zM346 817l80 -56l-127 -145l-52 31z" />
    <glyph glyph-name="DieresisGrave.small" horiz-adv-x="633" 
d="M557 677c0 -40 -32 -64 -71 -64c-40 0 -72 24 -72 64s32 64 72 64c39 0 71 -24 71 -64zM219 677c0 -40 -32 -64 -72 -64c-39 0 -71 24 -71 64s32 64 71 64c40 0 72 -24 72 -64zM207 761l80 56l99 -170l-52 -31z" />
    <glyph glyph-name="Dotaccentsmall" horiz-adv-x="282" 
d="M77 677c0 36 28 58 65 58c35 0 64 -22 64 -58c0 -37 -29 -59 -64 -59c-37 0 -65 22 -65 59z" />
    <glyph glyph-name="Hungarumlautsmall" horiz-adv-x="541" 
d="M224 738l41 -78l-160 -79l-29 53zM424 738l41 -78l-160 -79l-29 53z" />
    <glyph glyph-name="Gravesmall" horiz-adv-x="359" 
d="M76 642l40 94l167 -102l-29 -53z" />
    <glyph glyph-name="dblGrave.small" horiz-adv-x="541" 
d="M276 660l41 78l148 -104l-29 -53zM76 660l41 78l148 -104l-29 -53z" />
    <glyph glyph-name="Macronsmall" horiz-adv-x="430" 
d="M76 701h278v-83h-278v83z" />
    <glyph glyph-name="Ogoneksmall" horiz-adv-x="294" 
d="M253 -123l19 -48c-23 -17 -59 -29 -88 -29c-59 0 -94 34 -94 81c0 44 29 86 79 119h62c-27 -23 -56 -64 -56 -96c0 -23 16 -38 38 -38c12 0 28 4 40 11z" />
    <glyph glyph-name="Ringsmall" horiz-adv-x="334" 
d="M76 667c0 51 36 88 91 88c54 0 91 -37 91 -88s-37 -87 -91 -87s-91 36 -91 87zM124 667c0 -29 21 -42 43 -42s43 13 43 42c0 30 -21 43 -43 43s-43 -13 -43 -43z" />
    <glyph glyph-name="Tildesmall" horiz-adv-x="528" 
d="M142 588l-66 33c23 65 53 115 115 115c61 0 109 -51 142 -51c23 0 36 25 49 52l70 -41c-27 -74 -62 -107 -107 -107c-57 0 -111 51 -146 51c-30 0 -43 -26 -57 -52z" />
    <glyph glyph-name="middot" horiz-adv-x="224" 
d="M48 277c0 36 29 58 65 58s65 -22 65 -58c0 -37 -29 -59 -65 -59s-65 22 -65 59z" />
    <glyph glyph-name="Abreve" unicode="&#x102;" horiz-adv-x="620" 
d="M446 0l-41 144h-198l-40 -144h-152l203 685h189l198 -685h-159zM306 499l-65 -227h131l-64 227h-2zM310 732c-106 0 -145 85 -145 158h87c1 -36 17 -70 58 -70s57 34 58 70h87c0 -73 -39 -158 -145 -158z" />
    <glyph glyph-name="Amacron" unicode="&#x100;" horiz-adv-x="620" 
d="M446 0l-41 144h-198l-40 -144h-152l203 685h189l198 -685h-159zM306 499l-65 -227h131l-64 227h-2zM171 841h278v-83h-278v83z" />
    <glyph glyph-name="Aogonek" unicode="&#x104;" horiz-adv-x="620" 
d="M446 0l-41 144h-198l-40 -144h-152l203 685h189l198 -685h-49c-27 -23 -56 -64 -56 -96c0 -23 17 -38 39 -38c12 0 27 4 40 11l18 -48c-23 -17 -59 -29 -88 -29c-59 0 -94 34 -94 81c0 44 29 86 80 119h-49zM306 499l-65 -227h131l-64 227h-2z" />
    <glyph glyph-name="AEacute" unicode="&#x1fc;" horiz-adv-x="930" 
d="M887 680v-128h-286v-138h241v-128h-241v-158h295l-17 -128h-430v144h-202l-80 -144h-152l392 680h480zM446 499l-129 -227h132v227h-3zM652 876l40 -94l-178 -61l-29 53z" />
    <glyph glyph-name="Cacute" unicode="&#x106;" horiz-adv-x="615" 
d="M43 340c0 195 94 350 309 350c74 0 139 -12 224 -50l-39 -120c-71 31 -114 46 -169 46c-105 0 -165 -97 -165 -226c0 -152 68 -222 149 -222c59 0 102 36 134 94l110 -64c-60 -135 -176 -158 -252 -158c-207 0 -301 155 -301 350zM482 876l40 -94l-178 -61l-29 53z" />
    <glyph glyph-name="Ccaron" unicode="&#x10c;" horiz-adv-x="615" 
d="M43 340c0 195 94 350 309 350c74 0 139 -12 224 -50l-39 -120c-71 31 -114 46 -169 46c-105 0 -165 -97 -165 -226c0 -152 68 -222 149 -222c59 0 102 36 134 94l110 -64c-60 -135 -176 -158 -252 -158c-207 0 -301 155 -301 350zM271 906l67 -80l67 80h92l-117 -176h-84
l-117 176h92z" />
    <glyph glyph-name="Ccircumflex" unicode="&#x108;" horiz-adv-x="615" 
d="M43 340c0 195 94 350 309 350c74 0 139 -12 224 -50l-39 -120c-71 31 -114 46 -169 46c-105 0 -165 -97 -165 -226c0 -152 68 -222 149 -222c59 0 102 36 134 94l110 -64c-60 -135 -176 -158 -252 -158c-207 0 -301 155 -301 350zM350 810l-67 -80h-92l117 176h84
l117 -176h-92z" />
    <glyph glyph-name="Cdotaccent" unicode="&#x10a;" horiz-adv-x="615" 
d="M43 340c0 195 94 350 309 350c74 0 139 -12 224 -50l-39 -120c-71 31 -114 46 -169 46c-105 0 -165 -97 -165 -226c0 -152 68 -222 149 -222c59 0 102 36 134 94l110 -64c-60 -135 -176 -158 -252 -158c-207 0 -301 155 -301 350zM280 817c0 36 28 58 65 58
c35 0 64 -22 64 -58c0 -37 -29 -59 -64 -59c-37 0 -65 22 -65 59z" />
    <glyph glyph-name="Dcaron" unicode="&#x10e;" horiz-adv-x="630" 
d="M302 0h-249v680h249c216 0 285 -150 285 -335c0 -186 -69 -345 -285 -345zM302 552h-97v-424h97c104 0 125 102 125 217s-21 207 -125 207zM236 906l67 -80l67 80h92l-117 -176h-84l-117 176h92z" />
    <glyph glyph-name="Dcroat" unicode="&#x110;" horiz-adv-x="653" 
d="M0 391h76v289h249c216 0 285 -150 285 -335c0 -186 -69 -345 -285 -345h-249v276h-76v115zM325 552h-97v-161h100v-115h-100v-148h97c104 0 125 102 125 217s-21 207 -125 207z" />
    <glyph glyph-name="Ebreve" unicode="&#x114;" horiz-adv-x="534" 
d="M491 680v-128h-286v-138h241v-128h-241v-158h295l-17 -128h-430v680h438zM279 732c-106 0 -145 85 -145 158h87c1 -36 17 -70 58 -70s57 34 58 70h87c0 -73 -39 -158 -145 -158z" />
    <glyph glyph-name="Ecaron" unicode="&#x11a;" horiz-adv-x="534" 
d="M491 680v-128h-286v-138h241v-128h-241v-158h295l-17 -128h-430v680h438zM213 906l67 -80l67 80h92l-117 -176h-84l-117 176h92z" />
    <glyph glyph-name="Edotaccent" unicode="&#x116;" horiz-adv-x="534" 
d="M491 680v-128h-286v-138h241v-128h-241v-158h295l-17 -128h-430v680h438zM216 817c0 36 28 58 65 58c35 0 64 -22 64 -58c0 -37 -29 -59 -64 -59c-37 0 -65 22 -65 59z" />
    <glyph glyph-name="Emacron" unicode="&#x112;" horiz-adv-x="534" 
d="M491 680v-128h-286v-138h241v-128h-241v-158h295l-17 -128h-430v680h438zM133 841h278v-83h-278v83z" />
    <glyph glyph-name="Eogonek" unicode="&#x118;" horiz-adv-x="534" 
d="M506 -123l18 -48c-23 -17 -59 -29 -88 -29c-59 0 -94 34 -94 81c0 44 29 86 80 119h-369v680h438v-128h-286v-138h241v-128h-241v-158h295l-17 -128c-27 -23 -56 -64 -56 -96c0 -23 17 -38 39 -38c12 0 27 4 40 11z" />
    <glyph glyph-name="Gbreve" unicode="&#x11e;" horiz-adv-x="629" 
d="M360 114c17 0 42 3 64 11v111h-83v128h235v-364h-52l-44 22c-40 -24 -103 -32 -136 -32c-215 0 -301 155 -301 350s94 350 309 350c74 0 139 -12 224 -50l-39 -120c-71 31 -114 46 -169 46c-105 0 -165 -97 -165 -226s52 -226 157 -226zM345 732c-106 0 -145 85 -145 158
h87c1 -36 17 -70 58 -70s57 34 58 70h87c0 -73 -39 -158 -145 -158z" />
    <glyph glyph-name="Gcircumflex" unicode="&#x11c;" horiz-adv-x="629" 
d="M360 114c17 0 42 3 64 11v111h-83v128h235v-364h-52l-44 22c-40 -24 -103 -32 -136 -32c-215 0 -301 155 -301 350s94 350 309 350c74 0 139 -12 224 -50l-39 -120c-71 31 -114 46 -169 46c-105 0 -165 -97 -165 -226s52 -226 157 -226zM348 810l-67 -80h-92l117 176h84
l117 -176h-92z" />
    <glyph glyph-name="Gcommaaccent" unicode="&#x122;" horiz-adv-x="629" 
d="M360 114c17 0 42 3 64 11v111h-83v128h235v-364h-52l-44 22c-40 -24 -103 -32 -136 -32c-215 0 -301 155 -301 350s94 350 309 350c74 0 139 -12 224 -50l-39 -120c-71 31 -114 46 -169 46c-105 0 -165 -97 -165 -226s52 -226 157 -226zM313 -158c-33 0 -52 29 -52 57
s19 66 68 66c56 0 88 -49 88 -94c0 -87 -65 -145 -125 -177l-36 48c41 27 74 65 74 84c0 12 -7 16 -17 16z" />
    <glyph glyph-name="Gdotaccent" unicode="&#x120;" horiz-adv-x="629" 
d="M360 114c17 0 42 3 64 11v111h-83v128h235v-364h-52l-44 22c-40 -24 -103 -32 -136 -32c-215 0 -301 155 -301 350s94 350 309 350c74 0 139 -12 224 -50l-39 -120c-71 31 -114 46 -169 46c-105 0 -165 -97 -165 -226s52 -226 157 -226zM283 817c0 36 28 58 65 58
c35 0 64 -22 64 -58c0 -37 -29 -59 -64 -59c-37 0 -65 22 -65 59z" />
    <glyph glyph-name="Hbar" unicode="&#x126;" horiz-adv-x="611" 
d="M0 587h53v93h152v-93h201v93h152v-93h53v-115h-53v-472h-152v286h-201v-286h-152v472h-53v115zM205 414h201v58h-201v-58z" />
    <glyph glyph-name="Hcircumflex" unicode="&#x124;" horiz-adv-x="611" 
d="M205 0h-152v680h152v-266h201v266h152v-680h-152v286h-201v-286zM306 810l-67 -80h-92l117 176h84l117 -176h-92z" />
    <glyph glyph-name="Ibreve" unicode="&#x12c;" horiz-adv-x="258" 
d="M205 680v-680h-152v680h152zM129 732c-106 0 -145 85 -145 158h87c1 -36 17 -70 58 -70s57 34 58 70h87c0 -73 -39 -158 -145 -158z" />
    <glyph glyph-name="Idotaccent" unicode="&#x130;" horiz-adv-x="258" 
d="M205 680v-680h-152v680h152zM65 817c0 36 28 58 65 58c35 0 64 -22 64 -58c0 -37 -29 -59 -64 -59c-37 0 -65 22 -65 59z" />
    <glyph glyph-name="Imacron" unicode="&#x12a;" horiz-adv-x="258" 
d="M205 680v-680h-152v680h152zM-10 841h278v-83h-278v83z" />
    <glyph glyph-name="Iogonek" unicode="&#x12e;" horiz-adv-x="258" 
d="M185 -123l18 -48c-23 -17 -59 -29 -88 -29c-59 0 -94 34 -94 81c0 44 29 86 80 119h-48v680h152v-680h-43c-27 -23 -56 -64 -56 -96c0 -23 17 -38 39 -38c12 0 27 4 40 11z" />
    <glyph glyph-name="Itilde" unicode="&#x128;" horiz-adv-x="258" 
d="M205 680v-680h-152v680h152zM7 728l-66 33c23 65 53 115 115 115c61 0 109 -51 142 -51c23 0 36 25 49 52l70 -41c-27 -74 -62 -107 -107 -107c-57 0 -111 51 -146 51c-30 0 -43 -26 -57 -52z" />
    <glyph glyph-name="IJ" unicode="&#x132;" horiz-adv-x="516" 
d="M205 680v-680h-152v680h152zM311 36v644h152v-644c0 -94 -43 -197 -198 -236l-47 99c78 32 93 91 93 137z" />
    <glyph glyph-name="Jcircumflex" unicode="&#x134;" horiz-adv-x="258" 
d="M61 36v644h152v-644c0 -94 -43 -197 -198 -236l-47 99c78 32 93 91 93 137zM136 810l-67 -80h-92l117 176h84l117 -176h-92z" />
    <glyph glyph-name="Kcommaaccent" unicode="&#x136;" horiz-adv-x="606" 
d="M205 680v-284l206 284h179l-211 -289l212 -391h-180l-140 270l-66 -89v-181h-152v680h152zM281 -151c-33 0 -52 29 -52 57s19 66 68 66c56 0 88 -49 88 -94c0 -87 -65 -145 -125 -177l-36 48c41 27 74 65 74 84c0 12 -7 16 -17 16z" />
    <glyph glyph-name="Lacute" unicode="&#x139;" horiz-adv-x="514" 
d="M53 680h152v-552h295l-17 -128h-430v680zM268 876l40 -94l-178 -61l-29 53z" />
    <glyph glyph-name="Lcaron" unicode="&#x13d;" horiz-adv-x="514" 
d="M53 680h152v-552h295l-17 -128h-430v680zM329 562c-33 0 -52 29 -52 57s19 66 68 66c56 0 88 -49 88 -94c0 -87 -65 -145 -125 -177l-36 48c41 27 74 65 74 84c0 12 -7 16 -17 16z" />
    <glyph glyph-name="Lcommaaccent" unicode="&#x13b;" horiz-adv-x="514" 
d="M53 680h152v-552h295l-17 -128h-430v680zM246 -150c-33 0 -52 29 -52 57s19 66 68 66c56 0 88 -49 88 -94c0 -87 -65 -145 -125 -177l-36 48c41 27 74 65 74 84c0 12 -7 16 -17 16z" />
    <glyph glyph-name="Ldot" unicode="&#x13f;" horiz-adv-x="514" 
d="M53 680h152v-552h295l-17 -128h-430v680zM257 373c0 36 29 58 65 58s65 -22 65 -58c0 -37 -29 -59 -65 -59s-65 22 -65 59z" />
    <glyph glyph-name="Lslash" unicode="&#x141;" horiz-adv-x="537" 
d="M0 361l76 24v295h152v-251l102 32v-115l-102 -32v-186h295l-17 -128h-430v270l-76 -24v115z" />
    <glyph glyph-name="Nacute" unicode="&#x143;" horiz-adv-x="631" 
d="M207 381h-2v-381h-152v680h152l219 -381h2v381h152v-680h-152zM453 876l40 -94l-178 -61l-29 53z" />
    <glyph glyph-name="Ncaron" unicode="&#x147;" horiz-adv-x="631" 
d="M207 381h-2v-381h-152v680h152l219 -381h2v381h152v-680h-152zM249 906l67 -80l67 80h92l-117 -176h-84l-117 176h92z" />
    <glyph glyph-name="Ncommaaccent" unicode="&#x145;" horiz-adv-x="631" 
d="M207 381h-2v-381h-152v680h152l219 -381h2v381h152v-680h-152zM292 -158c-33 0 -52 29 -52 57s19 66 68 66c56 0 88 -49 88 -94c0 -87 -65 -145 -125 -177l-36 48c41 27 74 65 74 84c0 12 -7 16 -17 16z" />
    <glyph glyph-name="Obreve" unicode="&#x14e;" horiz-adv-x="678" 
d="M339 566c-104 0 -136 -90 -136 -221s32 -231 136 -231s136 100 136 231s-32 221 -136 221zM339 -10c-217 0 -296 161 -296 355c0 193 79 345 296 345c216 0 296 -152 296 -345c0 -194 -80 -355 -296 -355zM339 732c-106 0 -145 85 -145 158h87c1 -36 17 -70 58 -70
s57 34 58 70h87c0 -73 -39 -158 -145 -158z" />
    <glyph glyph-name="Ohungarumlaut" unicode="&#x150;" horiz-adv-x="678" 
d="M339 566c-104 0 -136 -90 -136 -221s32 -231 136 -231s136 100 136 231s-32 221 -136 221zM339 -10c-217 0 -296 161 -296 355c0 193 79 345 296 345c216 0 296 -152 296 -345c0 -194 -80 -355 -296 -355zM325 878l41 -78l-160 -79l-29 53zM525 878l41 -78l-160 -79
l-29 53z" />
    <glyph glyph-name="Omacron" unicode="&#x14c;" horiz-adv-x="678" 
d="M339 566c-104 0 -136 -90 -136 -221s32 -231 136 -231s136 100 136 231s-32 221 -136 221zM339 -10c-217 0 -296 161 -296 355c0 193 79 345 296 345c216 0 296 -152 296 -345c0 -194 -80 -355 -296 -355zM200 841h278v-83h-278v83z" />
    <glyph glyph-name="Oslashacute" unicode="&#x1fe;" horiz-adv-x="678" 
d="M465 876l40 -94l-178 -61l-29 53zM526 712l43 -26l-36 -59c72 -62 102 -165 102 -282c0 -194 -80 -355 -296 -355c-68 0 -123 15 -166 43l-39 -65l-43 26l43 71c-65 66 -91 167 -91 280c0 193 79 345 296 345c61 0 112 -13 153 -35zM475 345c0 59 -7 109 -23 147
l-205 -337c21 -26 51 -41 92 -41c104 0 136 100 136 231zM339 566c-104 0 -136 -90 -136 -221c0 -52 5 -99 17 -137l200 330c-20 18 -47 28 -81 28z" />
    <glyph glyph-name="Racute" unicode="&#x154;" horiz-adv-x="607" 
d="M400 299v-4c47 -23 79 -62 104 -110l96 -185h-174l-105 202c-22 44 -35 54 -68 54h-48v-256h-152v680h273c131 0 218 -77 218 -206c0 -91 -61 -157 -144 -175zM205 552v-176h89c47 0 90 23 90 90c0 66 -42 86 -89 86h-90zM393 876l40 -94l-178 -61l-29 53z" />
    <glyph glyph-name="Rcaron" unicode="&#x158;" horiz-adv-x="607" 
d="M400 299v-4c47 -23 79 -62 104 -110l96 -185h-174l-105 202c-22 44 -35 54 -68 54h-48v-256h-152v680h273c131 0 218 -77 218 -206c0 -91 -61 -157 -144 -175zM205 552v-176h89c47 0 90 23 90 90c0 66 -42 86 -89 86h-90zM216 906l67 -80l67 80h92l-117 -176h-84
l-117 176h92z" />
    <glyph glyph-name="Rcommaaccent" unicode="&#x156;" horiz-adv-x="607" 
d="M400 299v-4c47 -23 79 -62 104 -110l96 -185h-174l-105 202c-22 44 -35 54 -68 54h-48v-256h-152v680h273c131 0 218 -77 218 -206c0 -91 -61 -157 -144 -175zM205 552v-176h89c47 0 90 23 90 90c0 66 -42 86 -89 86h-90zM287 -152c-33 0 -52 29 -52 57s19 66 68 66
c56 0 88 -49 88 -94c0 -87 -65 -145 -125 -177l-36 48c41 27 74 65 74 84c0 12 -7 16 -17 16z" />
    <glyph glyph-name="Sacute" unicode="&#x15a;" horiz-adv-x="540" 
d="M49 498c0 128 105 192 228 192c70 0 141 -15 222 -48l-39 -120c-63 25 -113 44 -175 44c-53 0 -76 -22 -76 -51c0 -98 304 -91 304 -322c0 -126 -112 -203 -245 -203c-71 0 -135 13 -208 40l-13 135c87 -29 156 -51 216 -51c56 0 90 26 90 65c0 121 -304 96 -304 319z
M401 876l40 -94l-178 -61l-29 53z" />
    <glyph glyph-name="Scedilla" unicode="&#x15e;" horiz-adv-x="540" 
d="M49 498c0 128 105 192 228 192c70 0 141 -15 222 -48l-39 -120c-63 25 -113 44 -175 44c-53 0 -76 -22 -76 -51c0 -98 304 -91 304 -322c0 -117 -96 -191 -216 -201v-32c43 -9 81 -28 81 -76c0 -53 -37 -84 -113 -84c-24 0 -49 4 -73 12l10 50c15 -5 35 -10 53 -10
c23 0 34 13 34 28c0 19 -17 30 -50 36v75c-60 3 -116 15 -179 39l-13 135c87 -29 156 -51 216 -51c56 0 90 26 90 65c0 121 -304 96 -304 319z" />
    <glyph glyph-name="Scircumflex" unicode="&#x15c;" horiz-adv-x="540" 
d="M49 498c0 128 105 192 228 192c70 0 141 -15 222 -48l-39 -120c-63 25 -113 44 -175 44c-53 0 -76 -22 -76 -51c0 -98 304 -91 304 -322c0 -126 -112 -203 -245 -203c-71 0 -135 13 -208 40l-13 135c87 -29 156 -51 216 -51c56 0 90 26 90 65c0 121 -304 96 -304 319z
M279 810l-67 -80h-92l117 176h84l117 -176h-92z" />
    <glyph glyph-name="Scommaaccent" unicode="&#x218;" horiz-adv-x="540" 
d="M49 498c0 128 105 192 228 192c70 0 141 -15 222 -48l-39 -120c-63 25 -113 44 -175 44c-53 0 -76 -22 -76 -51c0 -98 304 -91 304 -322c0 -126 -112 -203 -245 -203c-71 0 -135 13 -208 40l-13 135c87 -29 156 -51 216 -51c56 0 90 26 90 65c0 121 -304 96 -304 319z
M260 -158c-33 0 -52 29 -52 57s19 66 68 66c56 0 88 -49 88 -94c0 -87 -65 -145 -125 -177l-36 48c41 27 74 65 74 84c0 12 -7 16 -17 16z" />
    <glyph glyph-name="Tbar" unicode="&#x166;" horiz-adv-x="502" 
d="M75 338h100v214h-156v128h464v-128h-156v-214h100v-115h-100v-223h-152v223h-100v115z" />
    <glyph glyph-name="Tcaron" unicode="&#x164;" horiz-adv-x="502" 
d="M483 552h-156v-552h-152v552h-156v128h464v-128zM185 906l67 -80l67 80h92l-117 -176h-84l-117 176h92z" />
    <glyph glyph-name="Tcommaaccent" unicode="&#x162;" horiz-adv-x="502" 
d="M483 552h-156v-552h-152v552h-156v128h464v-128zM222 -158c-33 0 -52 29 -52 57s19 66 68 66c56 0 88 -49 88 -94c0 -87 -65 -145 -125 -177l-36 48c41 27 74 65 74 84c0 12 -7 16 -17 16z" />
    <glyph glyph-name="uni021A" unicode="&#x21a;" horiz-adv-x="502" 
d="M483 552h-156v-552h-152v552h-156v128h464v-128zM222 -158c-33 0 -52 29 -52 57s19 66 68 66c56 0 88 -49 88 -94c0 -87 -65 -145 -125 -177l-36 48c41 27 74 65 74 84c0 12 -7 16 -17 16z" />
    <glyph glyph-name="T_h" horiz-adv-x="978" 
d="M639 710v-296h2c34 68 90 96 145 96c90 0 149 -67 149 -168v-342h-136v312c0 53 -30 79 -71 79c-40 0 -89 -37 -89 -123v-268h-136v552h-176v-552h-152v552h-156v128h484l102 30h34z" />
    <glyph glyph-name="T_h.caron" horiz-adv-x="978" 
d="M639 710v-296h2c34 68 90 96 145 96c90 0 149 -67 149 -168v-342h-136v312c0 53 -30 79 -71 79c-40 0 -89 -37 -89 -123v-268h-136v552h-176v-552h-152v552h-156v128h484l102 30h34zM182 906l67 -80l67 80h92l-117 -176h-84l-117 176h92z" />
    <glyph glyph-name="T_h.commaaccent" horiz-adv-x="978" 
d="M639 710v-296h2c34 68 90 96 145 96c90 0 149 -67 149 -168v-342h-136v312c0 53 -30 79 -71 79c-40 0 -89 -37 -89 -123v-268h-136v552h-176v-552h-152v552h-156v128h484l102 30h34zM222 -158c-33 0 -52 29 -52 57s19 66 68 66c56 0 88 -49 88 -94
c0 -87 -65 -145 -125 -177l-36 48c41 27 74 65 74 84c0 12 -7 16 -17 16z" />
    <glyph glyph-name="Ubreve" unicode="&#x16c;" horiz-adv-x="631" 
d="M313 -10c-145 0 -260 63 -260 241v449h152v-449c0 -63 31 -117 108 -117s113 54 113 117v449h152v-449c0 -178 -120 -241 -265 -241zM315 732c-106 0 -145 85 -145 158h87c1 -36 17 -70 58 -70s57 34 58 70h87c0 -73 -39 -158 -145 -158z" />
    <glyph glyph-name="Uhungarumlaut" unicode="&#x170;" horiz-adv-x="631" 
d="M313 -10c-145 0 -260 63 -260 241v449h152v-449c0 -63 31 -117 108 -117s113 54 113 117v449h152v-449c0 -178 -120 -241 -265 -241zM311 878l41 -78l-160 -79l-29 53zM511 878l41 -78l-160 -79l-29 53z" />
    <glyph glyph-name="Umacron" unicode="&#x16a;" horiz-adv-x="631" 
d="M313 -10c-145 0 -260 63 -260 241v449h152v-449c0 -63 31 -117 108 -117s113 54 113 117v449h152v-449c0 -178 -120 -241 -265 -241zM176 841h278v-83h-278v83z" />
    <glyph glyph-name="Uogonek" unicode="&#x172;" horiz-adv-x="631" 
d="M383 -123l19 -48c-23 -17 -59 -29 -88 -29c-59 0 -94 34 -94 81c0 40 23 79 65 110c-131 8 -232 73 -232 240v449h152v-449c0 -63 31 -117 108 -117s113 54 113 117v449h152v-449c0 -162 -99 -229 -226 -239c-24 -24 -47 -59 -47 -88c0 -23 16 -38 38 -38
c12 0 28 4 40 11z" />
    <glyph glyph-name="Uring" unicode="&#x16e;" horiz-adv-x="631" 
d="M313 -10c-145 0 -260 63 -260 241v449h152v-449c0 -63 31 -117 108 -117s113 54 113 117v449h152v-449c0 -178 -120 -241 -265 -241zM224 807c0 51 36 88 91 88c54 0 91 -37 91 -88s-37 -87 -91 -87s-91 36 -91 87zM272 807c0 -29 21 -42 43 -42s43 13 43 42
c0 30 -21 43 -43 43s-43 -13 -43 -43z" />
    <glyph glyph-name="Utilde" unicode="&#x168;" horiz-adv-x="631" 
d="M313 -10c-145 0 -260 63 -260 241v449h152v-449c0 -63 31 -117 108 -117s113 54 113 117v449h152v-449c0 -178 -120 -241 -265 -241zM193 728l-66 33c23 65 53 115 115 115c61 0 109 -51 142 -51c23 0 36 25 49 52l70 -41c-27 -74 -62 -107 -107 -107
c-57 0 -111 51 -146 51c-30 0 -43 -26 -57 -52z" />
    <glyph glyph-name="Wacute" unicode="&#x1e82;" horiz-adv-x="924" 
d="M538 680l105 -499h2l105 499h159l-160 -685h-205l-82 356l-82 -356h-205l-160 685h159l105 -499h2l105 499h152zM573 876l40 -94l-178 -61l-29 53z" />
    <glyph glyph-name="Wcircumflex" unicode="&#x174;" horiz-adv-x="924" 
d="M538 680l105 -499h2l105 499h159l-160 -685h-205l-82 356l-82 -356h-205l-160 685h159l105 -499h2l105 499h152zM463 810l-67 -80h-92l117 176h84l117 -176h-92z" />
    <glyph glyph-name="Wdieresis" unicode="&#x1e84;" horiz-adv-x="924" 
d="M538 680l105 -499h2l105 499h159l-160 -685h-205l-82 356l-82 -356h-205l-160 685h159l105 -499h2l105 499h152zM292 817c0 40 32 64 71 64c40 0 72 -24 72 -64s-32 -64 -72 -64c-39 0 -71 24 -71 64zM490 817c0 40 32 64 72 64c39 0 71 -24 71 -64s-32 -64 -71 -64
c-40 0 -72 24 -72 64z" />
    <glyph glyph-name="Wgrave" unicode="&#x1e80;" horiz-adv-x="924" 
d="M538 680l105 -499h2l105 499h159l-160 -685h-205l-82 356l-82 -356h-205l-160 685h159l105 -499h2l105 499h152zM284 782l40 94l167 -102l-29 -53z" />
    <glyph glyph-name="Ycircumflex" unicode="&#x176;" horiz-adv-x="586" 
d="M292 414h2l108 266h169l-202 -448v-232h-152v232l-202 448h169zM294 810l-67 -80h-92l117 176h84l117 -176h-92z" />
    <glyph glyph-name="Ygrave" unicode="&#x1ef2;" horiz-adv-x="586" 
d="M292 414h2l108 266h169l-202 -448v-232h-152v232l-202 448h169zM129 782l40 94l167 -102l-29 -53z" />
    <glyph glyph-name="Zacute" unicode="&#x179;" horiz-adv-x="526" 
d="M208 130v-2h297l-17 -128h-467v111l287 439v2h-267v128h449v-111zM379 876l40 -94l-178 -61l-29 53z" />
    <glyph glyph-name="Zdotaccent" unicode="&#x17b;" horiz-adv-x="526" 
d="M208 130v-2h297l-17 -128h-467v111l287 439v2h-267v128h449v-111zM199 817c0 36 28 58 65 58c35 0 64 -22 64 -58c0 -37 -29 -59 -64 -59c-37 0 -65 22 -65 59z" />
    <glyph glyph-name="Asmall" horiz-adv-x="545" 
d="M375 0l-30 102h-153l-29 -102h-148l169 548h183l163 -548h-155zM268 371l-43 -147h89l-44 147h-2z" />
    <glyph glyph-name="Aacutesmall" unicode="&#xf7e1;" horiz-adv-x="545" 
d="M375 0l-30 102h-153l-29 -102h-148l169 548h183l163 -548h-155zM268 371l-43 -147h89l-44 147h-2zM421 736l40 -94l-178 -61l-29 53z" />
    <glyph glyph-name="Abreve.small" unicode="&#xf66d;" horiz-adv-x="545" 
d="M375 0l-30 102h-153l-29 -102h-148l169 548h183l163 -548h-155zM268 371l-43 -147h89l-44 147h-2zM272 592c-106 0 -145 85 -145 158h87c1 -36 17 -70 58 -70s57 34 58 70h87c0 -73 -39 -158 -145 -158z" />
    <glyph glyph-name="Acircumflexsmall" unicode="&#xf7e2;" horiz-adv-x="545" 
d="M375 0l-30 102h-153l-29 -102h-148l169 548h183l163 -548h-155zM268 371l-43 -147h89l-44 147h-2zM273 670l-67 -80h-92l117 176h84l117 -176h-92z" />
    <glyph glyph-name="Adieresissmall" unicode="&#xf7e4;" horiz-adv-x="545" 
d="M375 0l-30 102h-153l-29 -102h-148l169 548h183l163 -548h-155zM268 371l-43 -147h89l-44 147h-2zM102 677c0 40 32 64 71 64c40 0 72 -24 72 -64s-32 -64 -72 -64c-39 0 -71 24 -71 64zM300 677c0 40 32 64 72 64c39 0 71 -24 71 -64s-32 -64 -71 -64
c-40 0 -72 24 -72 64z" />
    <glyph glyph-name="Agravesmall" unicode="&#xf7e0;" horiz-adv-x="545" 
d="M375 0l-30 102h-153l-29 -102h-148l169 548h183l163 -548h-155zM268 371l-43 -147h89l-44 147h-2zM103 642l40 94l167 -102l-29 -53z" />
    <glyph glyph-name="Amacron.small" unicode="&#xf66e;" horiz-adv-x="545" 
d="M375 0l-30 102h-153l-29 -102h-148l169 548h183l163 -548h-155zM268 371l-43 -147h89l-44 147h-2zM133 701h278v-83h-278v83z" />
    <glyph glyph-name="Aogonek.small" horiz-adv-x="545" 
d="M375 0l-30 102h-153l-29 -102h-148l169 548h183l163 -548h-47c-27 -23 -55 -64 -55 -96c0 -23 16 -38 38 -38c12 0 28 4 40 11l19 -48c-24 -17 -60 -29 -89 -29c-59 0 -94 34 -94 81c0 44 29 86 80 119h-47zM268 371l-43 -147h89l-44 147h-2z" />
    <glyph glyph-name="Aringsmall" unicode="&#xf7e5;" horiz-adv-x="545" 
d="M375 0l-30 102h-153l-29 -102h-148l169 548h183l163 -548h-155zM268 371l-43 -147h89l-44 147h-2zM181 667c0 51 36 88 91 88c54 0 91 -37 91 -88s-37 -87 -91 -87s-91 36 -91 87zM229 667c0 -29 21 -42 43 -42s43 13 43 42c0 30 -21 43 -43 43s-43 -13 -43 -43z" />
    <glyph glyph-name="Atildesmall" unicode="&#xf7e3;" horiz-adv-x="545" 
d="M375 0l-30 102h-153l-29 -102h-148l169 548h183l163 -548h-155zM268 371l-43 -147h89l-44 147h-2zM150 588l-66 33c23 65 53 115 115 115c61 0 109 -51 142 -51c23 0 36 25 49 52l70 -41c-27 -74 -62 -107 -107 -107c-57 0 -111 51 -146 51c-30 0 -43 -26 -57 -52z" />
    <glyph glyph-name="AEsmall" horiz-adv-x="811" 
d="M769 544v-122h-236v-81h197v-122h-197v-97h244l-16 -122h-376v102h-161l-61 -102h-148l329 544h425zM382 371l-92 -147h95v147h-3z" />
    <glyph glyph-name="AEacute.small" unicode="&#xf670;" horiz-adv-x="811" 
d="M769 544v-122h-236v-81h197v-122h-197v-97h244l-16 -122h-376v102h-161l-61 -102h-148l329 544h425zM382 371l-92 -147h95v147h-3zM587 736l40 -94l-178 -61l-29 53z" />
    <glyph glyph-name="Bsmall" horiz-adv-x="537" 
d="M402 285v-2c49 -19 98 -59 98 -131c0 -96 -74 -152 -191 -152h-256v544h240c118 0 186 -52 186 -144c0 -56 -32 -97 -77 -115zM278 219h-77v-97h77c34 0 66 9 66 49c0 38 -32 48 -66 48zM327 381c0 27 -20 41 -52 41h-74v-81h74c32 0 52 13 52 40z" />
    <glyph glyph-name="Csmall" horiz-adv-x="544" 
d="M43 272c0 156 84 280 270 280c63 0 119 -8 195 -40l-38 -114c-60 24 -94 36 -140 36c-80 0 -131 -67 -131 -162c0 -119 59 -158 114 -158c47 0 80 30 105 72l107 -62c-53 -117 -156 -132 -220 -132c-178 0 -262 124 -262 280z" />
    <glyph glyph-name="Cacute.small" unicode="&#xf671;" horiz-adv-x="544" 
d="M43 272c0 156 84 280 270 280c63 0 119 -8 195 -40l-38 -114c-60 24 -94 36 -140 36c-80 0 -131 -67 -131 -162c0 -119 59 -158 114 -158c47 0 80 30 105 72l107 -62c-53 -117 -156 -132 -220 -132c-178 0 -262 124 -262 280zM451 736l40 -94l-178 -61l-29 53z" />
    <glyph glyph-name="Ccaron.small" unicode="&#xf672;" horiz-adv-x="544" 
d="M43 272c0 156 84 280 270 280c63 0 119 -8 195 -40l-38 -114c-60 24 -94 36 -140 36c-80 0 -131 -67 -131 -162c0 -119 59 -158 114 -158c47 0 80 30 105 72l107 -62c-53 -117 -156 -132 -220 -132c-178 0 -262 124 -262 280zM248 766l67 -80l67 80h92l-117 -176h-84
l-117 176h92z" />
    <glyph glyph-name="Ccedillasmall" horiz-adv-x="544" 
d="M269 -84v78c-154 15 -226 133 -226 278c0 156 84 280 270 280c63 0 119 -8 195 -40l-38 -114c-60 24 -94 36 -140 36c-80 0 -131 -67 -131 -162c0 -119 59 -158 114 -158c47 0 80 30 105 72l107 -62c-48 -105 -135 -128 -198 -131v-33c43 -9 81 -28 81 -76
c0 -53 -37 -84 -113 -84c-24 0 -49 4 -73 12l10 50c15 -5 35 -10 53 -10c23 0 34 13 34 28c0 19 -17 30 -50 36z" />
    <glyph glyph-name="Ccircumflex.small" unicode="&#xf673;" horiz-adv-x="544" 
d="M43 272c0 156 84 280 270 280c63 0 119 -8 195 -40l-38 -114c-60 24 -94 36 -140 36c-80 0 -131 -67 -131 -162c0 -119 59 -158 114 -158c47 0 80 30 105 72l107 -62c-53 -117 -156 -132 -220 -132c-178 0 -262 124 -262 280zM306 670l-67 -80h-92l117 176h84l117 -176
h-92z" />
    <glyph glyph-name="Cdotaccent.small" unicode="&#xf674;" horiz-adv-x="544" 
d="M43 272c0 156 84 280 270 280c63 0 119 -8 195 -40l-38 -114c-60 24 -94 36 -140 36c-80 0 -131 -67 -131 -162c0 -119 59 -158 114 -158c47 0 80 30 105 72l107 -62c-53 -117 -156 -132 -220 -132c-178 0 -262 124 -262 280zM252 677c0 36 28 58 65 58
c35 0 64 -22 64 -58c0 -37 -29 -59 -64 -59c-37 0 -65 22 -65 59z" />
    <glyph glyph-name="Dsmall" horiz-adv-x="564" 
d="M272 0h-219v544h219c189 0 249 -120 249 -268s-60 -276 -249 -276zM268 422h-67v-300h67c79 0 97 71 97 154s-18 146 -97 146z" />
    <glyph glyph-name="Dcaron.small" unicode="&#xf675;" horiz-adv-x="564" 
d="M272 0h-219v544h219c189 0 249 -120 249 -268s-60 -276 -249 -276zM268 422h-67v-300h67c79 0 97 71 97 154s-18 146 -97 146zM206 766l67 -80l67 80h92l-117 -176h-84l-117 176h92z" />
    <glyph glyph-name="Dcroat.small" horiz-adv-x="564" 
d="M0 330h53v214h219c189 0 249 -120 249 -268s-60 -276 -249 -276h-219v215h-53v115zM268 422h-67v-92h71v-115h-71v-93h67c79 0 97 71 97 154s-18 146 -97 146z" />
    <glyph glyph-name="Esmall" horiz-adv-x="479" 
d="M437 544v-122h-236v-81h198v-122h-198v-97h244l-16 -122h-376v544h384z" />
    <glyph glyph-name="Eacutesmall" unicode="&#xf7e9;" horiz-adv-x="479" 
d="M437 544v-122h-236v-81h198v-122h-198v-97h244l-16 -122h-376v544h384zM360 736l40 -94l-178 -61l-29 53z" />
    <glyph glyph-name="Ebreve.small" unicode="&#xf677;" horiz-adv-x="479" 
d="M437 544v-122h-236v-81h198v-122h-198v-97h244l-16 -122h-376v544h384zM249 592c-106 0 -145 85 -145 158h87c1 -36 17 -70 58 -70s57 34 58 70h87c0 -73 -39 -158 -145 -158z" />
    <glyph glyph-name="Ecaron.small" unicode="&#xf678;" horiz-adv-x="479" 
d="M437 544v-122h-236v-81h198v-122h-198v-97h244l-16 -122h-376v544h384zM184 766l67 -80l67 80h92l-117 -176h-84l-117 176h92z" />
    <glyph glyph-name="Ecircumflexsmall" unicode="&#xf7ea;" horiz-adv-x="479" 
d="M437 544v-122h-236v-81h198v-122h-198v-97h244l-16 -122h-376v544h384zM250 670l-67 -80h-92l117 176h84l117 -176h-92z" />
    <glyph glyph-name="Edieresissmall" unicode="&#xf7eb;" horiz-adv-x="479" 
d="M437 544v-122h-236v-81h198v-122h-198v-97h244l-16 -122h-376v544h384zM76 677c0 40 32 64 71 64c40 0 72 -24 72 -64s-32 -64 -72 -64c-39 0 -71 24 -71 64zM274 677c0 40 32 64 72 64c39 0 71 -24 71 -64s-32 -64 -71 -64c-40 0 -72 24 -72 64z" />
    <glyph glyph-name="Edotaccent.small" unicode="&#xf679;" horiz-adv-x="479" 
d="M437 544v-122h-236v-81h198v-122h-198v-97h244l-16 -122h-376v544h384zM193 677c0 36 28 58 65 58c35 0 64 -22 64 -58c0 -37 -29 -59 -64 -59c-37 0 -65 22 -65 59z" />
    <glyph glyph-name="Egravesmall" unicode="&#xf7e8;" horiz-adv-x="479" 
d="M437 544v-122h-236v-81h198v-122h-198v-97h244l-16 -122h-376v544h384zM97 642l40 94l167 -102l-29 -53z" />
    <glyph glyph-name="Emacron.small" unicode="&#xf67a;" horiz-adv-x="479" 
d="M437 544v-122h-236v-81h198v-122h-198v-97h244l-16 -122h-376v544h384zM109 701h278v-83h-278v83z" />
    <glyph glyph-name="Eogonek.small" horiz-adv-x="479" 
d="M451 -123l19 -48c-23 -17 -59 -29 -88 -29c-59 0 -94 34 -94 81c0 44 29 86 79 119h-314v544h384v-122h-236v-81h198v-122h-198v-97h244l-16 -122c-27 -23 -56 -64 -56 -96c0 -23 16 -38 38 -38c12 0 28 4 40 11z" />
    <glyph glyph-name="Fsmall" horiz-adv-x="464" 
d="M437 544v-122h-236v-97h198v-122h-198v-203h-148v544h384z" />
    <glyph glyph-name="Gsmall" horiz-adv-x="561" 
d="M321 110c8 0 26 2 39 8v61h-62v122h210v-301h-50l-42 16c-34 -20 -88 -24 -111 -24c-186 0 -262 124 -262 280s84 280 270 280c63 0 119 -8 195 -40l-38 -114c-60 24 -94 36 -140 36c-80 0 -131 -67 -131 -162s43 -162 122 -162z" />
    <glyph glyph-name="Gbreve.small" unicode="&#xf67d;" horiz-adv-x="561" 
d="M321 110c8 0 26 2 39 8v61h-62v122h210v-301h-50l-42 16c-34 -20 -88 -24 -111 -24c-186 0 -262 124 -262 280s84 280 270 280c63 0 119 -8 195 -40l-38 -114c-60 24 -94 36 -140 36c-80 0 -131 -67 -131 -162s43 -162 122 -162zM304 592c-106 0 -145 85 -145 158h87
c1 -36 17 -70 58 -70s57 34 58 70h87c0 -73 -39 -158 -145 -158z" />
    <glyph glyph-name="Gcircumflex.small" unicode="&#xf67e;" horiz-adv-x="561" 
d="M321 110c8 0 26 2 39 8v61h-62v122h210v-301h-50l-42 16c-34 -20 -88 -24 -111 -24c-186 0 -262 124 -262 280s84 280 270 280c63 0 119 -8 195 -40l-38 -114c-60 24 -94 36 -140 36c-80 0 -131 -67 -131 -162s43 -162 122 -162zM311 670l-67 -80h-92l117 176h84
l117 -176h-92z" />
    <glyph glyph-name="Gcommaaccent.small" unicode="&#xf67f;" horiz-adv-x="561" 
d="M321 110c8 0 26 2 39 8v61h-62v122h210v-301h-50l-42 16c-34 -20 -88 -24 -111 -24c-186 0 -262 124 -262 280s84 280 270 280c63 0 119 -8 195 -40l-38 -114c-60 24 -94 36 -140 36c-80 0 -131 -67 -131 -162s43 -162 122 -162zM278 -158c-33 0 -52 29 -52 57
s19 66 68 66c56 0 88 -49 88 -94c0 -87 -65 -145 -125 -177l-36 48c41 27 74 65 74 84c0 12 -7 16 -17 16z" />
    <glyph glyph-name="Gdotaccent.small" unicode="&#xf680;" horiz-adv-x="561" 
d="M321 110c8 0 26 2 39 8v61h-62v122h210v-301h-50l-42 16c-34 -20 -88 -24 -111 -24c-186 0 -262 124 -262 280s84 280 270 280c63 0 119 -8 195 -40l-38 -114c-60 24 -94 36 -140 36c-80 0 -131 -67 -131 -162s43 -162 122 -162zM246 677c0 36 28 58 65 58
c35 0 64 -22 64 -58c0 -37 -29 -59 -64 -59c-37 0 -65 22 -65 59z" />
    <glyph glyph-name="Hsmall" horiz-adv-x="549" 
d="M201 0h-148v544h148v-203h147v203h148v-544h-148v219h-147v-219z" />
    <glyph glyph-name="Hbar.small" horiz-adv-x="549" 
d="M0 480h53v64h148v-64h147v64h148v-64h53v-83h-53v-397h-148v219h-147v-219h-148v397h-53v83zM201 341h147v56h-147v-56z" />
    <glyph glyph-name="Hcircumflex.small" unicode="&#xf682;" horiz-adv-x="549" 
d="M201 0h-148v544h148v-203h147v203h148v-544h-148v219h-147v-219zM275 670l-67 -80h-92l117 176h84l117 -176h-92z" />
    <glyph glyph-name="Ismall" horiz-adv-x="254" 
d="M201 544v-544h-148v544h148z" />
    <glyph glyph-name="Iacutesmall" unicode="&#xf7ed;" horiz-adv-x="254" 
d="M201 544v-544h-148v544h148zM268 736l40 -94l-178 -61l-29 53z" />
    <glyph glyph-name="Ibreve.small" unicode="&#xf683;" horiz-adv-x="254" 
d="M201 544v-544h-148v544h148zM127 592c-106 0 -145 85 -145 158h87c1 -36 17 -70 58 -70s57 34 58 70h87c0 -73 -39 -158 -145 -158z" />
    <glyph glyph-name="Icircumflexsmall" unicode="&#xf7ee;" horiz-adv-x="254" 
d="M201 544v-544h-148v544h148zM127 670l-67 -80h-92l117 176h84l117 -176h-92z" />
    <glyph glyph-name="Idieresissmall" unicode="&#xf7ef;" horiz-adv-x="254" 
d="M201 544v-544h-148v544h148zM-44 677c0 40 32 64 71 64c40 0 72 -24 72 -64s-32 -64 -72 -64c-39 0 -71 24 -71 64zM154 677c0 40 32 64 72 64c39 0 71 -24 71 -64s-32 -64 -71 -64c-40 0 -72 24 -72 64z" />
    <glyph glyph-name="Idotaccent.small" unicode="&#xf6ad;" horiz-adv-x="254" 
d="M201 544v-544h-148v544h148zM63 677c0 36 28 58 65 58c35 0 64 -22 64 -58c0 -37 -29 -59 -64 -59c-37 0 -65 22 -65 59z" />
    <glyph glyph-name="Igravesmall" unicode="&#xf7ec;" horiz-adv-x="254" 
d="M201 544v-544h-148v544h148zM-37 642l40 94l167 -102l-29 -53z" />
    <glyph glyph-name="Imacron.small" unicode="&#xf685;" horiz-adv-x="254" 
d="M201 544v-544h-148v544h148zM-12 701h278v-83h-278v83z" />
    <glyph glyph-name="Iogonek.small" horiz-adv-x="254" 
d="M181 -123l18 -48c-23 -17 -59 -29 -88 -29c-59 0 -94 34 -94 81c0 44 29 86 80 119h-44v544h148v-544h-43c-27 -23 -56 -64 -56 -96c0 -23 17 -38 39 -38c12 0 27 4 40 11z" />
    <glyph glyph-name="Itilde.small" unicode="&#xf687;" horiz-adv-x="254" 
d="M201 544v-544h-148v544h148zM5 588l-66 33c23 65 53 115 115 115c61 0 109 -51 142 -51c23 0 36 25 49 52l70 -41c-27 -74 -62 -107 -107 -107c-57 0 -111 51 -146 51c-30 0 -43 -26 -57 -52z" />
    <glyph glyph-name="IJ.small" horiz-adv-x="508" 
d="M201 544v-544h-148v544h148zM307 32v512h148v-512c0 -76 -38 -160 -180 -192l-45 95c64 23 77 66 77 97z" />
    <glyph glyph-name="Jsmall" horiz-adv-x="254" 
d="M53 32v512h148v-512c0 -76 -38 -160 -180 -192l-45 95c64 23 77 66 77 97z" />
    <glyph glyph-name="Jcircumflex.small" unicode="&#xf688;" horiz-adv-x="254" 
d="M53 32v512h148v-512c0 -76 -38 -160 -180 -192l-45 95c64 23 77 66 77 97zM124 670l-67 -80h-92l117 176h84l117 -176h-92z" />
    <glyph glyph-name="Ksmall" horiz-adv-x="544" 
d="M201 544v-200l152 200h175l-176 -233l176 -311h-175l-107 195l-45 -58v-137h-148v544h148z" />
    <glyph glyph-name="Kcommaaccent.small" unicode="&#xf689;" horiz-adv-x="544" 
d="M201 544v-200l152 200h175l-176 -233l176 -311h-175l-107 195l-45 -58v-137h-148v544h148zM257 -158c-33 0 -52 29 -52 57s19 66 68 66c56 0 88 -49 88 -94c0 -87 -65 -145 -125 -177l-36 48c41 27 74 65 74 84c0 12 -7 16 -17 16z" />
    <glyph glyph-name="Lsmall" horiz-adv-x="459" 
d="M53 544h148v-422h244l-16 -122h-376v544z" />
    <glyph glyph-name="Lacute.small" unicode="&#xf68a;" horiz-adv-x="459" 
d="M53 544h148v-422h244l-16 -122h-376v544zM270 736l40 -94l-178 -61l-29 53z" />
    <glyph glyph-name="Lcaron.small" unicode="&#xf68b;" horiz-adv-x="459" 
d="M53 544h148v-422h244l-16 -122h-376v544zM309 432c-33 0 -52 29 -52 57s19 66 68 66c56 0 88 -49 88 -94c0 -87 -65 -145 -125 -177l-36 48c41 27 74 65 74 84c0 12 -7 16 -17 16z" />
    <glyph glyph-name="Lcommaaccent.small" unicode="&#xf68c;" horiz-adv-x="459" 
d="M53 544h148v-422h244l-16 -122h-376v544zM228 -158c-33 0 -52 29 -52 57s19 66 68 66c56 0 88 -49 88 -94c0 -87 -65 -145 -125 -177l-36 48c41 27 74 65 74 84c0 12 -7 16 -17 16z" />
    <glyph glyph-name="Ldot.small" unicode="&#xf68d;" horiz-adv-x="459" 
d="M53 544h148v-422h244l-16 -122h-376v544zM262 308c0 36 28 58 65 58c35 0 64 -22 64 -58c0 -37 -29 -59 -64 -59c-37 0 -65 22 -65 59z" />
    <glyph glyph-name="Lslashsmall" horiz-adv-x="459" 
d="M0 305l53 20v219h148v-167l73 28v-115l-73 -28v-140h244l-16 -122h-376v210l-53 -20v115z" />
    <glyph glyph-name="Msmall" horiz-adv-x="676" 
d="M252 544l93 -274h2l81 274h195v-544h-148v251h-2l-84 -251h-101l-85 251h-2v-251h-148v544h199z" />
    <glyph glyph-name="Nsmall" horiz-adv-x="566" 
d="M203 256h-2v-256h-148v544h148l162 -256h2v256h148v-544h-148z" />
    <glyph glyph-name="Nacute.small" unicode="&#xf68e;" horiz-adv-x="566" 
d="M203 256h-2v-256h-148v544h148l162 -256h2v256h148v-544h-148zM432 736l40 -94l-178 -61l-29 53z" />
    <glyph glyph-name="Ncaron.small" unicode="&#xf68f;" horiz-adv-x="566" 
d="M203 256h-2v-256h-148v544h148l162 -256h2v256h148v-544h-148zM216 766l67 -80l67 80h92l-117 -176h-84l-117 176h92z" />
    <glyph glyph-name="Ncommaaccent.small" unicode="&#xf690;" horiz-adv-x="566" 
d="M203 256h-2v-256h-148v544h148l162 -256h2v256h148v-544h-148zM257 -158c-33 0 -52 29 -52 57s19 66 68 66c56 0 88 -49 88 -94c0 -87 -65 -145 -125 -177l-36 48c41 27 74 65 74 84c0 12 -7 16 -17 16z" />
    <glyph glyph-name="Ntildesmall" unicode="&#xf7f1;" horiz-adv-x="566" 
d="M203 256h-2v-256h-148v544h148l162 -256h2v256h148v-544h-148zM160 588l-66 33c23 65 53 115 115 115c61 0 109 -51 142 -51c23 0 36 25 49 52l70 -41c-27 -74 -62 -107 -107 -107c-57 0 -111 51 -146 51c-30 0 -43 -26 -57 -52z" />
    <glyph glyph-name="Osmall" horiz-adv-x="602" 
d="M300 434c-77 0 -101 -59 -101 -158s24 -166 101 -166c79 0 102 67 102 166s-23 158 -102 158zM300 -8c-187 0 -257 128 -257 284s70 276 257 276s259 -120 259 -276s-72 -284 -259 -284z" />
    <glyph glyph-name="Oacutesmall" unicode="&#xf7f3;" horiz-adv-x="602" 
d="M300 434c-77 0 -101 -59 -101 -158s24 -166 101 -166c79 0 102 67 102 166s-23 158 -102 158zM300 -8c-187 0 -257 128 -257 284s70 276 257 276s259 -120 259 -276s-72 -284 -259 -284zM443 736l40 -94l-178 -61l-29 53z" />
    <glyph glyph-name="Obreve.small" unicode="&#xf691;" horiz-adv-x="602" 
d="M300 434c-77 0 -101 -59 -101 -158s24 -166 101 -166c79 0 102 67 102 166s-23 158 -102 158zM300 -8c-187 0 -257 128 -257 284s70 276 257 276s259 -120 259 -276s-72 -284 -259 -284zM300 592c-106 0 -145 85 -145 158h87c1 -36 17 -70 58 -70s57 34 58 70h87
c0 -73 -39 -158 -145 -158z" />
    <glyph glyph-name="Ocircumflexsmall" unicode="&#xf7f4;" horiz-adv-x="602" 
d="M300 434c-77 0 -101 -59 -101 -158s24 -166 101 -166c79 0 102 67 102 166s-23 158 -102 158zM300 -8c-187 0 -257 128 -257 284s70 276 257 276s259 -120 259 -276s-72 -284 -259 -284zM301 670l-67 -80h-92l117 176h84l117 -176h-92z" />
    <glyph glyph-name="Odieresissmall" unicode="&#xf7f6;" horiz-adv-x="602" 
d="M300 434c-77 0 -101 -59 -101 -158s24 -166 101 -166c79 0 102 67 102 166s-23 158 -102 158zM300 -8c-187 0 -257 128 -257 284s70 276 257 276s259 -120 259 -276s-72 -284 -259 -284zM130 677c0 40 32 64 71 64c40 0 72 -24 72 -64s-32 -64 -72 -64
c-39 0 -71 24 -71 64zM328 677c0 40 32 64 72 64c39 0 71 -24 71 -64s-32 -64 -71 -64c-40 0 -72 24 -72 64z" />
    <glyph glyph-name="Ogravesmall" unicode="&#xf7f2;" horiz-adv-x="602" 
d="M300 434c-77 0 -101 -59 -101 -158s24 -166 101 -166c79 0 102 67 102 166s-23 158 -102 158zM300 -8c-187 0 -257 128 -257 284s70 276 257 276s259 -120 259 -276s-72 -284 -259 -284zM141 642l40 94l167 -102l-29 -53z" />
    <glyph glyph-name="Ohungarumlaut.small" unicode="&#xf692;" horiz-adv-x="602" 
d="M300 434c-77 0 -101 -59 -101 -158s24 -166 101 -166c79 0 102 67 102 166s-23 158 -102 158zM300 -8c-187 0 -257 128 -257 284s70 276 257 276s259 -120 259 -276s-72 -284 -259 -284zM297 738l41 -78l-160 -79l-29 53zM497 738l41 -78l-160 -79l-29 53z" />
    <glyph glyph-name="Omacron.small" unicode="&#xf693;" horiz-adv-x="602" 
d="M300 434c-77 0 -101 -59 -101 -158s24 -166 101 -166c79 0 102 67 102 166s-23 158 -102 158zM300 -8c-187 0 -257 128 -257 284s70 276 257 276s259 -120 259 -276s-72 -284 -259 -284zM161 701h278v-83h-278v83z" />
    <glyph glyph-name="Otildesmall" unicode="&#xf7f5;" horiz-adv-x="602" 
d="M300 434c-77 0 -101 -59 -101 -158s24 -166 101 -166c79 0 102 67 102 166s-23 158 -102 158zM300 -8c-187 0 -257 128 -257 284s70 276 257 276s259 -120 259 -276s-72 -284 -259 -284zM178 588l-66 33c23 65 53 115 115 115c61 0 109 -51 142 -51c23 0 36 25 49 52
l70 -41c-27 -74 -62 -107 -107 -107c-57 0 -111 51 -146 51c-30 0 -43 -26 -57 -52z" />
    <glyph glyph-name="Oslashsmall" horiz-adv-x="602" 
d="M457 570l40 -23l-29 -45c64 -49 91 -131 91 -226c0 -156 -72 -284 -259 -284c-57 0 -103 11 -140 32l-32 -50l-40 23l35 55c-56 52 -80 133 -80 224c0 156 70 276 257 276c51 0 94 -9 129 -26zM402 276c0 41 -4 75 -15 101l-154 -240c15 -17 37 -27 67 -27
c79 0 102 67 102 166zM300 434c-77 0 -101 -59 -101 -158c0 -35 3 -66 10 -91l149 232c-14 11 -34 17 -58 17z" />
    <glyph glyph-name="Oslashacute.small" unicode="&#xf694;" horiz-adv-x="602" 
d="M449 736l40 -94l-178 -61l-29 53zM457 570l40 -23l-29 -45c64 -49 91 -131 91 -226c0 -156 -72 -284 -259 -284c-57 0 -103 11 -140 32l-32 -50l-40 23l35 55c-56 52 -80 133 -80 224c0 156 70 276 257 276c51 0 94 -9 129 -26zM402 276c0 41 -4 75 -15 101l-154 -240
c15 -17 37 -27 67 -27c79 0 102 67 102 166zM300 434c-77 0 -101 -59 -101 -158c0 -35 3 -66 10 -91l149 232c-14 11 -34 17 -58 17z" />
    <glyph glyph-name="OEsmall" horiz-adv-x="828" 
d="M786 544v-122h-235v-81h196v-122h-196v-97h243l-16 -122h-351v24c-35 -21 -77 -32 -127 -32c-187 0 -257 128 -257 284s70 276 257 276c50 0 92 -11 127 -30v22h359zM300 434c-77 0 -101 -59 -101 -158s24 -166 101 -166c79 0 102 67 102 166c0 100 -23 158 -102 158z
" />
    <glyph glyph-name="Psmall" horiz-adv-x="519" 
d="M291 186h-90v-186h-148v544h238c115 0 192 -68 192 -176c0 -109 -77 -182 -192 -182zM201 422v-113h56c32 0 70 9 70 55c0 48 -37 58 -70 58h-56z" />
    <glyph glyph-name="Qsmall" 
d="M559 276c0 -137 -55 -252 -195 -278c11 -44 80 -50 142 -19l34 -72c-28 -27 -88 -51 -146 -51c-62 0 -158 26 -163 143c-136 28 -188 142 -188 277c0 156 70 276 257 276s259 -120 259 -276zM300 434c-77 0 -101 -59 -101 -158s24 -166 101 -166c79 0 102 67 102 166
s-23 158 -102 158z" />
    <glyph glyph-name="Rsmall" horiz-adv-x="537" 
d="M360 235v-2c42 -22 72 -56 93 -94l77 -139h-168l-88 158c-18 30 -27 37 -44 37h-29v-195h-148v544h238c115 0 192 -60 192 -168c0 -71 -51 -124 -123 -141zM201 422v-113h60c32 0 66 10 66 56s-37 57 -70 57h-56z" />
    <glyph glyph-name="Racute.small" unicode="&#xf695;" horiz-adv-x="537" 
d="M360 235v-2c42 -22 72 -56 93 -94l77 -139h-168l-88 158c-18 30 -27 37 -44 37h-29v-195h-148v544h238c115 0 192 -60 192 -168c0 -71 -51 -124 -123 -141zM201 422v-113h60c32 0 66 10 66 56s-37 57 -70 57h-56zM364 736l40 -94l-178 -61l-29 53z" />
    <glyph glyph-name="Rcaron.small" unicode="&#xf696;" horiz-adv-x="537" 
d="M360 235v-2c42 -22 72 -56 93 -94l77 -139h-168l-88 158c-18 30 -27 37 -44 37h-29v-195h-148v544h238c115 0 192 -60 192 -168c0 -71 -51 -124 -123 -141zM201 422v-113h60c32 0 66 10 66 56s-37 57 -70 57h-56zM185 766l67 -80l67 80h92l-117 -176h-84l-117 176h92z
" />
    <glyph glyph-name="Rcommaaccent.small" unicode="&#xf697;" horiz-adv-x="537" 
d="M360 235v-2c42 -22 72 -56 93 -94l77 -139h-168l-88 158c-18 30 -27 37 -44 37h-29v-195h-148v544h238c115 0 192 -60 192 -168c0 -71 -51 -124 -123 -141zM201 422v-113h60c32 0 66 10 66 56s-37 57 -70 57h-56zM256 -158c-33 0 -52 29 -52 57s19 66 68 66
c56 0 88 -49 88 -94c0 -87 -65 -145 -125 -177l-36 48c41 27 74 65 74 84c0 12 -7 16 -17 16z" />
    <glyph glyph-name="Ssmall" horiz-adv-x="481" 
d="M49 392c0 108 93 160 198 160c61 0 123 -12 194 -40l-37 -114c-50 22 -94 41 -149 41c-34 0 -50 -15 -50 -33c0 -62 249 -68 249 -246c0 -106 -99 -168 -214 -168c-62 0 -117 10 -179 32l-12 128c71 -27 135 -46 186 -46c38 0 63 15 63 40c0 81 -249 67 -249 246z" />
    <glyph glyph-name="Sacute.small" unicode="&#xf698;" horiz-adv-x="481" 
d="M49 392c0 108 93 160 198 160c61 0 123 -12 194 -40l-37 -114c-50 22 -94 41 -149 41c-34 0 -50 -15 -50 -33c0 -62 249 -68 249 -246c0 -106 -99 -168 -214 -168c-62 0 -117 10 -179 32l-12 128c71 -27 135 -46 186 -46c38 0 63 15 63 40c0 81 -249 67 -249 246z
M363 736l40 -94l-178 -61l-29 53z" />
    <glyph glyph-name="Scaronsmall" unicode="&#xf6fd;" horiz-adv-x="481" 
d="M190 766l67 -80l67 80h92l-117 -176h-84l-117 176h92zM49 392c0 108 93 160 198 160c61 0 123 -12 194 -40l-37 -114c-50 22 -94 41 -149 41c-34 0 -50 -15 -50 -33c0 -62 249 -68 249 -246c0 -106 -99 -168 -214 -168c-62 0 -117 10 -179 32l-12 128
c71 -27 135 -46 186 -46c38 0 63 15 63 40c0 81 -249 67 -249 246z" />
    <glyph glyph-name="Scedilla.small" horiz-adv-x="481" 
d="M211 -84v77c-51 2 -98 12 -150 31l-12 128c71 -27 135 -46 186 -46c38 0 63 15 63 40c0 81 -249 67 -249 246c0 108 93 160 198 160c61 0 123 -12 194 -40l-37 -114c-50 22 -94 41 -149 41c-34 0 -50 -15 -50 -33c0 -62 249 -68 249 -246c0 -97 -83 -157 -185 -166v-34
c43 -9 81 -28 81 -76c0 -53 -37 -84 -113 -84c-24 0 -49 4 -73 12l10 50c15 -5 35 -10 53 -10c23 0 34 13 34 28c0 19 -17 30 -50 36z" />
    <glyph glyph-name="Scircumflex.small" unicode="&#xf69a;" horiz-adv-x="481" 
d="M49 392c0 108 93 160 198 160c61 0 123 -12 194 -40l-37 -114c-50 22 -94 41 -149 41c-34 0 -50 -15 -50 -33c0 -62 249 -68 249 -246c0 -106 -99 -168 -214 -168c-62 0 -117 10 -179 32l-12 128c71 -27 135 -46 186 -46c38 0 63 15 63 40c0 81 -249 67 -249 246z
M257 670l-67 -80h-92l117 176h84l117 -176h-92z" />
    <glyph glyph-name="Scommaaccent.small" unicode="&#xf69b;" horiz-adv-x="481" 
d="M49 392c0 108 93 160 198 160c61 0 123 -12 194 -40l-37 -114c-50 22 -94 41 -149 41c-34 0 -50 -15 -50 -33c0 -62 249 -68 249 -246c0 -106 -99 -168 -214 -168c-62 0 -117 10 -179 32l-12 128c71 -27 135 -46 186 -46c38 0 63 15 63 40c0 81 -249 67 -249 246z
M228 -158c-33 0 -52 29 -52 57s19 66 68 66c56 0 88 -49 88 -94c0 -87 -65 -145 -125 -177l-36 48c41 27 74 65 74 84c0 12 -7 16 -17 16z" />
    <glyph glyph-name="Tsmall" horiz-adv-x="444" 
d="M425 422h-129v-422h-148v422h-129v122h406v-122z" />
    <glyph glyph-name="Tcaron.small" unicode="&#xf69d;" horiz-adv-x="444" 
d="M425 422h-129v-422h-148v422h-129v122h406v-122zM155 766l67 -80l67 80h92l-117 -176h-84l-117 176h92z" />
    <glyph glyph-name="Tbar.small" horiz-adv-x="444" 
d="M64 290h84v132h-129v122h406v-122h-129v-132h84v-115h-84v-175h-148v175h-84v115z" />
    <glyph glyph-name="Tcommaaccent.small" unicode="&#xf69e;" horiz-adv-x="444" 
d="M425 422h-129v-422h-148v422h-129v122h406v-122zM195 -158c-33 0 -52 29 -52 57s19 66 68 66c56 0 88 -49 88 -94c0 -87 -65 -145 -125 -177l-36 48c41 27 74 65 74 84c0 12 -7 16 -17 16z" />
    <glyph glyph-name="Usmall" horiz-adv-x="566" 
d="M280 -8c-122 0 -227 48 -227 192v360h148v-360c0 -48 30 -74 79 -74c51 0 85 26 85 74v360h148v-360c0 -144 -110 -192 -233 -192z" />
    <glyph glyph-name="Uacutesmall" unicode="&#xf7fa;" horiz-adv-x="566" 
d="M280 -8c-122 0 -227 48 -227 192v360h148v-360c0 -48 30 -74 79 -74c51 0 85 26 85 74v360h148v-360c0 -144 -110 -192 -233 -192zM415 736l40 -94l-178 -61l-29 53z" />
    <glyph glyph-name="Ubreve.small" unicode="&#xf69f;" horiz-adv-x="566" 
d="M280 -8c-122 0 -227 48 -227 192v360h148v-360c0 -48 30 -74 79 -74c51 0 85 26 85 74v360h148v-360c0 -144 -110 -192 -233 -192zM282 592c-106 0 -145 85 -145 158h87c1 -36 17 -70 58 -70s57 34 58 70h87c0 -73 -39 -158 -145 -158z" />
    <glyph glyph-name="Ucircumflexsmall" unicode="&#xf7fb;" horiz-adv-x="566" 
d="M280 -8c-122 0 -227 48 -227 192v360h148v-360c0 -48 30 -74 79 -74c51 0 85 26 85 74v360h148v-360c0 -144 -110 -192 -233 -192zM283 670l-67 -80h-92l117 176h84l117 -176h-92z" />
    <glyph glyph-name="Udieresissmall" unicode="&#xf7fc;" horiz-adv-x="566" 
d="M280 -8c-122 0 -227 48 -227 192v360h148v-360c0 -48 30 -74 79 -74c51 0 85 26 85 74v360h148v-360c0 -144 -110 -192 -233 -192zM112 677c0 40 32 64 71 64c40 0 72 -24 72 -64s-32 -64 -72 -64c-39 0 -71 24 -71 64zM310 677c0 40 32 64 72 64c39 0 71 -24 71 -64
s-32 -64 -71 -64c-40 0 -72 24 -72 64z" />
    <glyph glyph-name="Uhungarumlaut.small" unicode="&#xf6a0;" horiz-adv-x="566" 
d="M280 -8c-122 0 -227 48 -227 192v360h148v-360c0 -48 30 -74 79 -74c51 0 85 26 85 74v360h148v-360c0 -144 -110 -192 -233 -192zM286 738l41 -78l-160 -79l-29 53zM486 738l41 -78l-160 -79l-29 53z" />
    <glyph glyph-name="Ugravesmall" unicode="&#xf7f9;" horiz-adv-x="566" 
d="M280 -8c-122 0 -227 48 -227 192v360h148v-360c0 -48 30 -74 79 -74c51 0 85 26 85 74v360h148v-360c0 -144 -110 -192 -233 -192zM118 642l40 94l167 -102l-29 -53z" />
    <glyph glyph-name="Umacron.small" unicode="&#xf6a1;" horiz-adv-x="566" 
d="M280 -8c-122 0 -227 48 -227 192v360h148v-360c0 -48 30 -74 79 -74c51 0 85 26 85 74v360h148v-360c0 -144 -110 -192 -233 -192zM143 701h278v-83h-278v83z" />
    <glyph glyph-name="Uogonek.small" horiz-adv-x="566" 
d="M352 -123l18 -48c-23 -17 -59 -29 -88 -29c-59 0 -94 34 -94 81c0 41 25 80 69 112c-112 6 -204 56 -204 191v360h148v-360c0 -48 30 -74 79 -74c51 0 85 26 85 74v360h148v-360c0 -127 -86 -180 -191 -190c-25 -23 -49 -60 -49 -90c0 -23 17 -38 39 -38c12 0 27 4 40 11
z" />
    <glyph glyph-name="Uring.small" unicode="&#xf6a3;" horiz-adv-x="566" 
d="M280 -8c-122 0 -227 48 -227 192v360h148v-360c0 -48 30 -74 79 -74c51 0 85 26 85 74v360h148v-360c0 -144 -110 -192 -233 -192zM191 667c0 51 36 88 91 88c54 0 91 -37 91 -88s-37 -87 -91 -87s-91 36 -91 87zM239 667c0 -29 21 -42 43 -42s43 13 43 42
c0 30 -21 43 -43 43s-43 -13 -43 -43z" />
    <glyph glyph-name="Utilde.small" unicode="&#xf6a4;" horiz-adv-x="566" 
d="M280 -8c-122 0 -227 48 -227 192v360h148v-360c0 -48 30 -74 79 -74c51 0 85 26 85 74v360h148v-360c0 -144 -110 -192 -233 -192zM160 588l-66 33c23 65 53 115 115 115c61 0 109 -51 142 -51c23 0 36 25 49 52l70 -41c-27 -74 -62 -107 -107 -107
c-57 0 -111 51 -146 51c-30 0 -43 -26 -57 -52z" />
    <glyph glyph-name="Vsmall" horiz-adv-x="529" 
d="M269 173l96 371h149l-157 -548h-192l-150 548h155l97 -371h2z" />
    <glyph glyph-name="Wsmall" horiz-adv-x="814" 
d="M481 544l82 -371h2l80 371h154l-132 -548h-200l-60 245l-60 -245h-200l-132 548h155l79 -371h2l82 371h148z" />
    <glyph glyph-name="Wacute.small" unicode="&#xf6a5;" horiz-adv-x="814" 
d="M481 544l82 -371h2l80 371h154l-132 -548h-200l-60 245l-60 -245h-200l-132 548h155l79 -371h2l82 371h148zM522 736l40 -94l-178 -61l-29 53z" />
    <glyph glyph-name="Wcircumflex.small" unicode="&#xf6a6;" horiz-adv-x="814" 
d="M481 544l82 -371h2l80 371h154l-132 -548h-200l-60 245l-60 -245h-200l-132 548h155l79 -371h2l82 371h148zM407 670l-67 -80h-92l117 176h84l117 -176h-92z" />
    <glyph glyph-name="Wdieresis.small" unicode="&#xf6a7;" horiz-adv-x="814" 
d="M481 544l82 -371h2l80 371h154l-132 -548h-200l-60 245l-60 -245h-200l-132 548h155l79 -371h2l82 371h148zM236 677c0 40 32 64 71 64c40 0 72 -24 72 -64s-32 -64 -72 -64c-39 0 -71 24 -71 64zM434 677c0 40 32 64 72 64c39 0 71 -24 71 -64s-32 -64 -71 -64
c-40 0 -72 24 -72 64z" />
    <glyph glyph-name="Wgrave.small" unicode="&#xf6a8;" horiz-adv-x="814" 
d="M481 544l82 -371h2l80 371h154l-132 -548h-200l-60 245l-60 -245h-200l-132 548h155l79 -371h2l82 371h148zM240 642l40 94l167 -102l-29 -53z" />
    <glyph glyph-name="Xsmall" horiz-adv-x="552" 
d="M361 0l-92 163h-1l-88 -163h-159l158 285l-153 259h169l80 -142h1l76 142h166l-154 -267l167 -277h-170z" />
    <glyph glyph-name="Ysmall" horiz-adv-x="519" 
d="M259 359h2l79 185h164l-171 -360v-184h-148v184l-170 360h164z" />
    <glyph glyph-name="Yacutesmall" unicode="&#xf7fd;" horiz-adv-x="519" 
d="M259 359h2l79 185h164l-171 -360v-184h-148v184l-170 360h164zM402 736l40 -94l-178 -61l-29 53z" />
    <glyph glyph-name="Ycircumflex.small" unicode="&#xf6a9;" horiz-adv-x="519" 
d="M259 359h2l79 185h164l-171 -360v-184h-148v184l-170 360h164zM260 670l-67 -80h-92l117 176h84l117 -176h-92z" />
    <glyph glyph-name="Ydieresissmall" unicode="&#xf7ff;" horiz-adv-x="519" 
d="M259 359h2l79 185h164l-171 -360v-184h-148v184l-170 360h164zM89 677c0 40 32 64 71 64c40 0 72 -24 72 -64s-32 -64 -72 -64c-39 0 -71 24 -71 64zM287 677c0 40 32 64 72 64c39 0 71 -24 71 -64s-32 -64 -71 -64c-40 0 -72 24 -72 64z" />
    <glyph glyph-name="Ygrave.small" unicode="&#xf6aa;" horiz-adv-x="519" 
d="M259 359h2l79 185h164l-171 -360v-184h-148v184l-170 360h164zM92 642l40 94l167 -102l-29 -53z" />
    <glyph glyph-name="Zsmall" horiz-adv-x="465" 
d="M202 124v-2h242l-17 -122h-406v106l232 314v2h-215v122h393v-106z" />
    <glyph glyph-name="Zacute.small" unicode="&#xf6ab;" horiz-adv-x="465" 
d="M202 124v-2h242l-17 -122h-406v106l232 314v2h-215v122h393v-106zM344 736l40 -94l-178 -61l-29 53z" />
    <glyph glyph-name="Zcaronsmall" unicode="&#xf6ff;" horiz-adv-x="465" 
d="M166 766l67 -80l67 80h92l-117 -176h-84l-117 176h92zM202 124v-2h242l-17 -122h-406v106l232 314v2h-215v122h393v-106z" />
    <glyph glyph-name="Zdotaccent.small" unicode="&#xf6ac;" horiz-adv-x="465" 
d="M202 124v-2h242l-17 -122h-406v106l232 314v2h-215v122h393v-106zM168 677c0 36 28 58 65 58c35 0 64 -22 64 -58c0 -37 -29 -59 -64 -59c-37 0 -65 22 -65 59z" />
    <glyph glyph-name="abreve" unicode="&#x103;" horiz-adv-x="509" 
d="M314 54l-2 10h-2c-35 -51 -84 -74 -143 -74c-87 0 -141 55 -141 132c0 101 82 143 177 164l109 25v27c0 34 -27 61 -76 61c-41 0 -94 -16 -143 -40l-42 97c66 39 151 54 208 54c120 0 189 -66 189 -162v-215c0 -20 6 -30 43 -35l-13 -107c-130 0 -152 23 -164 63z
M312 212v16l-97 -25c-28 -6 -53 -20 -53 -57c0 -36 31 -49 56 -49c57 0 94 55 94 115zM264 552c-106 0 -145 85 -145 158h87c1 -36 17 -70 58 -70s57 34 58 70h87c0 -73 -39 -158 -145 -158z" />
    <glyph glyph-name="amacron" unicode="&#x101;" horiz-adv-x="509" 
d="M314 54l-2 10h-2c-35 -51 -84 -74 -143 -74c-87 0 -141 55 -141 132c0 101 82 143 177 164l109 25v27c0 34 -27 61 -76 61c-41 0 -94 -16 -143 -40l-42 97c66 39 151 54 208 54c120 0 189 -66 189 -162v-215c0 -20 6 -30 43 -35l-13 -107c-130 0 -152 23 -164 63z
M312 212v16l-97 -25c-28 -6 -53 -20 -53 -57c0 -36 31 -49 56 -49c57 0 94 55 94 115zM125 661h278v-83h-278v83z" />
    <glyph glyph-name="aogonek" unicode="&#x105;" horiz-adv-x="509" 
d="M314 54l-2 10h-2c-35 -51 -84 -74 -143 -74c-87 0 -141 55 -141 132c0 101 82 143 177 164l109 25v27c0 34 -27 61 -76 61c-41 0 -94 -16 -143 -40l-42 97c66 39 151 54 208 54c120 0 189 -66 189 -162v-215c0 -20 6 -30 43 -35l-13 -107c-27 -23 -56 -55 -56 -87
c0 -23 17 -38 39 -38c12 0 27 4 40 11l18 -48c-23 -17 -59 -29 -88 -29c-59 0 -94 34 -94 81c0 42 26 82 71 113c-69 7 -85 29 -94 60zM312 212v16l-97 -25c-28 -6 -53 -20 -53 -57c0 -36 31 -49 56 -49c57 0 94 55 94 115z" />
    <glyph glyph-name="aeacute" unicode="&#x1fd;" horiz-adv-x="792" 
d="M557 510c152 0 202 -92 202 -215c0 -24 -4 -51 -8 -77h-296c6 -69 56 -117 123 -117c41 0 90 12 127 31l38 -97c-65 -36 -131 -45 -187 -45c-98 0 -170 46 -210 118c-51 -93 -123 -118 -179 -118c-87 0 -141 55 -141 132c0 101 82 143 177 164l109 25v27
c0 34 -27 61 -76 61c-41 0 -94 -16 -143 -40l-42 97c66 39 151 54 208 54c62 0 110 -18 143 -49c39 31 91 49 155 49zM312 212v16l-97 -25c-28 -6 -53 -20 -53 -57c0 -36 31 -49 56 -49c57 0 94 55 94 115zM557 399c-57 0 -94 -37 -100 -92h169c1 5 1 11 1 16
c0 40 -19 76 -70 76zM537 696l40 -94l-178 -61l-29 53z" />
    <glyph glyph-name="cacute" unicode="&#x107;" horiz-adv-x="462" 
d="M291 395c-81 0 -118 -57 -118 -145s38 -145 115 -145c41 0 80 12 117 31l42 -101c-65 -36 -125 -45 -181 -45c-152 0 -233 112 -233 260s81 260 242 260c59 0 95 -3 145 -21l-9 -114c-62 17 -90 20 -120 20zM371 696l40 -94l-178 -61l-29 53z" />
    <glyph glyph-name="ccaron" unicode="&#x10d;" horiz-adv-x="462" 
d="M291 395c-81 0 -118 -57 -118 -145s38 -145 115 -145c41 0 80 12 117 31l42 -101c-65 -36 -125 -45 -181 -45c-152 0 -233 112 -233 260s81 260 242 260c59 0 95 -3 145 -21l-9 -114c-62 17 -90 20 -120 20zM204 726l67 -80l67 80h92l-117 -176h-84l-117 176h92z" />
    <glyph glyph-name="ccircumflex" unicode="&#x109;" horiz-adv-x="462" 
d="M291 395c-81 0 -118 -57 -118 -145s38 -145 115 -145c41 0 80 12 117 31l42 -101c-65 -36 -125 -45 -181 -45c-152 0 -233 112 -233 260s81 260 242 260c59 0 95 -3 145 -21l-9 -114c-62 17 -90 20 -120 20zM260 630l-67 -80h-92l117 176h84l117 -176h-92z" />
    <glyph glyph-name="cdotaccent" unicode="&#x10b;" horiz-adv-x="462" 
d="M291 395c-81 0 -118 -57 -118 -145s38 -145 115 -145c41 0 80 12 117 31l42 -101c-65 -36 -125 -45 -181 -45c-152 0 -233 112 -233 260s81 260 242 260c59 0 95 -3 145 -21l-9 -114c-62 17 -90 20 -120 20zM201 637c0 36 28 58 65 58c35 0 64 -22 64 -58
c0 -37 -29 -59 -64 -59c-37 0 -65 22 -65 59z" />
    <glyph glyph-name="dcaron" unicode="&#x10f;" horiz-adv-x="695" 
d="M347 692l102 18h34v-710h-126l-10 72h-2c-21 -51 -68 -82 -124 -82c-121 0 -188 118 -188 260s74 260 200 260c42 0 82 -16 112 -55h2v237zM173 250c0 -80 27 -145 93 -145c49 0 81 39 81 97v166c-13 12 -41 27 -77 27c-70 0 -97 -65 -97 -145zM576 592
c-33 0 -52 29 -52 57s19 66 68 66c56 0 88 -49 88 -94c0 -87 -65 -145 -125 -177l-36 48c41 27 74 65 74 84c0 12 -7 16 -17 16z" />
    <glyph glyph-name="dcroat" unicode="&#x111;" horiz-adv-x="534" 
d="M279 625h68v67l102 18h34v-85h44v-67h-44v-558h-126l-10 72h-2c-21 -51 -68 -82 -124 -82c-121 0 -188 118 -188 260s74 260 200 260c42 0 82 -16 112 -55h2v103h-68v67zM173 250c0 -80 27 -145 93 -145c49 0 81 39 81 97v166c-13 12 -41 27 -77 27
c-70 0 -97 -65 -97 -145z" />
    <glyph glyph-name="ebreve" unicode="&#x115;" horiz-adv-x="512" 
d="M277 510c152 0 202 -92 202 -215c0 -24 -4 -51 -8 -77h-296c6 -69 56 -117 123 -117c41 0 90 12 127 31l38 -97c-65 -36 -131 -45 -187 -45c-152 0 -243 112 -243 260s83 260 244 260zM277 399c-57 0 -94 -37 -100 -92h169c1 5 1 11 1 16c0 40 -19 76 -70 76zM275 552
c-106 0 -145 85 -145 158h87c1 -36 17 -70 58 -70s57 34 58 70h87c0 -73 -39 -158 -145 -158z" />
    <glyph glyph-name="ecaron" unicode="&#x11b;" horiz-adv-x="512" 
d="M277 510c152 0 202 -92 202 -215c0 -24 -4 -51 -8 -77h-296c6 -69 56 -117 123 -117c41 0 90 12 127 31l38 -97c-65 -36 -131 -45 -187 -45c-152 0 -243 112 -243 260s83 260 244 260zM277 399c-57 0 -94 -37 -100 -92h169c1 5 1 11 1 16c0 40 -19 76 -70 76zM210 726
l67 -80l67 80h92l-117 -176h-84l-117 176h92z" />
    <glyph glyph-name="edotaccent" unicode="&#x117;" horiz-adv-x="512" 
d="M277 510c152 0 202 -92 202 -215c0 -24 -4 -51 -8 -77h-296c6 -69 56 -117 123 -117c41 0 90 12 127 31l38 -97c-65 -36 -131 -45 -187 -45c-152 0 -243 112 -243 260s83 260 244 260zM277 399c-57 0 -94 -37 -100 -92h169c1 5 1 11 1 16c0 40 -19 76 -70 76zM212 637
c0 36 28 58 65 58c35 0 64 -22 64 -58c0 -37 -29 -59 -64 -59c-37 0 -65 22 -65 59z" />
    <glyph glyph-name="emacron" unicode="&#x113;" horiz-adv-x="512" 
d="M277 510c152 0 202 -92 202 -215c0 -24 -4 -51 -8 -77h-296c6 -69 56 -117 123 -117c41 0 90 12 127 31l38 -97c-65 -36 -131 -45 -187 -45c-152 0 -243 112 -243 260s83 260 244 260zM277 399c-57 0 -94 -37 -100 -92h169c1 5 1 11 1 16c0 40 -19 76 -70 76zM139 661
h278v-83h-278v83z" />
    <glyph glyph-name="eogonek" unicode="&#x119;" horiz-adv-x="512" 
d="M276 -10c-152 0 -243 112 -243 260s83 260 244 260c152 0 202 -92 202 -215c0 -24 -4 -51 -8 -77h-296c6 -69 56 -117 123 -117c41 0 90 12 127 31l38 -97c-69 -51 -96 -99 -96 -131c0 -23 16 -38 38 -38c12 0 28 4 40 11l19 -48c-23 -17 -59 -29 -88 -29
c-59 0 -94 34 -94 81c0 43 25 83 74 117c-28 -6 -55 -8 -80 -8zM277 399c-57 0 -94 -37 -100 -92h169c1 5 1 11 1 16c0 40 -19 76 -70 76z" />
    <glyph glyph-name="ff" unicode="&#xfb00;" horiz-adv-x="618" 
d="M356 500v50c0 104 48 160 157 160c25 0 73 -7 105 -19l-10 -105c-22 7 -45 13 -67 13c-39 0 -49 -21 -49 -62v-37h106v-103h-106v-397h-136v397h-143v-397h-136v397h-55v68l55 35v50c0 104 48 160 157 160c25 0 73 -7 105 -19l-10 -105c-22 7 -45 13 -67 13
c-39 0 -49 -21 -49 -62v-37h143z" />
    <glyph glyph-name="ffi" unicode="&#xfb03;" horiz-adv-x="813" 
d="M356 0v397h-143v-397h-136v397h-55v68l55 35v50c0 104 48 160 157 160c25 0 73 -7 105 -19l-10 -105c-22 7 -45 13 -67 13c-39 0 -49 -21 -49 -62v-37h143v46c0 104 62 184 204 184c78 0 156 -22 186 -35l-23 -109c-23 9 -82 33 -143 33c-43 0 -88 -10 -88 -78v-41h142
l102 10h34v-510h-136v397h-142v-397h-136z" />
    <glyph glyph-name="f_f_j" horiz-adv-x="813" 
d="M770 510v-470c0 -95 -14 -208 -190 -240l-39 102c77 31 93 52 93 98v397h-142v-397h-136v397h-143v-397h-136v397h-55v68l55 35v50c0 104 48 160 157 160c25 0 73 -7 105 -19l-10 -105c-22 7 -45 13 -67 13c-39 0 -49 -21 -49 -62v-37h143v46c0 104 62 184 204 184
c78 0 156 -22 186 -35l-23 -109c-23 9 -82 33 -143 33c-43 0 -88 -10 -88 -78v-41h142l102 10h34z" />
    <glyph glyph-name="ffl" unicode="&#xfb04;" horiz-adv-x="813" 
d="M715 706l21 4h34v-710h-136v612c-17 4 -36 7 -54 7c-43 0 -88 -10 -88 -78v-41h90v-103h-90v-397h-136v397h-143v-397h-136v397h-55v68l55 35v50c0 104 48 160 157 160c25 0 73 -7 105 -19l-10 -105c-22 7 -45 13 -67 13c-39 0 -49 -21 -49 -62v-37h143v46
c0 104 62 184 204 184c58 0 117 -13 155 -24z" />
    <glyph glyph-name="fi" unicode="&#xfb01;" horiz-adv-x="534" 
d="M77 500v46c0 104 62 184 204 184c78 0 156 -22 186 -35l-23 -109c-23 9 -82 33 -143 33c-43 0 -88 -10 -88 -78v-41h142l102 10h34v-510h-136v397h-142v-397h-136v397h-55v68z" />
    <glyph glyph-name="f_j" horiz-adv-x="534" 
d="M491 510v-470c0 -95 -14 -208 -190 -240l-39 102c77 31 93 52 93 98v397h-142v-397h-136v397h-55v68l55 35v46c0 104 62 184 204 184c78 0 156 -22 186 -35l-23 -109c-23 9 -82 33 -143 33c-43 0 -88 -10 -88 -78v-41h142l102 10h34z" />
    <glyph glyph-name="fl" unicode="&#xfb02;" horiz-adv-x="534" 
d="M77 500v46c0 104 62 184 204 184c58 0 117 -13 155 -24l21 4h34v-710h-136v612c-17 4 -36 7 -54 7c-43 0 -88 -10 -88 -78v-41h90v-103h-90v-397h-136v397h-55v68z" />
    <glyph glyph-name="gbreve" unicode="&#x11f;" horiz-adv-x="503" 
d="M130 -45c0 -38 47 -52 100 -52c54 0 116 17 116 54c0 19 -17 31 -49 33l-144 9c-14 -13 -23 -28 -23 -44zM241 267c39 0 63 25 63 74s-23 74 -63 74c-39 0 -61 -25 -61 -74s23 -74 61 -74zM324 497c31 20 67 37 122 37c10 0 26 -2 35 -3l-12 -94c-23 5 -45 7 -65 7v-2
c26 -26 35 -71 35 -101c0 -112 -86 -169 -214 -169c-40 0 -60 -8 -60 -30c0 -16 14 -23 38 -25l145 -12c89 -8 142 -63 142 -129c0 -101 -90 -176 -272 -176c-115 0 -202 36 -202 122c0 43 25 77 83 99v2c-39 20 -50 52 -50 79c-2 38 22 77 74 95v2c-45 25 -79 80 -79 142
c0 116 89 169 198 169c23 0 48 -4 82 -13zM253 552c-106 0 -145 85 -145 158h87c1 -36 17 -70 58 -70s57 34 58 70h87c0 -73 -39 -158 -145 -158z" />
    <glyph glyph-name="gcircumflex" unicode="&#x11d;" horiz-adv-x="503" 
d="M130 -45c0 -38 47 -52 100 -52c54 0 116 17 116 54c0 19 -17 31 -49 33l-144 9c-14 -13 -23 -28 -23 -44zM241 267c39 0 63 25 63 74s-23 74 -63 74c-39 0 -61 -25 -61 -74s23 -74 61 -74zM324 497c31 20 67 37 122 37c10 0 26 -2 35 -3l-12 -94c-23 5 -45 7 -65 7v-2
c26 -26 35 -71 35 -101c0 -112 -86 -169 -214 -169c-40 0 -60 -8 -60 -30c0 -16 14 -23 38 -25l145 -12c89 -8 142 -63 142 -129c0 -101 -90 -176 -272 -176c-115 0 -202 36 -202 122c0 43 25 77 83 99v2c-39 20 -50 52 -50 79c-2 38 22 77 74 95v2c-45 25 -79 80 -79 142
c0 116 89 169 198 169c23 0 48 -4 82 -13zM241 630l-67 -80h-92l117 176h84l117 -176h-92z" />
    <glyph glyph-name="gcommaaccent" unicode="&#x123;" horiz-adv-x="503" 
d="M130 -45c0 -38 47 -52 100 -52c54 0 116 17 116 54c0 19 -17 31 -49 33l-144 9c-14 -13 -23 -28 -23 -44zM241 267c39 0 63 25 63 74s-23 74 -63 74c-39 0 -61 -25 -61 -74s23 -74 61 -74zM324 497c31 20 67 37 122 37c10 0 26 -2 35 -3l-12 -94c-23 5 -45 7 -65 7v-2
c26 -26 35 -71 35 -101c0 -112 -86 -169 -214 -169c-40 0 -60 -8 -60 -30c0 -16 14 -23 38 -25l145 -12c89 -8 142 -63 142 -129c0 -101 -90 -176 -272 -176c-115 0 -202 36 -202 122c0 43 25 77 83 99v2c-39 20 -50 52 -50 79c-2 38 22 77 74 95v2c-45 25 -79 80 -79 142
c0 116 89 169 198 169c23 0 48 -4 82 -13zM271 686c33 0 52 -29 52 -57s-19 -66 -68 -66c-56 0 -88 49 -88 94c0 87 65 145 125 177l36 -48c-41 -27 -74 -65 -74 -84c0 -12 7 -16 17 -16z" />
    <glyph glyph-name="gdotaccent" unicode="&#x121;" horiz-adv-x="503" 
d="M130 -45c0 -38 47 -52 100 -52c54 0 116 17 116 54c0 19 -17 31 -49 33l-144 9c-14 -13 -23 -28 -23 -44zM241 267c39 0 63 25 63 74s-23 74 -63 74c-39 0 -61 -25 -61 -74s23 -74 61 -74zM324 497c31 20 67 37 122 37c10 0 26 -2 35 -3l-12 -94c-23 5 -45 7 -65 7v-2
c26 -26 35 -71 35 -101c0 -112 -86 -169 -214 -169c-40 0 -60 -8 -60 -30c0 -16 14 -23 38 -25l145 -12c89 -8 142 -63 142 -129c0 -101 -90 -176 -272 -176c-115 0 -202 36 -202 122c0 43 25 77 83 99v2c-39 20 -50 52 -50 79c-2 38 22 77 74 95v2c-45 25 -79 80 -79 142
c0 116 89 169 198 169c23 0 48 -4 82 -13zM186 637c0 36 28 58 65 58c35 0 64 -22 64 -58c0 -37 -29 -59 -64 -59c-37 0 -65 22 -65 59z" />
    <glyph glyph-name="hbar" unicode="&#x127;" horiz-adv-x="526" 
d="M7 625h44v67l102 18h34v-85h68v-67h-68v-144h2c34 68 90 96 145 96c90 0 149 -67 149 -168v-342h-136v312c0 53 -30 79 -71 79c-40 0 -89 -37 -89 -123v-268h-136v558h-44v67z" />
    <glyph glyph-name="hcircumflex" unicode="&#x125;" horiz-adv-x="518" 
d="M43 692l102 18h34v-296h2c34 68 90 96 145 96c90 0 149 -67 149 -168v-342h-136v312c0 53 -30 79 -71 79c-40 0 -89 -37 -89 -123v-268h-136v692zM108 820l-67 -80h-92l117 176h84l117 -176h-92z" />
    <glyph glyph-name="ibreve" unicode="&#x12d;" horiz-adv-x="223" 
d="M111 552c-106 0 -145 85 -145 158h87c1 -36 17 -70 58 -70s57 34 58 70h87c0 -73 -39 -158 -145 -158zM43 492l102 18h34v-510h-136v492z" />
    <glyph glyph-name="imacron" unicode="&#x12b;" horiz-adv-x="223" 
d="M-28 661h278v-83h-278v83zM43 492l102 18h34v-510h-136v492z" />
    <glyph glyph-name="iogonek" unicode="&#x12f;" horiz-adv-x="223" 
d="M33 641c0 44 34 70 78 70s79 -26 79 -70s-35 -71 -79 -71s-78 27 -78 71zM165 -123l19 -48c-23 -17 -59 -29 -88 -29c-59 0 -94 34 -94 81c0 44 29 86 80 119h-39v492l102 18h34v-510h-36c-27 -23 -56 -64 -56 -96c0 -23 16 -38 38 -38c13 0 28 4 40 11z" />
    <glyph glyph-name="itilde" unicode="&#x129;" horiz-adv-x="223" 
d="M-11 548l-66 33c23 65 53 115 115 115c61 0 109 -51 142 -51c23 0 36 25 49 52l70 -41c-27 -74 -62 -107 -107 -107c-57 0 -111 51 -146 51c-30 0 -43 -26 -57 -52zM43 492l102 18h34v-510h-136v492z" />
    <glyph glyph-name="ij" unicode="&#x133;" horiz-adv-x="445" 
d="M33 641c0 44 34 70 78 70s79 -26 79 -70s-35 -71 -79 -71s-78 27 -78 71zM255 641c0 44 34 70 78 70s79 -26 79 -70s-35 -71 -79 -71s-78 27 -78 71zM43 492l102 18h34v-510h-136v492zM402 510v-470c0 -95 -14 -208 -190 -240l-39 102c76 31 93 52 93 98v492l102 18h34z
" />
    <glyph glyph-name="dotlessi" unicode="&#x131;" horiz-adv-x="223" 
d="M43 492l102 18h34v-510h-136v492z" />
    <glyph glyph-name="jcircumflex" unicode="&#x135;" horiz-adv-x="223" 
d="M179 510v-470c0 -95 -14 -208 -190 -240l-39 102c76 31 93 52 93 98v492l102 18h34zM112 630l-67 -80h-92l117 176h84l117 -176h-92z" />
    <glyph glyph-name="dotlessj" unicode="&#x237;" horiz-adv-x="223" 
d="M179 510v-470c0 -95 -14 -208 -190 -240l-39 102c76 31 93 52 93 98v492l102 18h34z" />
    <glyph glyph-name="kcommaaccent" unicode="&#x137;" horiz-adv-x="534" 
d="M43 692l102 18h34v-398l163 188h163l-175 -200l192 -300h-168l-122 202l-53 -58v-144h-136v692zM236 -158c-33 0 -52 29 -52 57s19 66 68 66c56 0 88 -49 88 -94c0 -87 -65 -145 -125 -177l-36 48c41 27 74 65 74 84c0 12 -7 16 -17 16z" />
    <glyph glyph-name="kgreenlandic" unicode="&#x138;" horiz-adv-x="534" 
d="M43 492l102 18h34v-198l163 188h163l-175 -200l192 -300h-168l-122 202l-53 -58v-144h-136v492z" />
    <glyph glyph-name="lacute" unicode="&#x13a;" horiz-adv-x="222" 
d="M43 692l102 18h34v-710h-136v692zM237 886l40 -94l-178 -61l-29 53z" />
    <glyph glyph-name="lcaron" unicode="&#x13e;" horiz-adv-x="391" 
d="M43 692l102 18h34v-710h-136v692zM272 592c-33 0 -52 29 -52 57s19 66 68 66c56 0 88 -49 88 -94c0 -87 -65 -145 -125 -177l-36 48c41 27 74 65 74 84c0 12 -7 16 -17 16z" />
    <glyph glyph-name="lcommaaccent" unicode="&#x13c;" horiz-adv-x="222" 
d="M43 692l102 18h34v-710h-136v692zM81 -158c-33 0 -52 29 -52 57s19 66 68 66c56 0 88 -49 88 -94c0 -87 -65 -145 -125 -177l-36 48c41 27 74 65 74 84c0 12 -7 16 -17 16z" />
    <glyph glyph-name="ldot" unicode="&#x140;" horiz-adv-x="377" 
d="M43 692l102 18h34v-710h-136v692zM224 357c0 36 29 58 65 58s65 -22 65 -58c0 -37 -29 -59 -65 -59s-65 22 -65 59z" />
    <glyph glyph-name="lslash" unicode="&#x142;" horiz-adv-x="272" 
d="M0 361l68 25v306l102 18h34v-275l68 26v-115l-68 -26v-320h-136v271l-68 -25v115z" />
    <glyph glyph-name="nacute" unicode="&#x144;" horiz-adv-x="518" 
d="M43 492l102 18h34v-96h2c34 68 90 96 145 96c90 0 149 -67 149 -168v-342h-136v312c0 53 -30 79 -71 79c-40 0 -89 -37 -89 -123v-268h-136v492zM384 696l40 -94l-178 -61l-29 53z" />
    <glyph glyph-name="napostrophe" unicode="&#x149;" horiz-adv-x="518" 
d="M43 492l102 18h34v-96h2c34 68 90 96 145 96c90 0 149 -67 149 -168v-342h-136v312c0 53 -30 79 -71 79c-40 0 -89 -37 -89 -123v-268h-136v492zM98 691c-33 0 -52 29 -52 57s19 66 68 66c56 0 88 -49 88 -94c0 -87 -65 -145 -125 -177l-36 48c41 27 74 65 74 84
c0 12 -7 16 -17 16z" />
    <glyph glyph-name="ncaron" unicode="&#x148;" horiz-adv-x="518" 
d="M43 492l102 18h34v-96h2c34 68 90 96 145 96c90 0 149 -67 149 -168v-342h-136v312c0 53 -30 79 -71 79c-40 0 -89 -37 -89 -123v-268h-136v492zM193 726l67 -80l67 80h92l-117 -176h-84l-117 176h92z" />
    <glyph glyph-name="ncommaaccent" unicode="&#x146;" horiz-adv-x="518" 
d="M43 492l102 18h34v-96h2c34 68 90 96 145 96c90 0 149 -67 149 -168v-342h-136v312c0 53 -30 79 -71 79c-40 0 -89 -37 -89 -123v-268h-136v492zM234 -158c-33 0 -52 29 -52 57s19 66 68 66c56 0 88 -49 88 -94c0 -87 -65 -145 -125 -177l-36 48c41 27 74 65 74 84
c0 12 -7 16 -17 16z" />
    <glyph glyph-name="obreve" unicode="&#x14f;" horiz-adv-x="540" 
d="M270 395c-66 0 -97 -57 -97 -145s31 -145 97 -145s97 57 97 145s-31 145 -97 145zM270 -10c-152 0 -237 112 -237 260s85 260 237 260s237 -112 237 -260s-85 -260 -237 -260zM270 552c-106 0 -145 85 -145 158h87c1 -36 17 -70 58 -70s57 34 58 70h87
c0 -73 -39 -158 -145 -158z" />
    <glyph glyph-name="ohungarumlaut" unicode="&#x151;" horiz-adv-x="540" 
d="M270 395c-66 0 -97 -57 -97 -145s31 -145 97 -145s97 57 97 145s-31 145 -97 145zM270 -10c-152 0 -237 112 -237 260s85 260 237 260s237 -112 237 -260s-85 -260 -237 -260zM259 698l41 -78l-160 -79l-29 53zM459 698l41 -78l-160 -79l-29 53z" />
    <glyph glyph-name="omacron" unicode="&#x14d;" horiz-adv-x="540" 
d="M270 395c-66 0 -97 -57 -97 -145s31 -145 97 -145s97 57 97 145s-31 145 -97 145zM270 -10c-152 0 -237 112 -237 260s85 260 237 260s237 -112 237 -260s-85 -260 -237 -260zM131 661h278v-83h-278v83z" />
    <glyph glyph-name="oslashacute" unicode="&#x1ff;" horiz-adv-x="540" 
d="M404 696l40 -94l-178 -61l-29 53zM270 -10c-43 0 -80 9 -112 25l-28 -47l-43 26l29 49c-54 46 -83 120 -83 207c0 148 85 260 237 260c43 0 82 -10 114 -26l29 48l43 -26l-31 -51c53 -47 82 -120 82 -205c0 -148 -85 -260 -237 -260zM270 395c-66 0 -97 -57 -97 -145
c0 -35 5 -66 15 -89l133 219c-14 10 -31 15 -51 15zM367 250c0 34 -5 63 -14 86l-132 -218c14 -9 30 -13 49 -13c66 0 97 57 97 145z" />
    <glyph glyph-name="racute" unicode="&#x155;" horiz-adv-x="349" 
d="M43 492l102 18h34v-114h2c37 84 87 114 156 114l-9 -137c-88 0 -149 -29 -149 -110v-263h-136v492zM266 696l40 -94l-178 -61l-29 53z" />
    <glyph glyph-name="rcaron" unicode="&#x159;" horiz-adv-x="349" 
d="M43 492l102 18h34v-114h2c37 84 87 114 156 114l-9 -137c-88 0 -149 -29 -149 -110v-263h-136v492zM119 726l67 -80l67 80h92l-117 -176h-84l-117 176h92z" />
    <glyph glyph-name="rcommaaccent" unicode="&#x157;" horiz-adv-x="349" 
d="M43 492l102 18h34v-114h2c37 84 87 114 156 114l-9 -137c-88 0 -149 -29 -149 -110v-263h-136v492zM80 -158c-33 0 -52 29 -52 57s19 66 68 66c56 0 88 -49 88 -94c0 -87 -65 -145 -125 -177l-36 48c41 27 74 65 74 84c0 12 -7 16 -17 16z" />
    <glyph glyph-name="sacute" unicode="&#x15b;" horiz-adv-x="441" 
d="M41 366c0 100 92 144 188 144c52 0 118 -9 166 -24l-9 -107c-69 20 -126 24 -156 24c-32 0 -46 -12 -46 -31c0 -71 226 -53 226 -226c0 -97 -78 -156 -190 -156c-75 0 -119 9 -173 24l-13 105c76 -18 146 -22 182 -22c35 0 54 17 54 37c0 73 -229 57 -229 232zM326 696
l40 -94l-178 -61l-29 53z" />
    <glyph glyph-name="scedilla" unicode="&#x15f;" horiz-adv-x="441" 
d="M41 366c0 100 92 144 188 144c52 0 118 -9 166 -24l-9 -107c-69 20 -126 24 -156 24c-32 0 -46 -12 -46 -31c0 -71 226 -53 226 -226c0 -89 -66 -146 -163 -155v-31c43 -9 81 -28 81 -76c0 -53 -37 -84 -113 -84c-24 0 -49 4 -73 12l10 50c15 -5 35 -10 53 -10
c23 0 34 13 34 28c0 19 -17 30 -50 36v75c-57 2 -96 10 -142 23l-13 105c76 -18 146 -22 182 -22c35 0 54 17 54 37c0 73 -229 57 -229 232z" />
    <glyph glyph-name="scircumflex" unicode="&#x15d;" horiz-adv-x="441" 
d="M41 366c0 100 92 144 188 144c52 0 118 -9 166 -24l-9 -107c-69 20 -126 24 -156 24c-32 0 -46 -12 -46 -31c0 -71 226 -53 226 -226c0 -97 -78 -156 -190 -156c-75 0 -119 9 -173 24l-13 105c76 -18 146 -22 182 -22c35 0 54 17 54 37c0 73 -229 57 -229 232zM220 630
l-67 -80h-92l117 176h84l117 -176h-92z" />
    <glyph glyph-name="scommaaccent" unicode="&#x219;" horiz-adv-x="441" 
d="M41 366c0 100 92 144 188 144c52 0 118 -9 166 -24l-9 -107c-69 20 -126 24 -156 24c-32 0 -46 -12 -46 -31c0 -71 226 -53 226 -226c0 -97 -78 -156 -190 -156c-75 0 -119 9 -173 24l-13 105c76 -18 146 -22 182 -22c35 0 54 17 54 37c0 73 -229 57 -229 232zM203 -158
c-33 0 -52 29 -52 57s19 66 68 66c56 0 88 -49 88 -94c0 -87 -65 -145 -125 -177l-36 48c41 27 74 65 74 84c0 12 -7 16 -17 16z" />
    <glyph glyph-name="tbar" unicode="&#x167;" horiz-adv-x="359" 
d="M213 226v-63c0 -41 8 -62 47 -62c11 0 38 7 54 13l25 -105c-32 -12 -88 -19 -113 -19c-109 0 -149 48 -149 152v84h-55v67h55v104h-55v68l55 35l68 120h68v-120h122v-103h-122v-104h117v-67h-117z" />
    <glyph glyph-name="tcaron" unicode="&#x165;" horiz-adv-x="359" 
d="M68 142v255h-55v68l55 35l68 120h68v-120h122v-103h-122v-234c0 -41 8 -62 47 -62c11 0 38 7 54 13l25 -105c-32 -12 -88 -19 -113 -19c-109 0 -149 48 -149 152zM288 675c-33 0 -52 29 -52 57s19 66 68 66c56 0 88 -49 88 -94c0 -87 -65 -145 -125 -177l-36 48
c41 27 74 65 74 84c0 12 -7 16 -17 16z" />
    <glyph glyph-name="tcommaaccent" unicode="&#x163;" horiz-adv-x="359" 
d="M77 142v255h-55v68l55 35l68 120h68v-120h122v-103h-122v-234c0 -41 8 -62 47 -62c11 0 38 7 54 13l25 -105c-32 -12 -88 -19 -113 -19c-109 0 -149 48 -149 152zM178 -158c-33 0 -52 29 -52 57s19 66 68 66c56 0 88 -49 88 -94c0 -87 -65 -145 -125 -177l-36 48
c41 27 74 65 74 84c0 12 -7 16 -17 16z" />
    <glyph glyph-name="uni021B" unicode="&#x21b;" horiz-adv-x="359" 
d="M77 142v255h-55v68l55 35l68 120h68v-120h122v-103h-122v-234c0 -41 8 -62 47 -62c11 0 38 7 54 13l25 -105c-32 -12 -88 -19 -113 -19c-109 0 -149 48 -149 152zM178 -158c-33 0 -52 29 -52 57s19 66 68 66c56 0 88 -49 88 -94c0 -87 -65 -145 -125 -177l-36 48
c41 27 74 65 74 84c0 12 -7 16 -17 16z" />
    <glyph glyph-name="ubreve" unicode="&#x16d;" horiz-adv-x="518" 
d="M475 0h-127l-9 86h-2c-34 -68 -90 -96 -145 -96c-90 0 -149 67 -149 168v342h136v-312c0 -53 30 -79 71 -79c40 0 89 37 89 123v268h136v-500zM259 552c-106 0 -145 85 -145 158h87c1 -36 17 -70 58 -70s57 34 58 70h87c0 -73 -39 -158 -145 -158z" />
    <glyph glyph-name="uhungarumlaut" unicode="&#x171;" horiz-adv-x="518" 
d="M475 0h-127l-9 86h-2c-34 -68 -90 -96 -145 -96c-90 0 -149 67 -149 168v342h136v-312c0 -53 30 -79 71 -79c40 0 89 37 89 123v268h136v-500zM256 699l41 -78l-160 -79l-29 53zM456 699l41 -78l-160 -79l-29 53z" />
    <glyph glyph-name="umacron" unicode="&#x16b;" horiz-adv-x="518" 
d="M475 0h-127l-9 86h-2c-34 -68 -90 -96 -145 -96c-90 0 -149 67 -149 168v342h136v-312c0 -53 30 -79 71 -79c40 0 89 37 89 123v268h136v-500zM120 661h278v-83h-278v83z" />
    <glyph glyph-name="uogonek" unicode="&#x173;" horiz-adv-x="518" 
d="M348 0l-9 86h-2c-34 -68 -90 -96 -145 -96c-90 0 -149 67 -149 168v342h136v-312c0 -53 30 -79 71 -79c40 0 89 37 89 123v268h136v-500h-31c-27 -23 -55 -64 -55 -96c0 -23 16 -38 38 -38c12 0 28 4 40 11l19 -48c-23 -17 -59 -29 -88 -29c-59 0 -94 34 -94 81
c0 44 29 86 80 119h-36z" />
    <glyph glyph-name="uring" unicode="&#x16f;" horiz-adv-x="518" 
d="M475 0h-127l-9 86h-2c-34 -68 -90 -96 -145 -96c-90 0 -149 67 -149 168v342h136v-312c0 -53 30 -79 71 -79c40 0 89 37 89 123v268h136v-500zM168 627c0 51 36 88 91 88c54 0 91 -37 91 -88s-37 -87 -91 -87s-91 36 -91 87zM216 627c0 -29 21 -42 43 -42s43 13 43 42
c0 30 -21 43 -43 43s-43 -13 -43 -43z" />
    <glyph glyph-name="utilde" unicode="&#x169;" horiz-adv-x="518" 
d="M475 0h-127l-9 86h-2c-34 -68 -90 -96 -145 -96c-90 0 -149 67 -149 168v342h136v-312c0 -53 30 -79 71 -79c40 0 89 37 89 123v268h136v-500zM137 548l-66 33c23 65 53 115 115 115c61 0 109 -51 142 -51c23 0 36 25 49 52l70 -41c-27 -74 -62 -107 -107 -107
c-57 0 -111 51 -146 51c-30 0 -43 -26 -57 -52z" />
    <glyph glyph-name="wacute" unicode="&#x1e83;" horiz-adv-x="768" 
d="M385 239h-2l-50 -244h-185l-137 505h153l83 -353h2l58 353h154l58 -353h2l83 353h153l-137 -505h-185zM510 694l40 -94l-178 -61l-29 53z" />
    <glyph glyph-name="wcircumflex" unicode="&#x175;" horiz-adv-x="768" 
d="M385 239h-2l-50 -244h-185l-137 505h153l83 -353h2l58 353h154l58 -353h2l83 353h153l-137 -505h-185zM385 630l-67 -80h-92l117 176h84l117 -176h-92z" />
    <glyph glyph-name="wdieresis" unicode="&#x1e85;" horiz-adv-x="768" 
d="M385 239h-2l-50 -244h-185l-137 505h153l83 -353h2l58 353h154l58 -353h2l83 353h153l-137 -505h-185zM213 637c0 40 32 64 71 64c40 0 72 -24 72 -64s-32 -64 -72 -64c-39 0 -71 24 -71 64zM411 637c0 40 32 64 72 64c39 0 71 -24 71 -64s-32 -64 -71 -64
c-40 0 -72 24 -72 64z" />
    <glyph glyph-name="wgrave" unicode="&#x1e81;" horiz-adv-x="768" 
d="M385 239h-2l-50 -244h-185l-137 505h153l83 -353h2l58 353h154l58 -353h2l83 353h153l-137 -505h-185zM236 602l40 94l167 -102l-29 -53z" />
    <glyph glyph-name="ycircumflex" unicode="&#x177;" horiz-adv-x="526" 
d="M177 -7l-166 507h153l107 -361h2l93 361h149l-154 -481c-55 -173 -147 -219 -256 -219c-26 0 -61 4 -86 9l13 116c14 -3 33 -5 42 -5c38 0 89 17 103 73zM264 630l-67 -80h-92l117 176h84l117 -176h-92z" />
    <glyph glyph-name="ygrave" unicode="&#x1ef3;" horiz-adv-x="526" 
d="M177 -7l-166 507h153l107 -361h2l93 361h149l-154 -481c-55 -173 -147 -219 -256 -219c-26 0 -61 4 -86 9l13 116c14 -3 33 -5 42 -5c38 0 89 17 103 73zM93 602l40 94l167 -102l-29 -53z" />
    <glyph glyph-name="zacute" unicode="&#x17a;" horiz-adv-x="448" 
d="M412 500v-103l-212 -284v-2h230l-13 -111h-391v103l216 284v2h-201l4 111h367zM347 696l40 -94l-178 -61l-29 53z" />
    <glyph glyph-name="zdotaccent" unicode="&#x17c;" horiz-adv-x="448" 
d="M412 500v-103l-212 -284v-2h230l-13 -111h-391v103l216 284v2h-201l4 111h367zM167 637c0 36 28 58 65 58c35 0 64 -22 64 -58c0 -37 -29 -59 -64 -59c-37 0 -65 22 -65 59z" />
    <glyph glyph-name="asuperior" horiz-adv-x="327" 
d="M197 412l-1 7h-1c-22 -31 -51 -45 -86 -45c-52 0 -85 33 -85 79c0 61 50 84 107 99l65 15v16c0 20 -17 36 -46 36c-25 0 -56 -9 -86 -24l-25 59c39 23 91 32 125 32c72 0 113 -40 113 -97v-129c0 -12 4 -18 26 -21l-8 -64c-78 0 -91 13 -98 37zM196 507v10l-59 -15
c-16 -5 -31 -12 -31 -34s18 -30 33 -30c34 0 57 33 57 69z" />
    <glyph glyph-name="bsuperior" horiz-adv-x="318" 
d="M24 795l61 11h21v-169h1c12 30 41 49 74 49c73 0 113 -71 113 -156s-44 -156 -120 -156c-25 0 -49 10 -67 33h-1l-21 -27h-61v415zM210 530c0 48 -16 87 -56 87c-29 0 -48 -23 -48 -58v-100c7 -7 24 -16 46 -16c42 0 58 39 58 87z" />
    <glyph glyph-name="dsuperior" horiz-adv-x="318" 
d="M212 795l62 11h20v-426h-76l-6 43h-1c-12 -30 -41 -49 -74 -49c-73 0 -113 71 -113 156s44 156 120 156c25 0 49 -10 67 -33h1v142zM108 530c0 -48 16 -87 56 -87c29 0 48 23 48 58v100c-7 7 -24 16 -46 16c-42 0 -58 -39 -58 -87z" />
    <glyph glyph-name="esuperior" horiz-adv-x="316" 
d="M170 686c109 0 132 -81 117 -175h-177c3 -42 32 -70 73 -70c25 0 54 7 76 18l23 -58c-39 -21 -79 -27 -112 -27c-91 0 -146 67 -146 156s50 156 146 156zM170 619c-34 0 -56 -22 -59 -55h101c4 27 -7 55 -42 55z" />
    <glyph glyph-name="h.superior" horiz-adv-x="307" 
d="M24 795l61 11h21v-178h1c20 41 53 58 87 58c54 0 89 -40 89 -101v-205h-81v187c0 32 -18 48 -43 48c-24 0 -53 -23 -53 -74v-161h-82v415z" />
    <glyph glyph-name="isuperior" horiz-adv-x="142" 
d="M30 675l61 11h21v-306h-82v295zM24 765c0 26 21 42 47 42s47 -16 47 -42c0 -27 -21 -43 -47 -43s-47 16 -47 43z" />
    <glyph glyph-name="lsuperior" horiz-adv-x="130" 
d="M24 795l61 11h21v-426h-82v415z" />
    <glyph glyph-name="msuperior" horiz-adv-x="485" 
d="M283 542v-162h-81v187c0 32 -18 48 -43 48c-24 0 -53 -23 -53 -74v-161h-82v295l61 11h21v-58h1c20 41 53 58 87 58c41 0 71 -23 83 -62h2c21 40 59 62 92 62c54 0 90 -40 90 -101v-205h-82v187c0 32 -18 48 -42 48s-54 -22 -54 -73z" />
    <glyph glyph-name="nsuperior" unicode="&#x207f;" horiz-adv-x="307" 
d="M24 675l61 11h21v-58h1c20 41 53 58 87 58c54 0 89 -40 89 -101v-205h-81v187c0 32 -18 48 -43 48c-24 0 -53 -23 -53 -74v-161h-82v295z" />
    <glyph glyph-name="osuperior" horiz-adv-x="332" 
d="M166 617c-39 0 -58 -34 -58 -87s19 -87 58 -87c40 0 58 34 58 87s-18 87 -58 87zM166 374c-91 0 -142 67 -142 156s51 156 142 156s142 -67 142 -156s-51 -156 -142 -156z" />
    <glyph glyph-name="rsuperior" horiz-adv-x="224" 
d="M24 675l61 11h21v-68h1c22 50 52 68 93 68l-5 -82c-53 0 -89 -18 -89 -66v-158h-82v295z" />
    <glyph glyph-name="ssuperior" horiz-adv-x="273" 
d="M28 600c0 60 55 86 113 86c31 0 71 -6 99 -15l-5 -64c-42 13 -75 15 -93 15c-20 0 -29 -8 -29 -19c0 -14 16 -23 40 -32c39 -16 96 -35 96 -103c0 -59 -47 -94 -114 -94c-45 0 -71 6 -103 15l-8 62c45 -11 88 -13 109 -13c20 0 32 10 32 22c0 14 -12 23 -37 32
c-38 17 -100 39 -100 108z" />
    <glyph glyph-name="tsuperior" horiz-adv-x="238" 
d="M57 465v153h-33v41l33 21l41 72h41v-72h73v-62h-73v-141c0 -24 4 -36 28 -36c7 0 23 4 32 8l15 -64c-19 -7 -53 -11 -68 -11c-65 0 -89 29 -89 91z" />
    <glyph glyph-name="Ethsmall" horiz-adv-x="564" 
d="M0 330h53v214h219c189 0 249 -120 249 -268s-60 -276 -249 -276h-219v215h-53v115zM268 422h-67v-92h71v-115h-71v-93h67c79 0 97 71 97 154s-18 146 -97 146z" />
    <glyph glyph-name="Thornsmall" horiz-adv-x="519" 
d="M291 83h-90v-83h-148v544h148v-104h90c115 0 192 -68 192 -176s-77 -181 -192 -181zM201 318v-112h60c32 0 66 10 66 56c0 41 -33 56 -66 56h-60z" />
    <glyph glyph-name="Eng" unicode="&#x14a;" horiz-adv-x="631" 
d="M207 381h-2v-381h-152v680h152l219 -381h2v381h152v-644c0 -94 -43 -197 -198 -236l-47 99c60 26 83 67 90 107z" />
    <glyph glyph-name="Eng.small" horiz-adv-x="566" 
d="M288 -65c46 17 65 46 72 71l-157 250h-2v-256h-148v544h148l162 -256h2v256h148v-512c0 -75 -37 -160 -180 -192z" />
    <glyph glyph-name="eng" unicode="&#x14b;" horiz-adv-x="518" 
d="M339 0v312c0 53 -30 79 -71 79c-40 0 -89 -37 -89 -123v-268h-136v492l102 18h34v-96h2c34 68 90 96 145 96c90 0 149 -67 149 -168v-302c0 -95 -14 -208 -190 -240l-39 102c76 31 93 52 93 98z" />
    <glyph glyph-name="zero.slash" horiz-adv-x="577" 
d="M288 -10c-189 0 -251 161 -251 355c0 193 62 345 251 345c188 0 252 -152 252 -345c0 -194 -64 -355 -252 -355zM288 575c-78 0 -107 -99 -107 -230c0 -44 3 -85 10 -120l177 291c-18 37 -44 59 -80 59zM396 345c0 39 -3 76 -9 108l-176 -291c17 -35 42 -57 77 -57
c77 0 108 109 108 240z" />
    <glyph glyph-name="franc" unicode="&#x20a3;" horiz-adv-x="674" 
d="M32 437h66c27 147 122 253 300 253c74 0 139 -12 224 -50l-39 -120c-71 31 -114 46 -169 46c-77 0 -129 -51 -152 -129h160v-51h-170c-2 -15 -3 -30 -3 -46c0 -15 0 -30 2 -43h171v-51h-163c22 -87 77 -128 139 -128c59 0 102 36 134 94l110 -64
c-60 -135 -176 -158 -252 -158c-173 0 -267 107 -293 256h-65v51h58c-1 14 -1 28 -1 43s1 31 2 46h-59v51z" />
    <glyph glyph-name="lira" unicode="&#x20a4;" horiz-adv-x="674" 
d="M32 437h66c27 147 122 253 300 253c74 0 139 -12 224 -50l-39 -120c-71 31 -114 46 -169 46c-77 0 -129 -51 -152 -129h160v-51h-170c-2 -15 -3 -30 -3 -46c0 -15 0 -30 2 -43h171v-51h-163c22 -87 77 -128 139 -128c59 0 102 36 134 94l110 -64
c-60 -135 -176 -158 -252 -158c-173 0 -267 107 -293 256h-65v51h58c-1 14 -1 28 -1 43s1 31 2 46h-59v51z" />
    <glyph glyph-name="peseta" unicode="&#x20a7;" horiz-adv-x="674" 
d="M32 437h66c27 147 122 253 300 253c74 0 139 -12 224 -50l-39 -120c-71 31 -114 46 -169 46c-77 0 -129 -51 -152 -129h160v-51h-170c-2 -15 -3 -30 -3 -46c0 -15 0 -30 2 -43h171v-51h-163c22 -87 77 -128 139 -128c59 0 102 36 134 94l110 -64
c-60 -135 -176 -158 -252 -158c-173 0 -267 107 -293 256h-65v51h58c-1 14 -1 28 -1 43s1 31 2 46h-59v51z" />
    <glyph glyph-name="colonmonetary" unicode="&#x20a1;" horiz-adv-x="628" 
d="M43 340c0 173 74 314 241 344v66h40v-61c9 0 18 1 28 1c13 0 25 0 38 -1v61h40v-66c45 -6 91 -20 146 -44l-39 -120c-43 18 -76 31 -107 39v-416c22 16 40 40 56 69l110 -64c-40 -90 -105 -130 -166 -147v-71h-40v63c-17 -2 -32 -3 -46 -3c-7 0 -14 0 -20 1v-61h-40v65
c-165 27 -241 170 -241 345zM352 118c13 0 26 2 38 5v442c-7 0 -15 1 -22 1c-16 0 -31 -3 -44 -7v-438c9 -2 18 -3 28 -3zM203 340c0 -107 33 -173 81 -203v403c-53 -37 -81 -111 -81 -200z" />
    <glyph glyph-name="rupiah" unicode="&#xf6dd;" horiz-adv-x="1116" 
d="M633 492l102 18h34v-82h2c21 51 68 82 124 82c121 0 188 -118 188 -260s-74 -260 -200 -260c-42 0 -82 16 -112 55h-2v-245h-136v200h-207l-105 202c-22 44 -35 54 -68 54h-48v-256h-152v680h273c131 0 218 -77 218 -206c0 -91 -61 -157 -144 -175v-4
c47 -23 79 -62 104 -110l42 -82h87v389zM943 250c0 80 -27 145 -93 145c-49 0 -81 -39 -81 -97v-166c13 -12 41 -27 77 -27c70 0 97 65 97 145zM205 552v-176h89c47 0 90 23 90 90c0 66 -42 86 -89 86h-90z" />
    <glyph glyph-name="zero.fitted" 
d="M299 575c-77 0 -106 -99 -106 -230s29 -240 106 -240s108 109 108 240s-31 230 -108 230zM299 -10c-189 0 -250 161 -250 355c0 193 61 345 250 345s252 -152 252 -345c0 -194 -63 -355 -252 -355z" />
    <glyph glyph-name="one.fitted" 
d="M87 0v111h151v432l-138 -34l-21 112l203 64h92v-574h151v-111h-438z" />
    <glyph glyph-name="two.fitted" 
d="M256 563c-38 0 -76 -10 -135 -35l-42 113c76 34 131 49 210 49c142 0 212 -91 212 -208c0 -140 -99 -240 -237 -352v-2h263l-17 -128h-437v130c226 160 284 256 284 328c0 93 -65 105 -101 105z" />
    <glyph glyph-name="three.fitted" 
d="M402 367v-2c83 -26 127 -98 127 -172c0 -127 -96 -203 -242 -203c-79 0 -140 11 -217 49l40 108c60 -28 111 -38 167 -38c77 0 104 51 104 88c0 60 -44 95 -113 95h-79v120h71c85 0 105 41 105 84c0 38 -27 75 -89 75c-53 0 -93 -11 -154 -39l-40 109
c78 38 150 49 221 49c107 0 202 -58 202 -169c0 -74 -40 -126 -103 -154z" />
    <glyph glyph-name="four.fitted" 
d="M190 261h151v230h-2c-43 -84 -105 -176 -149 -230zM317 685h160v-424h74v-128h-74v-133h-136v133h-292v127c99 120 204 265 268 425z" />
    <glyph glyph-name="five.fitted" 
d="M285 -10c-72 0 -135 12 -212 50l44 112c64 -29 102 -43 155 -43c74 0 106 36 106 87c0 60 -58 123 -217 151l-53 9l10 324h367v-128h-241l-3 -96l43 -11c111 -26 242 -100 242 -244c0 -120 -92 -211 -241 -211z" />
    <glyph glyph-name="six.fitted" 
d="M206 374l2 -1c22 30 80 56 128 56c116 0 199 -81 199 -216c0 -144 -100 -223 -228 -223c-166 0 -242 138 -242 298c0 305 283 394 404 412l22 -105c-127 -30 -250 -101 -285 -221zM212 263c-8 -75 17 -158 92 -158c44 0 87 31 87 104c0 50 -25 95 -91 95
c-32 0 -68 -17 -88 -41z" />
    <glyph glyph-name="seven.fitted" 
d="M356 550v2h-259v128h405v-102c-90 -164 -157 -331 -193 -578h-152c27 175 104 392 199 550z" />
    <glyph glyph-name="eight.fitted" 
d="M374 504c0 52 -38 79 -81 79c-42 0 -76 -29 -76 -72c0 -46 36 -80 98 -103c35 25 59 56 59 96zM392 175c0 56 -59 86 -120 110c-45 -22 -73 -62 -73 -99c0 -57 44 -89 99 -89c62 0 94 36 94 78zM540 177c0 -118 -107 -187 -251 -187c-122 0 -230 56 -230 174
c0 71 25 124 115 176c-70 48 -95 104 -95 167c0 113 105 183 218 183c117 0 213 -71 213 -174c0 -65 -31 -116 -96 -161c84 -42 126 -101 126 -178z" />
    <glyph glyph-name="nine.fitted" 
d="M393 306l-1 1c-23 -30 -81 -56 -129 -56c-116 0 -198 81 -198 216c0 144 99 223 227 223c167 0 243 -138 243 -298c0 -305 -284 -394 -405 -412l-21 105c126 30 249 101 284 221zM387 417c8 75 -17 158 -91 158c-45 0 -87 -31 -87 -104c0 -50 25 -95 90 -95
c32 0 69 17 88 41z" />
    <glyph glyph-name="zerooldstyle" horiz-adv-x="577" 
d="M288 395c-78 0 -107 -47 -107 -140s29 -150 107 -150c77 0 108 57 108 150s-31 140 -108 140zM288 -10c-173 0 -251 111 -251 265c0 153 78 255 251 255c172 0 252 -102 252 -255c0 -154 -80 -265 -252 -265z" />
    <glyph glyph-name="oneoldstyle" horiz-adv-x="351" 
d="M147 363l-116 -24l-21 112l181 54h92v-505h-136v363z" />
    <glyph glyph-name="twooldstyle" horiz-adv-x="512" 
d="M209 383c-38 0 -76 -10 -135 -35l-42 113c76 34 131 49 210 49c140 0 212 -71 212 -170c0 -136 -128 -181 -207 -210v-2h233l-17 -128h-437v130c127 45 284 99 284 180c0 66 -65 73 -101 73z" />
    <glyph glyph-name="threeoldstyle" horiz-adv-x="522" 
d="M358 187v-2c83 -26 127 -98 127 -172c0 -127 -96 -203 -242 -203c-79 0 -140 11 -217 49l40 108c60 -28 111 -38 167 -38c77 0 104 51 104 88c0 60 -44 95 -113 95h-79v120h71c85 0 105 41 105 84c0 38 -27 75 -89 75c-53 0 -93 -11 -154 -39l-40 109
c78 38 150 49 221 49c107 0 202 -58 202 -169c0 -74 -40 -126 -103 -154z" />
    <glyph glyph-name="fouroldstyle" horiz-adv-x="556" 
d="M179 128h135v183h-2c-43 -73 -83 -133 -133 -183zM290 505h160v-377h74v-128h-74v-180h-136v180h-292v127c66 73 204 218 268 378z" />
    <glyph glyph-name="fiveoldstyle" horiz-adv-x="521" 
d="M242 -190c-71 0 -134 12 -211 50l44 112c63 -29 101 -43 154 -43c75 0 107 36 107 87c0 60 -58 123 -217 151l-54 9l11 324h367v-128h-241l-4 -96l44 -11c111 -26 242 -100 242 -244c0 -120 -93 -211 -242 -211z" />
    <glyph glyph-name="sixoldstyle" horiz-adv-x="544" 
d="M178 374l2 -1c22 30 80 56 129 56c116 0 198 -81 198 -216c0 -144 -99 -223 -227 -223c-167 0 -243 138 -243 298c0 305 284 394 405 412l21 -105c-126 -30 -249 -101 -285 -221zM184 263c-8 -75 17 -158 92 -158c45 0 87 31 87 104c0 50 -25 95 -90 95
c-33 0 -69 -17 -89 -41z" />
    <glyph glyph-name="sevenoldstyle" horiz-adv-x="447" 
d="M285 370v2h-259v128h405v-102c-90 -164 -157 -331 -193 -578h-153c27 175 105 392 200 550z" />
    <glyph glyph-name="eightoldstyle" horiz-adv-x="555" 
d="M352 504c0 52 -38 79 -81 79c-42 0 -76 -29 -76 -72c0 -46 36 -80 98 -103c35 25 59 56 59 96zM370 175c0 56 -59 86 -120 110c-45 -22 -73 -62 -73 -99c0 -57 44 -89 99 -89c62 0 94 36 94 78zM518 177c0 -118 -107 -187 -251 -187c-122 0 -230 56 -230 174
c0 71 25 124 115 176c-70 48 -95 104 -95 167c0 113 105 183 218 183c117 0 213 -71 213 -174c0 -65 -31 -116 -96 -161c84 -42 126 -101 126 -178z" />
    <glyph glyph-name="nineoldstyle" horiz-adv-x="544" 
d="M366 126l-2 1c-22 -30 -80 -56 -129 -56c-116 0 -198 81 -198 216c0 144 99 223 227 223c167 0 243 -138 243 -298c0 -305 -284 -394 -405 -412l-21 105c126 30 249 101 285 221zM360 237c8 75 -17 158 -92 158c-45 0 -87 -31 -87 -104c0 -50 25 -95 90 -95
c33 0 69 17 89 41z" />
    <glyph glyph-name="centoldstyle" 
d="M348 -86h-34v78c-173 4 -255 126 -255 280c0 152 79 273 255 280v78h34v-78c55 -2 107 -12 176 -40l-38 -114c-59 23 -93 35 -138 36v-318c37 7 64 34 86 70l107 -62c-46 -102 -130 -126 -193 -131v-79zM215 272c0 -108 49 -151 99 -157v315c-61 -15 -99 -76 -99 -158z
" />
    <glyph glyph-name="dollaroldstyle" horiz-adv-x="556" 
d="M296 -86h-34v78c-64 1 -124 10 -190 32l-12 128c81 -24 146 -46 201 -46c50 0 81 12 81 40c0 81 -281 65 -281 246c0 104 91 155 201 159v79h34v-79c59 -2 119 -14 187 -39l-38 -114c-60 20 -108 40 -166 40c-46 0 -63 -13 -63 -33c0 -65 281 -65 281 -245
c0 -98 -90 -158 -201 -167v-79z" />
    <glyph glyph-name="zero.taboldstyle" 
d="M299 395c-77 0 -106 -47 -106 -140s29 -150 106 -150s108 57 108 150s-31 140 -108 140zM299 -10c-173 0 -250 111 -250 265c0 153 77 255 250 255s252 -102 252 -255c0 -154 -79 -265 -252 -265z" />
    <glyph glyph-name="one.taboldstyle" 
d="M87 0v111h151v252l-138 -34l-21 112l203 64h92v-394h151v-111h-438z" />
    <glyph glyph-name="two.taboldstyle" 
d="M256 383c-38 0 -76 -10 -135 -35l-42 113c76 34 131 49 210 49c140 0 212 -71 212 -170c0 -136 -128 -181 -207 -210v-2h233l-17 -128h-437v130c127 45 284 99 284 180c0 66 -65 73 -101 73z" />
    <glyph glyph-name="three.taboldstyle" 
d="M402 187v-2c83 -26 127 -98 127 -172c0 -127 -96 -203 -242 -203c-79 0 -140 11 -217 49l40 108c60 -28 111 -38 167 -38c77 0 104 51 104 88c0 60 -44 95 -113 95h-79v120h71c85 0 105 41 105 84c0 38 -27 75 -89 75c-53 0 -93 -11 -154 -39l-40 109
c78 38 150 49 221 49c107 0 202 -58 202 -169c0 -74 -40 -126 -103 -154z" />
    <glyph glyph-name="four.taboldstyle" 
d="M206 128h135v183h-2c-43 -73 -83 -133 -133 -183zM317 505h160v-377h74v-128h-74v-180h-136v180h-292v127c66 73 204 218 268 378z" />
    <glyph glyph-name="five.taboldstyle" 
d="M285 -190c-72 0 -135 12 -212 50l44 112c64 -29 102 -43 155 -43c74 0 106 36 106 87c0 60 -58 123 -217 151l-53 9l10 324h367v-128h-241l-3 -96l43 -11c111 -26 242 -100 242 -244c0 -120 -92 -211 -241 -211z" />
    <glyph glyph-name="six.taboldstyle" 
d="M206 374l2 -1c22 30 80 56 128 56c116 0 199 -81 199 -216c0 -144 -100 -223 -228 -223c-166 0 -242 138 -242 298c0 305 283 394 404 412l22 -105c-127 -30 -250 -101 -285 -221zM212 263c-8 -75 17 -158 92 -158c44 0 87 31 87 104c0 50 -25 95 -91 95
c-32 0 -68 -17 -88 -41z" />
    <glyph glyph-name="seven.taboldstyle" 
d="M356 370v2h-259v128h405v-102c-90 -164 -157 -331 -193 -578h-152c27 175 104 392 199 550z" />
    <glyph glyph-name="eight.taboldstyle" 
d="M374 504c0 52 -38 79 -81 79c-42 0 -76 -29 -76 -72c0 -46 36 -80 98 -103c35 25 59 56 59 96zM392 175c0 56 -59 86 -120 110c-45 -22 -73 -62 -73 -99c0 -57 44 -89 99 -89c62 0 94 36 94 78zM540 177c0 -118 -107 -187 -251 -187c-122 0 -230 56 -230 174
c0 71 25 124 115 176c-70 48 -95 104 -95 167c0 113 105 183 218 183c117 0 213 -71 213 -174c0 -65 -31 -116 -96 -161c84 -42 126 -101 126 -178z" />
    <glyph glyph-name="nine.taboldstyle" 
d="M393 126l-1 1c-23 -30 -81 -56 -129 -56c-116 0 -198 81 -198 216c0 144 99 223 227 223c167 0 243 -138 243 -298c0 -305 -284 -394 -405 -412l-21 105c126 30 249 101 284 221zM387 237c8 75 -17 158 -91 158c-45 0 -87 -31 -87 -104c0 -50 25 -95 90 -95
c32 0 69 17 88 41z" />
    <glyph glyph-name="currency.taboldstyle" horiz-adv-x="484" 
d="M93 249c0 45 17 85 46 114l-74 90l7 8l76 -90c25 22 58 36 95 36c35 0 68 -14 94 -36l74 90l8 -8l-74 -89c30 -29 48 -70 48 -115s-18 -86 -47 -114l72 -86l-8 -9l-73 87c-26 -22 -59 -35 -94 -35c-37 0 -70 13 -95 35l-73 -87l-8 9l72 86c-29 29 -46 69 -46 114z
M105 249c0 -79 62 -145 138 -145c75 0 138 66 138 145s-63 146 -138 146c-76 0 -138 -67 -138 -146z" />
    <glyph glyph-name="cent.taboldstyle" 
d="M59 272c0 152 79 273 255 280v78h34v-78c55 -2 107 -12 176 -40l-38 -114c-59 23 -93 35 -138 36v-318c37 7 64 34 86 70l107 -62c-46 -102 -130 -126 -193 -131v-79h-34v78c-173 4 -255 126 -255 280zM215 272c0 -108 49 -151 99 -157v315c-61 -15 -99 -76 -99 -158z
" />
    <glyph glyph-name="dollar.taboldstyle" horiz-adv-x="556" 
d="M296 -86h-34v78c-64 1 -124 10 -190 32l-12 128c81 -24 146 -46 201 -46c50 0 81 12 81 40c0 81 -281 65 -281 246c0 104 91 155 201 159v79h34v-79c59 -2 119 -14 187 -39l-38 -114c-60 20 -108 40 -166 40c-46 0 -63 -13 -63 -33c0 -65 281 -65 281 -245
c0 -98 -90 -158 -201 -167v-79z" />
    <glyph glyph-name="Euro.taboldstyle" 
d="M35 352h55c25 116 109 200 262 200c64 0 119 -8 195 -40l-37 -114c-60 24 -94 36 -141 36c-55 0 -96 -32 -117 -82h122v-44h-133c-2 -12 -3 -24 -3 -36s0 -22 1 -32h135v-44h-126c20 -61 63 -82 104 -82c48 0 80 30 105 72l107 -62c-53 -117 -156 -132 -220 -132
c-148 0 -231 85 -255 204h-54v44h48c-1 10 -1 21 -1 32c0 12 0 24 1 36h-48v44z" />
    <glyph glyph-name="franc.taboldstyle" 
d="M35 240h48c-1 10 -1 21 -1 32c0 12 0 24 1 36h-48v44h55c25 116 109 200 262 200c64 0 119 -8 195 -40l-37 -114c-60 24 -94 36 -141 36c-55 0 -96 -32 -117 -82h122v-44h-133c-2 -12 -3 -24 -3 -36s0 -22 1 -32h135v-44h-126c20 -61 63 -82 104 -82c48 0 80 30 105 72
l107 -62c-53 -117 -156 -132 -220 -132c-148 0 -231 85 -255 204h-54v44z" />
    <glyph glyph-name="sterling.taboldstyle" 
d="M91 288h40c-9 36 -18 72 -18 104c0 108 93 160 199 160c60 0 122 -12 193 -40l-37 -114c-55 20 -94 36 -148 36c-27 0 -51 -10 -51 -43c0 -25 18 -61 26 -103h90v-44h-85c-1 -39 -15 -80 -61 -121v-1h270l-16 -122h-402v122c38 17 53 46 53 81c0 13 -1 27 -4 41h-49v44z
" />
    <glyph glyph-name="yen.taboldstyle" 
d="M149 176h77v8l-170 360h164l79 -185h2l79 185h164l-170 -360v-8h77v-44h-77v-132h-148v132h-77v44z" />
    <glyph glyph-name="lira.taboldstyle" 
d="M35 240h48c-1 10 -1 21 -1 32c0 12 0 24 1 36h-48v44h55c25 116 109 200 262 200c64 0 119 -8 195 -40l-37 -114c-60 24 -94 36 -141 36c-55 0 -96 -32 -117 -82h122v-44h-133c-2 -12 -3 -24 -3 -36s0 -22 1 -32h135v-44h-126c20 -61 63 -82 104 -82c48 0 80 30 105 72
l107 -62c-53 -117 -156 -132 -220 -132c-148 0 -231 85 -255 204h-54v44z" />
    <glyph glyph-name="peseta.taboldstyle" 
d="M35 240h48c-1 10 -1 21 -1 32c0 12 0 24 1 36h-48v44h55c25 116 109 200 262 200c64 0 119 -8 195 -40l-37 -114c-60 24 -94 36 -141 36c-55 0 -96 -32 -117 -82h122v-44h-133c-2 -12 -3 -24 -3 -36s0 -22 1 -32h135v-44h-126c20 -61 63 -82 104 -82c48 0 80 30 105 72
l107 -62c-53 -117 -156 -132 -220 -132c-148 0 -231 85 -255 204h-54v44z" />
    <glyph glyph-name="colonmonetary.taboldstyle" 
d="M296 -86h-34v83c-138 24 -203 137 -203 275c0 136 63 247 203 274v84h34v-80c10 1 21 2 33 2c10 0 19 0 29 -1v79h34v-81c40 -5 81 -16 132 -37l-37 -114c-60 24 -94 36 -141 36c-80 0 -131 -67 -131 -162c0 -119 59 -158 114 -158c48 0 80 30 105 72l107 -62
c-36 -79 -95 -112 -149 -124v-86h-34v80c-13 -1 -26 -2 -37 -2c-9 0 -17 1 -25 1v-79z" />
    <glyph glyph-name="florin.taboldstyle" 
d="M392 397l-77 -437c-18 -104 -75 -160 -182 -160c-25 0 -72 7 -103 19l30 105c19 -7 41 -13 63 -13c38 0 51 21 58 62l75 424h-55l12 68l61 35l9 50c19 104 75 160 184 160c25 0 72 -7 103 -19l-30 -105c-19 7 -42 13 -63 13c-40 0 -53 -21 -60 -62l-7 -37h106l-18 -103
h-106z" />
    <glyph glyph-name="numbersign.taboldstyle" 
d="M75 238h112v54h-112v86h112v112h86v-112h54v112h86v-112h112v-86h-112v-54h112v-86h-112v-112h-86v112h-54v-112h-86v112h-112v86zM273 292v-54h54v54h-54z" />
    <glyph glyph-name="zerosuperior" unicode="&#x2070;" horiz-adv-x="360" 
d="M180 794c-33 0 -46 -44 -46 -106c0 -63 13 -112 46 -112c32 0 46 49 46 112c0 62 -14 106 -46 106zM180 510c-98 0 -130 80 -130 178c0 97 32 172 130 172c97 0 130 -75 130 -172c0 -98 -33 -178 -130 -178z" />
    <glyph glyph-name="foursuperior" unicode="&#x2074;" horiz-adv-x="359" 
d="M131 654h63v92h-1c-18 -35 -45 -72 -62 -92zM181 858h93v-204h35v-73h-35v-66h-80v66h-144v74c49 60 99 123 131 203z" />
    <glyph glyph-name="fivesuperior" unicode="&#x2075;" horiz-adv-x="335" 
d="M159 510c-36 0 -68 5 -109 25l26 65c31 -13 49 -21 76 -21c34 0 46 17 46 36c0 20 -20 53 -105 68l-25 5l5 167h190v-74h-116l-1 -36l21 -5c53 -14 118 -51 118 -122c0 -61 -49 -108 -126 -108z" />
    <glyph glyph-name="sixsuperior" unicode="&#x2076;" horiz-adv-x="342" 
d="M132 706l1 -1c10 13 37 25 59 25c58 0 100 -40 100 -108c0 -72 -51 -112 -118 -112c-83 0 -124 69 -124 150c0 154 147 197 209 205l13 -61c-56 -13 -120 -41 -140 -98zM136 644c-5 -31 6 -68 36 -68c19 0 36 14 36 44c0 21 -11 37 -37 37c-13 0 -27 -6 -35 -13z" />
    <glyph glyph-name="sevensuperior" unicode="&#x2077;" horiz-adv-x="310" 
d="M175 780v1h-125v74h210v-60c-45 -80 -72 -155 -90 -280h-89c13 85 46 186 94 265z" />
    <glyph glyph-name="eightsuperior" unicode="&#x2078;" horiz-adv-x="347" 
d="M202 764c0 23 -15 34 -33 34c-16 0 -30 -12 -30 -31c0 -17 15 -33 41 -43c14 11 22 24 22 40zM210 604c0 24 -28 38 -51 47c-16 -9 -28 -26 -28 -41c0 -25 19 -38 41 -38c26 0 38 16 38 32zM297 604c0 -58 -54 -94 -130 -94c-63 0 -117 27 -117 87c0 36 12 61 52 86
c-33 25 -43 53 -43 84c0 57 54 93 112 93c61 0 111 -36 111 -88c0 -30 -12 -54 -44 -79c39 -20 59 -50 59 -89z" />
    <glyph glyph-name="ninesuperior" unicode="&#x2079;" horiz-adv-x="342" 
d="M209 664l-1 1c-10 -13 -37 -25 -58 -25c-58 0 -100 40 -100 108c0 72 50 112 117 112c84 0 125 -69 125 -150c0 -154 -147 -197 -210 -205l-12 61c57 13 119 41 139 98zM205 726c5 31 -5 68 -36 68c-18 0 -35 -14 -35 -44c0 -21 11 -37 37 -37c12 0 26 6 34 13z" />
    <glyph glyph-name="parenleftsuperior" unicode="&#x207d;" horiz-adv-x="233" 
d="M50 685c0 75 26 148 81 210h52c-40 -71 -54 -138 -54 -210c0 -71 14 -134 54 -210h-52c-55 62 -81 137 -81 210z" />
    <glyph glyph-name="parenrightsuperior" unicode="&#x207e;" horiz-adv-x="233" 
d="M183 685c0 -73 -27 -148 -82 -210h-51c40 76 53 139 53 210c0 72 -13 139 -53 210h51c55 -62 82 -135 82 -210z" />
    <glyph glyph-name="hyphensuperior" horiz-adv-x="275" 
d="M50 680h175v-67h-175v67z" />
    <glyph glyph-name="commasuperior" horiz-adv-x="186" 
d="M79 515c-18 0 -27 16 -27 30c0 15 9 37 37 37s47 -23 47 -49c0 -44 -33 -74 -66 -92l-20 28c19 12 36 32 36 40c0 5 -2 6 -7 6z" />
    <glyph glyph-name="periodsuperior" horiz-adv-x="172" 
d="M50 546c0 20 16 36 36 36s36 -16 36 -36s-16 -36 -36 -36s-36 16 -36 36z" />
    <glyph glyph-name="centsuperior" horiz-adv-x="379" 
d="M217 480h-20v30c-100 2 -147 79 -147 175c0 95 45 170 147 175v30h20v-30c33 -1 63 -7 102 -25l-20 -65c-34 16 -57 23 -82 24v-216c23 4 40 21 54 47l58 -35c-27 -60 -75 -77 -112 -80v-30zM136 685c0 -69 27 -101 61 -106v213c-38 -10 -61 -51 -61 -107z" />
    <glyph glyph-name="dollarsuperior" horiz-adv-x="351" 
d="M186 480h-20v30c-37 0 -70 7 -109 20l-7 71c46 -16 83 -26 116 -26v75c-7 2 -13 5 -20 8c-48 19 -95 49 -95 105c0 62 52 94 115 97v30h20v-30c34 -2 68 -9 108 -24l-21 -63c-33 12 -57 21 -87 22v-62l20 -9c62 -28 95 -61 95 -112c0 -58 -51 -96 -115 -102v-30zM218 605
c0 16 -12 26 -32 36v-65c20 4 32 14 32 29zM134 772c0 -13 14 -22 32 -31v53c-22 -2 -32 -11 -32 -22z" />
    <glyph glyph-name="zeroinferior" unicode="&#x2080;" horiz-adv-x="360" 
d="M180 104c-33 0 -46 -44 -46 -106c0 -63 13 -112 46 -112c32 0 46 49 46 112c0 62 -14 106 -46 106zM180 -180c-98 0 -130 80 -130 178c0 97 32 172 130 172c97 0 130 -75 130 -172c0 -98 -33 -178 -130 -178z" />
    <glyph glyph-name="oneinferior" unicode="&#x2081;" horiz-adv-x="329" 
d="M59 -175v64h70v196l-66 -17l-12 66l102 34h55v-279h71v-64h-220z" />
    <glyph glyph-name="twoinferior" unicode="&#x2082;" horiz-adv-x="334" 
d="M141 96c-18 0 -36 -6 -64 -17l-24 66c39 18 68 25 108 25c73 0 109 -45 109 -105c0 -70 -49 -115 -109 -164v-2h123l-10 -74h-224v75c106 74 136 116 136 151c0 40 -27 45 -45 45z" />
    <glyph glyph-name="threeinferior" unicode="&#x2083;" horiz-adv-x="337" 
d="M224 9v-1c42 -14 63 -50 63 -85c0 -65 -50 -103 -124 -103c-42 0 -71 5 -113 25l24 63c30 -15 56 -19 83 -19c29 0 44 18 44 36c0 27 -20 41 -49 41h-40v69h36c40 0 45 18 45 35c0 18 -14 31 -37 31c-26 0 -45 -6 -77 -19l-23 63c42 20 79 25 116 25
c52 0 102 -28 102 -85c0 -35 -17 -61 -50 -76z" />
    <glyph glyph-name="fourinferior" unicode="&#x2084;" horiz-adv-x="359" 
d="M131 -36h63v92h-1c-18 -35 -45 -72 -62 -92zM181 168h93v-204h35v-73h-35v-66h-80v66h-144v74c49 60 99 123 131 203z" />
    <glyph glyph-name="fiveinferior" unicode="&#x2085;" horiz-adv-x="335" 
d="M159 -180c-36 0 -68 5 -109 25l26 65c31 -13 49 -21 76 -21c34 0 46 17 46 36c0 20 -20 53 -105 68l-25 5l5 167h190v-74h-116l-1 -36l21 -5c53 -14 118 -51 118 -122c0 -61 -49 -108 -126 -108z" />
    <glyph glyph-name="sixinferior" unicode="&#x2086;" horiz-adv-x="342" 
d="M132 16l1 -1c10 13 37 25 59 25c58 0 100 -40 100 -108c0 -72 -51 -112 -118 -112c-83 0 -124 69 -124 150c0 154 147 197 209 205l13 -61c-56 -13 -120 -41 -140 -98zM136 -46c-5 -31 6 -68 36 -68c19 0 36 14 36 44c0 21 -11 37 -37 37c-13 0 -27 -6 -35 -13z" />
    <glyph glyph-name="seveninferior" unicode="&#x2087;" horiz-adv-x="310" 
d="M175 90v1h-125v74h210v-60c-45 -80 -72 -155 -90 -280h-89c13 85 46 186 94 265z" />
    <glyph glyph-name="eightinferior" unicode="&#x2088;" horiz-adv-x="347" 
d="M202 74c0 23 -15 34 -33 34c-16 0 -30 -12 -30 -31c0 -17 15 -33 41 -43c14 11 22 24 22 40zM210 -86c0 24 -28 38 -51 47c-16 -9 -28 -26 -28 -41c0 -25 19 -38 41 -38c26 0 38 16 38 32zM297 -86c0 -58 -54 -94 -130 -94c-63 0 -117 27 -117 87c0 36 12 61 52 86
c-33 25 -43 53 -43 84c0 57 54 93 112 93c61 0 111 -36 111 -88c0 -30 -12 -54 -44 -79c39 -20 59 -50 59 -89z" />
    <glyph glyph-name="nineinferior" unicode="&#x2089;" horiz-adv-x="342" 
d="M209 -26l-1 1c-10 -13 -37 -25 -58 -25c-58 0 -100 40 -100 108c0 72 50 112 117 112c84 0 125 -69 125 -150c0 -154 -147 -197 -210 -205l-12 61c57 13 119 41 139 98zM205 36c5 31 -5 68 -36 68c-18 0 -35 -14 -35 -44c0 -21 11 -37 37 -37c12 0 26 6 34 13z" />
    <glyph glyph-name="parenleftinferior" unicode="&#x208d;" horiz-adv-x="233" 
d="M50 -5c0 75 26 148 81 210h52c-40 -71 -54 -138 -54 -210c0 -71 14 -134 54 -210h-52c-55 62 -81 137 -81 210z" />
    <glyph glyph-name="parenrightinferior" unicode="&#x208e;" horiz-adv-x="233" 
d="M183 -5c0 -73 -27 -148 -82 -210h-51c40 76 53 139 53 210c0 72 -13 139 -53 210h51c55 -62 82 -135 82 -210z" />
    <glyph glyph-name="hypheninferior" horiz-adv-x="275" 
d="M50 -10h175v-67h-175v67z" />
    <glyph glyph-name="commainferior" horiz-adv-x="186" 
d="M79 -175c-18 0 -27 16 -27 30c0 15 9 37 37 37s47 -23 47 -49c0 -44 -33 -74 -66 -92l-20 28c19 12 36 32 36 40c0 5 -2 6 -7 6z" />
    <glyph glyph-name="periodinferior" horiz-adv-x="172" 
d="M50 -144c0 20 16 36 36 36s36 -16 36 -36s-16 -36 -36 -36s-36 16 -36 36z" />
    <glyph glyph-name="centinferior" horiz-adv-x="379" 
d="M217 -210h-20v30c-100 2 -147 80 -147 175s45 170 147 175v30h20v-30c33 -1 63 -7 102 -25l-20 -65c-34 16 -57 23 -82 24v-215c23 4 40 21 54 46l58 -35c-27 -60 -75 -76 -112 -79v-31zM136 -5c0 -69 27 -101 61 -106v213c-38 -10 -61 -51 -61 -107z" />
    <glyph glyph-name="dollarinferior" horiz-adv-x="351" 
d="M186 -210h-20v30c-37 1 -70 8 -109 20l-7 71c46 -16 83 -26 116 -26v76c-6 2 -13 4 -20 7c-48 19 -95 49 -95 105c0 62 52 94 115 97v30h20v-30c34 -2 68 -9 108 -24l-21 -63c-33 12 -57 21 -87 22v-62l20 -9c62 -28 95 -61 95 -112c0 -58 -51 -96 -115 -101v-31z
M218 -85c0 16 -12 27 -32 37v-65c20 3 32 13 32 28zM134 82c0 -13 14 -22 32 -31v53c-22 -2 -32 -11 -32 -22z" />
    <glyph glyph-name="zero.denominator" horiz-adv-x="360" 
d="M180 279c-33 0 -46 -44 -46 -106c0 -63 13 -112 46 -112c32 0 46 49 46 112c0 62 -14 106 -46 106zM180 -5c-98 0 -130 80 -130 178c0 97 32 172 130 172c97 0 130 -75 130 -172c0 -98 -33 -178 -130 -178z" />
    <glyph glyph-name="one.denominator" horiz-adv-x="329" 
d="M59 0v64h70v196l-66 -17l-12 66l102 34h55v-279h71v-64h-220z" />
    <glyph glyph-name="two.denominator" horiz-adv-x="334" 
d="M141 271c-18 0 -36 -6 -64 -17l-24 66c39 18 68 25 108 25c73 0 109 -45 109 -105c0 -70 -49 -115 -109 -164v-2h123l-10 -74h-224v75c106 74 136 116 136 151c0 40 -27 45 -45 45z" />
    <glyph glyph-name="three.denominator" horiz-adv-x="337" 
d="M224 184v-1c42 -14 63 -50 63 -85c0 -65 -50 -103 -124 -103c-42 0 -71 5 -113 25l24 63c30 -15 56 -19 83 -19c29 0 44 18 44 36c0 27 -20 41 -49 41h-40v69h36c40 0 45 18 45 35c0 18 -14 31 -37 31c-26 0 -45 -6 -77 -19l-23 63c42 20 79 25 116 25
c52 0 102 -28 102 -85c0 -35 -17 -61 -50 -76z" />
    <glyph glyph-name="four.denominator" horiz-adv-x="359" 
d="M131 139h63v92h-1c-18 -35 -45 -72 -62 -92zM181 343h93v-204h35v-73h-35v-66h-80v66h-144v74c49 60 99 123 131 203z" />
    <glyph glyph-name="five.denominator" horiz-adv-x="335" 
d="M159 -5c-36 0 -68 5 -109 25l26 65c31 -13 49 -21 76 -21c34 0 46 17 46 36c0 20 -20 53 -105 68l-25 5l5 167h190v-74h-116l-1 -36l21 -5c53 -14 118 -51 118 -122c0 -61 -49 -108 -126 -108z" />
    <glyph glyph-name="six.denominator" horiz-adv-x="342" 
d="M132 191l1 -1c10 13 37 25 59 25c58 0 100 -40 100 -108c0 -72 -51 -112 -118 -112c-83 0 -124 69 -124 150c0 154 147 197 209 205l13 -61c-56 -13 -120 -41 -140 -98zM136 129c-5 -31 6 -68 36 -68c19 0 36 14 36 44c0 21 -11 37 -37 37c-13 0 -27 -6 -35 -13z" />
    <glyph glyph-name="seven.denominator" horiz-adv-x="310" 
d="M175 265v1h-125v74h210v-60c-45 -80 -72 -155 -90 -280h-89c13 85 46 186 94 265z" />
    <glyph glyph-name="eight.denominator" horiz-adv-x="347" 
d="M202 249c0 23 -15 34 -33 34c-16 0 -30 -12 -30 -31c0 -17 15 -33 41 -43c14 11 22 24 22 40zM210 89c0 24 -28 38 -51 47c-16 -9 -28 -26 -28 -41c0 -25 19 -38 41 -38c26 0 38 16 38 32zM297 89c0 -58 -54 -94 -130 -94c-63 0 -117 27 -117 87c0 36 12 61 52 86
c-33 25 -43 53 -43 84c0 57 54 93 112 93c61 0 111 -36 111 -88c0 -30 -12 -54 -44 -79c39 -20 59 -50 59 -89z" />
    <glyph glyph-name="nine.denominator" horiz-adv-x="342" 
d="M209 149l-1 1c-10 -13 -37 -25 -58 -25c-58 0 -100 40 -100 108c0 72 50 112 117 112c84 0 125 -69 125 -150c0 -154 -147 -197 -210 -205l-12 61c57 13 119 41 139 98zM205 211c5 31 -5 68 -36 68c-18 0 -35 -14 -35 -44c0 -21 11 -37 37 -37c12 0 26 6 34 13z" />
    <glyph glyph-name="parenleft.denominator" horiz-adv-x="233" 
d="M50 170c0 75 26 148 81 210h52c-40 -71 -54 -138 -54 -210c0 -71 14 -134 54 -210h-52c-55 62 -81 137 -81 210z" />
    <glyph glyph-name="parenright.denominator" horiz-adv-x="233" 
d="M183 170c0 -73 -27 -148 -82 -210h-51c40 76 53 139 53 210c0 72 -13 139 -53 210h51c55 -62 82 -135 82 -210z" />
    <glyph glyph-name="cent.denominator" horiz-adv-x="379" 
d="M217 -35h-20v30c-100 2 -147 79 -147 175c0 95 45 170 147 175v30h20v-30c33 -1 63 -7 102 -25l-20 -65c-34 16 -57 23 -82 24v-216c23 4 40 21 54 47l58 -35c-27 -60 -75 -76 -112 -79v-31zM136 170c0 -69 27 -101 61 -106v213c-38 -10 -61 -51 -61 -107z" />
    <glyph glyph-name="dollar.denominator" horiz-adv-x="351" 
d="M186 -35h-20v30c-37 1 -70 7 -109 20l-7 71c46 -16 83 -26 116 -26v75c-6 3 -13 5 -20 8c-48 19 -95 49 -95 105c0 62 52 94 115 97v30h20v-30c34 -2 68 -9 108 -24l-21 -63c-33 12 -57 21 -87 22v-62l20 -9c62 -28 95 -61 95 -112c0 -58 -51 -96 -115 -101v-31zM218 90
c0 16 -12 26 -32 36v-65c20 4 32 14 32 29zM134 257c0 -13 14 -22 32 -31v53c-22 -2 -32 -11 -32 -22z" />
    <glyph glyph-name="hyphen.denominator" horiz-adv-x="275" 
d="M50 165h175v-67h-175v67z" />
    <glyph glyph-name="comma.denominator" horiz-adv-x="186" 
d="M79 0c-18 0 -27 16 -27 30c0 15 9 37 37 37s47 -23 47 -49c0 -44 -33 -74 -66 -92l-20 28c19 12 36 32 36 40c0 5 -2 6 -7 6z" />
    <glyph glyph-name="period.denominator" horiz-adv-x="172" 
d="M50 31c0 20 16 36 36 36s36 -16 36 -36s-16 -36 -36 -36s-36 16 -36 36z" />
    <glyph glyph-name="zero.numerator" horiz-adv-x="360" 
d="M180 619c-33 0 -46 -44 -46 -106c0 -63 13 -112 46 -112c32 0 46 49 46 112c0 62 -14 106 -46 106zM180 335c-98 0 -130 80 -130 178c0 97 32 172 130 172c97 0 130 -75 130 -172c0 -98 -33 -178 -130 -178z" />
    <glyph glyph-name="one.numerator" horiz-adv-x="329" 
d="M59 340v64h70v196l-66 -17l-12 66l102 34h55v-279h71v-64h-220z" />
    <glyph glyph-name="two.numerator" horiz-adv-x="334" 
d="M141 611c-18 0 -36 -6 -64 -17l-24 66c39 18 68 25 108 25c73 0 109 -45 109 -105c0 -70 -49 -115 -109 -164v-2h123l-10 -74h-224v75c106 74 136 116 136 151c0 40 -27 45 -45 45z" />
    <glyph glyph-name="three.numerator" horiz-adv-x="337" 
d="M224 524v-1c42 -14 63 -50 63 -85c0 -65 -50 -103 -124 -103c-42 0 -71 5 -113 25l24 63c30 -15 56 -19 83 -19c29 0 44 18 44 36c0 27 -20 41 -49 41h-40v69h36c40 0 45 18 45 35c0 18 -14 31 -37 31c-26 0 -45 -6 -77 -19l-23 63c42 20 79 25 116 25
c52 0 102 -28 102 -85c0 -35 -17 -61 -50 -76z" />
    <glyph glyph-name="four.numerator" horiz-adv-x="359" 
d="M131 479h63v92h-1c-18 -35 -45 -72 -62 -92zM181 683h93v-204h35v-73h-35v-66h-80v66h-144v74c49 60 99 123 131 203z" />
    <glyph glyph-name="five.numerator" horiz-adv-x="335" 
d="M159 335c-36 0 -68 5 -109 25l26 65c31 -13 49 -21 76 -21c34 0 46 17 46 36c0 20 -20 53 -105 68l-25 5l5 167h190v-74h-116l-1 -36l21 -5c53 -14 118 -51 118 -122c0 -61 -49 -108 -126 -108z" />
    <glyph glyph-name="six.numerator" horiz-adv-x="342" 
d="M132 531l1 -1c10 13 37 25 59 25c58 0 100 -40 100 -108c0 -72 -51 -112 -118 -112c-83 0 -124 69 -124 150c0 154 147 197 209 205l13 -61c-56 -13 -120 -41 -140 -98zM136 469c-5 -31 6 -68 36 -68c19 0 36 14 36 44c0 21 -11 37 -37 37c-13 0 -27 -6 -35 -13z" />
    <glyph glyph-name="seven.numerator" horiz-adv-x="310" 
d="M175 605v1h-125v74h210v-60c-45 -80 -72 -155 -90 -280h-89c13 85 46 186 94 265z" />
    <glyph glyph-name="eight.numerator" horiz-adv-x="347" 
d="M202 589c0 23 -15 34 -33 34c-16 0 -30 -12 -30 -31c0 -17 15 -33 41 -43c14 11 22 24 22 40zM210 429c0 24 -28 38 -51 47c-16 -9 -28 -26 -28 -41c0 -25 19 -38 41 -38c26 0 38 16 38 32zM297 429c0 -58 -54 -94 -130 -94c-63 0 -117 27 -117 87c0 36 12 61 52 86
c-33 25 -43 53 -43 84c0 57 54 93 112 93c61 0 111 -36 111 -88c0 -30 -12 -54 -44 -79c39 -20 59 -50 59 -89z" />
    <glyph glyph-name="nine.numerator" horiz-adv-x="342" 
d="M209 489l-1 1c-10 -13 -37 -25 -58 -25c-58 0 -100 40 -100 108c0 72 50 112 117 112c84 0 125 -69 125 -150c0 -154 -147 -197 -210 -205l-12 61c57 13 119 41 139 98zM205 551c5 31 -5 68 -36 68c-18 0 -35 -14 -35 -44c0 -21 11 -37 37 -37c12 0 26 6 34 13z" />
    <glyph glyph-name="parenleft.numerator" horiz-adv-x="233" 
d="M50 510c0 75 26 148 81 210h52c-40 -71 -54 -138 -54 -210c0 -71 14 -134 54 -210h-52c-55 62 -81 137 -81 210z" />
    <glyph glyph-name="parenright.numerator" horiz-adv-x="233" 
d="M183 510c0 -73 -27 -148 -82 -210h-51c40 76 53 139 53 210c0 72 -13 139 -53 210h51c55 -62 82 -135 82 -210z" />
    <glyph glyph-name="cent.numerator" horiz-adv-x="379" 
d="M217 305h-20v30c-100 2 -147 79 -147 175c0 95 45 170 147 175v30h20v-30c33 -1 63 -7 102 -25l-20 -65c-34 16 -57 23 -82 24v-216c23 4 40 21 54 47l58 -35c-27 -60 -75 -77 -112 -80v-30zM136 510c0 -69 27 -101 61 -106v213c-38 -10 -61 -51 -61 -107z" />
    <glyph glyph-name="dollar.numerator" horiz-adv-x="351" 
d="M186 305h-20v30c-37 0 -70 7 -109 20l-7 71c46 -16 83 -26 116 -26v75c-7 2 -13 5 -20 8c-48 19 -95 49 -95 105c0 62 52 94 115 97v30h20v-30c34 -2 68 -9 108 -24l-21 -63c-33 12 -57 21 -87 22v-62l20 -9c62 -28 95 -61 95 -112c0 -58 -51 -96 -115 -102v-30zM218 430
c0 16 -12 26 -32 36v-65c20 4 32 14 32 29zM134 597c0 -13 14 -22 32 -31v53c-22 -2 -32 -11 -32 -22z" />
    <glyph glyph-name="hyphen.numerator" horiz-adv-x="275" 
d="M50 505h175v-67h-175v67z" />
    <glyph glyph-name="comma.numerator" horiz-adv-x="186" 
d="M79 340c-18 0 -27 16 -27 30c0 15 9 37 37 37s47 -23 47 -49c0 -44 -33 -74 -66 -92l-20 28c19 12 36 32 36 40c0 5 -2 6 -7 6z" />
    <glyph glyph-name="period.numerator" horiz-adv-x="172" 
d="M50 371c0 20 16 36 36 36s36 -16 36 -36s-16 -36 -36 -36s-36 16 -36 36z" />
    <glyph glyph-name="onethird" unicode="&#x2153;" horiz-adv-x="815" 
d="M702 184v-1c42 -14 63 -50 63 -85c0 -65 -50 -103 -124 -103c-41 0 -71 5 -113 25l24 63c31 -15 56 -19 83 -19c30 0 44 18 44 36c0 27 -20 41 -48 41h-41v69h36c40 0 46 18 46 35c0 18 -14 31 -38 31c-26 0 -45 -6 -77 -19l-23 63c42 20 80 25 116 25
c53 0 103 -28 103 -85c0 -35 -18 -61 -51 -76zM59 340v64h70v196l-66 -17l-12 66l102 34h55v-279h71v-64h-220zM505 700h54l-210 -720h-54z" />
    <glyph glyph-name="oneeighth" unicode="&#x215b;" horiz-adv-x="815" 
d="M671 249c0 23 -15 34 -34 34c-16 0 -30 -12 -30 -31c0 -17 16 -33 41 -43c14 11 23 24 23 40zM678 89c0 24 -28 38 -51 47c-16 -9 -28 -26 -28 -41c0 -25 20 -38 41 -38c27 0 38 16 38 32zM765 89c0 -58 -53 -94 -129 -94c-63 0 -118 27 -118 87c0 36 13 61 53 86
c-33 25 -44 53 -44 84c0 57 54 93 112 93c61 0 111 -36 111 -88c0 -30 -12 -54 -44 -79c39 -20 59 -50 59 -89zM59 340v64h70v196l-66 -17l-12 66l102 34h55v-279h71v-64h-220zM505 700h54l-210 -720h-54z" />
    <glyph glyph-name="twothirds" unicode="&#x2154;" horiz-adv-x="817" 
d="M704 184v-1c42 -14 63 -50 63 -85c0 -65 -50 -103 -124 -103c-41 0 -71 5 -113 25l24 63c30 -15 56 -19 83 -19c30 0 44 18 44 36c0 27 -20 41 -48 41h-41v69h36c40 0 45 18 45 35c0 18 -13 31 -37 31c-26 0 -45 -6 -77 -19l-23 63c42 20 80 25 116 25
c53 0 102 -28 102 -85c0 -35 -17 -61 -50 -76zM141 611c-18 0 -36 -6 -64 -17l-24 66c39 18 68 25 108 25c73 0 109 -45 109 -105c0 -70 -49 -115 -109 -164v-2h123l-10 -74h-224v75c106 74 136 116 136 151c0 40 -27 45 -45 45zM492 700h54l-210 -720h-54z" />
    <glyph glyph-name="threeeighths" unicode="&#x215c;" horiz-adv-x="819" 
d="M675 249c0 23 -15 34 -34 34c-16 0 -30 -12 -30 -31c0 -17 16 -33 41 -43c14 11 23 24 23 40zM682 89c0 24 -28 38 -51 47c-16 -9 -28 -26 -28 -41c0 -25 19 -38 41 -38c27 0 38 16 38 32zM769 89c0 -58 -53 -94 -129 -94c-64 0 -118 27 -118 87c0 36 12 61 52 86
c-32 25 -43 53 -43 84c0 57 54 93 112 93c61 0 111 -36 111 -88c0 -30 -12 -54 -44 -79c39 -20 59 -50 59 -89zM224 524v-1c42 -14 63 -50 63 -85c0 -65 -50 -103 -124 -103c-42 0 -71 5 -113 25l24 63c30 -15 56 -19 83 -19c29 0 44 18 44 36c0 27 -20 41 -49 41h-40v69h36
c40 0 45 18 45 35c0 18 -14 31 -37 31c-26 0 -45 -6 -77 -19l-23 63c42 20 79 25 116 25c52 0 102 -28 102 -85c0 -35 -17 -61 -50 -76zM489 700h54l-210 -720h-54z" />
    <glyph glyph-name="fiveeighths" unicode="&#x215d;" horiz-adv-x="817" 
d="M673 249c0 23 -15 34 -33 34c-16 0 -31 -12 -31 -31c0 -17 16 -33 42 -43c14 11 22 24 22 40zM681 89c0 24 -28 38 -51 47c-17 -9 -28 -26 -28 -41c0 -25 19 -38 41 -38c26 0 38 16 38 32zM767 89c0 -58 -53 -94 -129 -94c-63 0 -117 27 -117 87c0 36 12 61 52 86
c-33 25 -44 53 -44 84c0 57 54 93 113 93c61 0 110 -36 110 -88c0 -30 -11 -54 -43 -79c39 -20 58 -50 58 -89zM159 335c-36 0 -68 5 -109 25l26 65c31 -13 49 -21 76 -21c34 0 46 17 46 36c0 20 -20 53 -105 68l-25 5l5 167h190v-74h-116l-1 -36l21 -5
c53 -14 118 -51 118 -122c0 -61 -49 -108 -126 -108zM483 700h54l-210 -720h-54z" />
    <glyph glyph-name="seveneighths" unicode="&#x215e;" horiz-adv-x="805" 
d="M661 249c0 23 -15 34 -33 34c-17 0 -31 -12 -31 -31c0 -17 16 -33 42 -43c13 11 22 24 22 40zM668 89c0 24 -28 38 -51 47c-16 -9 -28 -26 -28 -41c0 -25 20 -38 41 -38c27 0 38 16 38 32zM755 89c0 -58 -53 -94 -129 -94c-63 0 -118 27 -118 87c0 36 13 61 53 86
c-33 25 -44 53 -44 84c0 57 54 93 113 93c60 0 110 -36 110 -88c0 -30 -11 -54 -43 -79c38 -20 58 -50 58 -89zM175 605v1h-125v74h210v-60c-45 -80 -72 -155 -90 -280h-89c13 85 46 186 94 265zM443 700h54l-210 -720h-54z" />
    <glyph glyph-name="exclamsmall" horiz-adv-x="226" 
d="M53 51c0 32 28 59 61 59s61 -27 61 -59s-28 -59 -61 -59s-61 27 -61 59zM43 544h140l-20 -392h-100z" />
    <glyph glyph-name="exclamdownsmall" horiz-adv-x="226" 
d="M53 493c0 32 28 59 61 59s61 -27 61 -59s-28 -59 -61 -59s-61 27 -61 59zM183 0h-140l20 392h100z" />
    <glyph glyph-name="exclamdbl" unicode="&#x203c;" horiz-adv-x="456" 
d="M44 680h145l-21 -498h-103zM268 680h145l-21 -498h-103zM275 56c0 35 30 65 66 65s65 -30 65 -65c0 -36 -29 -66 -65 -66s-66 30 -66 66zM51 56c0 35 30 65 66 65s65 -30 65 -65c0 -36 -29 -66 -65 -66s-66 30 -66 66z" />
    <glyph glyph-name="ampersandsmall" horiz-adv-x="592" 
d="M424 288h120c-15 -78 -46 -136 -83 -179l99 -109h-161l-31 34c-61 -34 -119 -42 -141 -42c-137 0 -195 66 -195 155c0 62 51 106 108 144c-32 40 -52 79 -52 119c0 94 86 142 170 142c96 0 158 -45 158 -133c0 -63 -50 -107 -105 -143l18 -19l59 -66c16 25 29 56 36 97z
M244 105c7 0 27 2 50 11l-70 79l-16 17c-23 -17 -38 -34 -38 -53c0 -41 41 -54 74 -54zM212 419c0 -20 11 -40 30 -64c30 21 51 41 51 65c0 27 -18 38 -38 38c-23 0 -43 -12 -43 -39z" />
    <glyph glyph-name="fraction" unicode="&#x2044;" horiz-adv-x="417" 
d="M250 700h121l-204 -720h-121z" />
    <glyph glyph-name="uni2215" unicode="&#x2215;" horiz-adv-x="417" 
d="M250 700h121l-204 -720h-121z" />
    <glyph glyph-name="uni2219" unicode="&#x2219;" horiz-adv-x="224" 
d="M47 277c0 36 28 58 65 58c36 0 65 -22 65 -58c0 -37 -29 -59 -65 -59c-37 0 -65 22 -65 59z" />
    <glyph glyph-name="at.cap" horiz-adv-x="828" 
d="M464 210h-1c-21 -50 -60 -76 -96 -76c-69 0 -104 66 -103 149c0 86 47 230 158 230c29 0 52 -15 68 -39l34 32h61l-30 -239c-5 -33 10 -57 39 -57c57 0 115 89 115 180c0 181 -141 234 -251 234c-159 0 -305 -128 -305 -309c0 -203 143 -273 282 -273c81 0 173 34 232 80
l31 -57c-74 -60 -173 -96 -276 -96c-197 0 -374 132 -374 352c0 191 150 374 404 374c182 0 328 -109 328 -302c0 -131 -89 -259 -210 -259c-73 0 -103 40 -106 76zM435 427c-58 0 -76 -79 -76 -128c-2 -44 11 -78 46 -78c32 0 56 29 61 68l15 120c-7 8 -23 18 -46 18z" />
    <glyph glyph-name="parenleft.cap" horiz-adv-x="326" 
d="M51 340c0 149 53 297 161 420h89c-82 -142 -113 -276 -113 -420c0 -141 31 -270 113 -420h-89c-108 123 -161 275 -161 420z" />
    <glyph glyph-name="parenright.cap" horiz-adv-x="326" 
d="M275 340c0 -145 -54 -297 -161 -420h-89c82 150 113 279 113 420c0 144 -31 278 -113 420h89c107 -123 161 -271 161 -420z" />
    <glyph glyph-name="bracketleft.cap" horiz-adv-x="318" 
d="M213 6h80v-86h-224v840h224v-86h-80v-668z" />
    <glyph glyph-name="bracketright.cap" horiz-adv-x="318" 
d="M25 6h80v668h-80v86h224v-840h-224v86z" />
    <glyph glyph-name="braceleft.cap" horiz-adv-x="342" 
d="M201 341v-2c31 -12 59 -45 59 -91c0 -76 -30 -129 -30 -174c0 -38 22 -51 79 -51v-103c-161 0 -223 36 -223 130c0 74 30 147 30 190c0 44 -20 60 -70 60v79c50 0 70 17 70 61c0 43 -30 116 -30 190c0 94 62 130 223 130v-103c-57 0 -79 -13 -79 -51
c0 -45 30 -98 30 -174c0 -47 -28 -77 -59 -91z" />
    <glyph glyph-name="braceright.cap" horiz-adv-x="342" 
d="M141 339v2c-31 14 -59 44 -59 91c0 76 30 129 30 174c0 38 -22 51 -79 51v103c161 0 223 -36 223 -130c0 -74 -30 -147 -30 -190c0 -44 20 -61 70 -61v-79c-50 0 -70 -16 -70 -60c0 -43 30 -116 30 -190c0 -94 -62 -130 -223 -130v103c57 0 79 13 79 51
c0 45 -30 98 -30 174c0 46 28 79 59 91z" />
    <glyph glyph-name="exclamdown.cap" horiz-adv-x="232" 
d="M51 624c0 36 30 66 66 66s65 -30 65 -66c0 -35 -29 -65 -65 -65s-66 30 -66 65zM188 0h-145l21 498h103z" />
    <glyph glyph-name="questiondown.cap" horiz-adv-x="477" 
d="M320 624c0 -35 -29 -65 -65 -65s-66 30 -66 65c0 36 30 66 66 66s65 -30 65 -66zM241 -10c-145 0 -199 106 -199 187c0 131 98 173 155 193l10 128h103l9 -183c-63 -21 -133 -53 -133 -122c0 -57 44 -72 84 -72c30 0 79 10 127 26l38 -119c-55 -24 -127 -38 -194 -38z
" />
    <glyph glyph-name="guillemotleft.cap" horiz-adv-x="574" 
d="M76 339l194 137v-129l-75 -47l75 -47v-129l-194 136v79zM304 339l194 137v-129l-75 -47l75 -47v-129l-194 136v79z" />
    <glyph glyph-name="guillemotright.cap" horiz-adv-x="574" 
d="M304 476l194 -137v-79l-194 -136v129l75 47l-75 47v129zM76 476l194 -137v-79l-194 -136v129l75 47l-75 47v129z" />
    <glyph glyph-name="guilsinglleft.cap" horiz-adv-x="346" 
d="M76 339l194 137v-129l-75 -47l75 -47v-129l-194 136v79z" />
    <glyph glyph-name="guilsinglright.cap" horiz-adv-x="346" 
d="M76 476l194 -137v-79l-194 -136v129l75 47l-75 47v129z" />
    <glyph glyph-name="hyphen.cap" horiz-adv-x="438" 
d="M76 350h286v-115h-286v115z" />
    <glyph glyph-name="endash.cap" horiz-adv-x="602" 
d="M76 350h450v-115h-450v115z" />
    <glyph glyph-name="emdash.cap" horiz-adv-x="702" 
d="M76 350h550v-115h-550v115z" />
    <glyph glyph-name="periodcentered.cap" horiz-adv-x="224" 
d="M47 307c0 36 28 58 65 58c35 0 64 -22 64 -58c0 -37 -29 -59 -64 -59c-37 0 -65 22 -65 59z" />
    <glyph glyph-name="lessequal" unicode="&#x2264;" horiz-adv-x="502" 
d="M76 345l350 145v-113l-181 -71l181 -71v-113l-350 144v79zM76 102h350v-83h-350v83z" />
    <glyph glyph-name="approxequal" unicode="&#x2248;" horiz-adv-x="528" 
d="M142 290l-66 33c23 65 53 115 115 115c61 0 109 -51 142 -51c23 0 36 25 49 52l70 -41c-27 -74 -62 -107 -107 -107c-57 0 -111 51 -146 51c-30 0 -43 -26 -57 -52zM142 120l-66 33c23 65 53 115 115 115c61 0 109 -51 142 -51c23 0 36 25 49 52l70 -41
c-27 -74 -62 -107 -107 -107c-57 0 -111 51 -146 51c-30 0 -43 -26 -57 -52z" />
    <glyph glyph-name="notequal" unicode="&#x2260;" horiz-adv-x="502" 
d="M76 231h104l22 68h-126v115h165l54 166h121l-55 -166h65v-115h-103l-22 -68h125v-115h-162l-52 -156h-121l52 156h-67v115z" />
    <glyph glyph-name="estimated" unicode="&#x212e;" horiz-adv-x="663" 
d="M636 349h-475v-235c48 -52 106 -78 171 -78c97 0 173 53 226 157l42 -26c-74 -114 -145 -177 -268 -177c-187 0 -305 167 -305 359c0 209 125 361 305 361c170 0 295 -139 304 -361zM161 397h342v189c-49 51 -107 77 -172 77c-68 0 -124 -26 -170 -77v-189z" />
    <glyph glyph-name="partialdiff" unicode="&#x2202;" horiz-adv-x="554" 
d="M386 373l2 1c-19 120 -131 201 -253 231l36 105c110 -16 350 -107 350 -368c0 -179 -98 -352 -288 -352c-117 0 -200 69 -200 189c0 155 101 250 232 250c48 0 103 -26 121 -56zM366 263c-17 24 -50 41 -82 41c-76 0 -106 -55 -106 -114s35 -85 74 -85
c75 0 111 83 114 158z" />
    <glyph glyph-name="greaterequal" unicode="&#x2265;" horiz-adv-x="502" 
d="M76 490l350 -145v-79l-350 -144v113l181 71l-181 71v113zM76 102h350v-83h-350v83z" />
    <glyph glyph-name="questionsmall" horiz-adv-x="428" 
d="M213 552c127 0 173 -88 173 -152c0 -101 -80 -136 -126 -152l-8 -96h-101l-8 146c52 14 104 31 104 78c0 38 -31 50 -63 50c-26 0 -66 -8 -105 -19l-37 114c48 20 113 31 171 31zM147 112h112v-112h-112v112z" />
    <glyph glyph-name="questiondownsmall" horiz-adv-x="428" 
d="M215 -8c-127 0 -173 88 -173 152c0 101 80 136 125 152l9 96h100l8 -146c-51 -14 -103 -31 -103 -78c0 -38 31 -50 62 -50c26 0 67 8 106 19l37 -114c-48 -20 -113 -31 -171 -31zM281 432h-112v112h112v-112z" />
    <glyph glyph-name="percent.oldstyle" horiz-adv-x="833" 
d="M463 560h82l-178 -576h-82zM625 183c-32 0 -48 -21 -48 -66s16 -67 48 -67c31 0 47 21 47 67c0 45 -17 66 -47 66zM625 -8c-77 0 -132 49 -132 125c0 75 55 125 132 125c74 0 132 -50 132 -125c0 -76 -58 -125 -132 -125zM208 490c-32 0 -48 -21 -48 -66s16 -66 48 -66
s48 21 48 66s-17 66 -48 66zM208 299c-76 0 -132 50 -132 125s56 125 132 125c75 0 132 -50 132 -125s-57 -125 -132 -125z" />
    <glyph glyph-name="perthousand.oldstyle" horiz-adv-x="1164" 
d="M463 560h82l-178 -576h-82zM625 183c-32 0 -48 -21 -48 -66s16 -67 48 -67c31 0 47 21 47 67c0 45 -17 66 -47 66zM625 -8c-77 0 -132 49 -132 125c0 75 55 125 132 125c74 0 132 -50 132 -125c0 -76 -58 -125 -132 -125zM208 490c-32 0 -48 -21 -48 -66s16 -66 48 -66
s48 21 48 66s-17 66 -48 66zM208 299c-76 0 -132 50 -132 125s56 125 132 125c75 0 132 -50 132 -125s-57 -125 -132 -125zM956 183c-32 0 -48 -21 -48 -66s16 -67 48 -67s48 21 48 67c0 45 -17 66 -48 66zM956 -8c-76 0 -132 49 -132 125c0 75 56 125 132 125
c75 0 132 -50 132 -125c0 -76 -57 -125 -132 -125z" />
    <glyph glyph-name="figuredash" unicode="&#x2012;" horiz-adv-x="602" 
d="M76 320h450v-115h-450v115z" />
    <glyph glyph-name="threequartersemdash" horiz-adv-x="702" 
d="M76 320h550v-115h-550v115z" />
    <glyph glyph-name="minus" unicode="&#x2212;" horiz-adv-x="502" 
d="M76 320h350v-115h-350v115z" />
    <glyph glyph-name="overscore" horiz-adv-x="430" 
d="M76 661h278v-83h-278v83z" />
    <glyph glyph-name="uni03BC" unicode="&#x3bc;" horiz-adv-x="518" 
d="M475 0h-127l-9 86h-2c-34 -68 -90 -96 -145 -96c-5 0 -10 0 -15 1c-8 -82 -42 -164 -188 -191l-39 102c76 31 93 52 93 98v500h136v-320c3 -48 32 -71 71 -71c40 0 89 37 89 123v268h136v-500z" />
    <glyph glyph-name="onedotenleader" unicode="&#x2024;" horiz-adv-x="224" 
d="M47 56c0 35 29 65 65 65s66 -30 66 -65c0 -36 -30 -66 -66 -66s-65 30 -65 66z" />
    <glyph glyph-name="twodotenleader" unicode="&#x2025;" horiz-adv-x="432" 
d="M51 56c0 35 29 65 65 65s66 -30 66 -65c0 -36 -30 -66 -66 -66s-65 30 -65 66zM251 56c0 35 29 65 65 65s66 -30 66 -65c0 -36 -30 -66 -66 -66s-65 30 -65 66z" />
    <glyph glyph-name="afii61352" unicode="&#x2116;" horiz-adv-x="968" 
d="M640 332h294v-36h-294v36zM786 617c-40 0 -58 -34 -58 -87s18 -87 58 -87s58 34 58 87s-18 87 -58 87zM786 374c-91 0 -142 67 -142 156s51 156 142 156s142 -67 142 -156s-51 -156 -142 -156zM207 381h-2v-381h-152v680h152l219 -381h2v381h152v-680h-152z" />
    <glyph glyph-name="product" unicode="&#x220f;" horiz-adv-x="611" 
d="M205 -200h-152v880h505v-880h-152v752h-201v-752z" />
    <glyph glyph-name="summation" unicode="&#x2211;" horiz-adv-x="523" 
d="M229 550l121 -210l-121 -210v-2h260l-17 -128h-433v111l134 229l-134 229v111h433v-128h-243v-2z" />
    <glyph glyph-name="radical" unicode="&#x221a;" horiz-adv-x="785" 
d="M676 680h49l-290 -680h-97l-157 367h-121v53h243l126 -319z" />
    <glyph glyph-name="infinity" unicode="&#x221e;" horiz-adv-x="1057" 
d="M816 85c-124 0 -237 66 -288 119c-50 -53 -164 -119 -287 -119c-107 0 -181 70 -181 160s74 160 181 160c123 0 237 -68 287 -120c51 52 164 120 288 120c107 0 181 -70 181 -160s-74 -160 -181 -160zM480 244c-38 34 -121 94 -227 94c-69 0 -114 -37 -114 -93
c0 -57 45 -94 114 -94c106 0 189 60 227 93zM577 245c37 -34 121 -94 227 -94c69 0 114 37 114 94c0 56 -45 93 -114 93c-106 0 -190 -60 -227 -93z" />
    <glyph glyph-name="integral" unicode="&#x222b;" horiz-adv-x="312" 
d="M323 537l-102 -577c-18 -104 -75 -160 -182 -160c-25 0 -72 7 -103 19l30 105c19 -7 41 -13 63 -13c38 0 51 21 58 62l102 577c18 104 75 160 184 160c25 0 72 -7 103 -19l-30 -105c-19 7 -42 13 -63 13c-40 0 -53 -21 -60 -62z" />
    <glyph glyph-name="lozenge" unicode="&#x25ca;" horiz-adv-x="612" 
d="M295 -10l-195 354l195 346h22l195 -346l-195 -354h-22zM205 344l101 -180l100 180l-100 172z" />
    <glyph glyph-name="uni037E" unicode="&#x37e;" horiz-adv-x="224" 
d="M47 277c0 36 28 58 65 58c36 0 65 -22 65 -58c0 -37 -29 -59 -65 -59c-37 0 -65 22 -65 59z" />
    <glyph glyph-name="litre" unicode="&#x2113;" horiz-adv-x="405" 
d="M38 156l-11 11l85 99v243c0 67 12 118 36 151c24 32 54 50 90 50c53 0 86 -39 86 -99c0 -34 -9 -71 -28 -112c-18 -41 -56 -100 -116 -176v-168c0 -51 8 -86 21 -106c14 -20 32 -29 54 -29c20 0 40 9 58 29c19 19 35 53 48 103h16c-12 -55 -32 -97 -61 -127
c-21 -23 -48 -35 -80 -35c-52 0 -96 35 -114 90c-6 21 -10 56 -10 107v52zM180 543v-193c80 103 121 183 121 242c0 57 -27 89 -60 89c-17 0 -32 -9 -44 -28c-11 -19 -17 -55 -17 -110z" />
    <glyph glyph-name="tonos" unicode="&#x384;" horiz-adv-x="359" 
d="M243 696l40 -94l-178 -61l-29 53z" />
    <glyph glyph-name="dieresistonos" unicode="&#x385;" horiz-adv-x="633" 
d="M76 637c0 40 32 64 71 64c40 0 72 -24 72 -64s-32 -64 -72 -64c-39 0 -71 24 -71 64zM414 637c0 40 32 64 72 64c39 0 71 -24 71 -64s-32 -64 -71 -64c-40 0 -72 24 -72 64zM346 777l80 -56l-127 -145l-52 31z" />
    <glyph glyph-name="anoteleia" unicode="&#x387;" horiz-adv-x="493" 
d="M76 637c0 40 32 64 71 64c40 0 72 -24 72 -64s-32 -64 -72 -64c-39 0 -71 24 -71 64zM274 637c0 40 32 64 72 64c39 0 71 -24 71 -64s-32 -64 -71 -64c-40 0 -72 24 -72 64z" />
    <glyph glyph-name="Delta" unicode="&#x2206;" horiz-adv-x="565" 
d="M346 710l260 -710h-546zM153 62h271l-126 372z" />
    <glyph glyph-name="Omega" unicode="&#x2126;" horiz-adv-x="644" 
d="M322 690c186 0 279 -124 279 -292c0 -103 -48 -206 -134 -236v-34h134l-17 -128h-233v230c60 17 97 69 97 168c0 106 -37 168 -126 168c-88 0 -126 -62 -126 -168c0 -99 38 -151 98 -168v-230h-234l-17 128h134v34c-85 30 -133 133 -133 236c0 168 92 292 278 292z" />
    <glyph glyph-name="pi" unicode="&#x3c0;" horiz-adv-x="559" 
d="M205 0h-152v500h453v-500h-152v372h-149v-372z" />
    <glyph glyph-name="sigma" unicode="&#x3c3;" horiz-adv-x="484" 
d="M93 249c0 45 17 85 46 114l-74 90l7 8l76 -90c25 22 58 36 95 36c35 0 68 -14 94 -36l74 90l8 -8l-74 -89c30 -29 48 -70 48 -115s-18 -86 -47 -114l72 -86l-8 -9l-73 87c-26 -22 -59 -35 -94 -35c-37 0 -70 13 -95 35l-73 -87l-8 9l72 86c-29 29 -46 69 -46 114z
M105 249c0 -79 62 -145 138 -145c75 0 138 66 138 145s-63 146 -138 146c-76 0 -138 -67 -138 -146z" />
    <glyph glyph-name="uni03C2" unicode="&#x3c2;" horiz-adv-x="484" 
d="M93 249c0 45 17 85 46 114l-74 90l7 8l76 -90c25 22 58 36 95 36c35 0 68 -14 94 -36l74 90l8 -8l-74 -89c30 -29 48 -70 48 -115s-18 -86 -47 -114l72 -86l-8 -9l-73 87c-26 -22 -59 -35 -94 -35c-37 0 -70 13 -95 35l-73 -87l-8 9l72 86c-29 29 -46 69 -46 114z
M105 249c0 -79 62 -145 138 -145c75 0 138 66 138 145s-63 146 -138 146c-76 0 -138 -67 -138 -146z" />
    <glyph glyph-name="zerosmall" horiz-adv-x="514" 
d="M257 442c-57 0 -80 -67 -80 -166s23 -174 80 -174c56 0 80 75 80 174s-24 166 -80 166zM257 -8c-165 0 -220 128 -220 284s55 276 220 276s220 -120 220 -276s-55 -284 -220 -284z" />
    <glyph glyph-name="onesmall" horiz-adv-x="325" 
d="M125 412l-95 -18l-20 107l156 47h91v-548h-132v412z" />
    <glyph glyph-name="twosmall" horiz-adv-x="455" 
d="M182 430c-31 0 -62 -9 -111 -26l-41 108c68 28 115 40 185 40c122 0 183 -72 183 -168c0 -112 -82 -183 -188 -261v-1h213l-17 -122h-380v124c182 116 232 181 232 237c0 61 -47 69 -76 69z" />
    <glyph glyph-name="threesmall" horiz-adv-x="464" 
d="M319 294v-2c71 -22 108 -80 108 -136c0 -104 -85 -164 -211 -164c-69 0 -121 8 -190 40l39 103c52 -22 96 -29 141 -29c54 0 77 26 77 54c0 44 -34 63 -84 63h-69v114h62c68 0 78 25 78 53s-23 48 -65 48c-44 0 -77 -7 -130 -30l-40 104c72 32 135 40 196 40
c90 0 175 -44 175 -136c0 -55 -31 -97 -87 -122z" />
    <glyph glyph-name="foursmall" horiz-adv-x="493" 
d="M157 226h112v139h-2c-33 -55 -79 -110 -110 -139zM245 548h156v-322h60v-122h-60v-104h-132v104h-247v121c84 96 170 195 223 323z" />
    <glyph glyph-name="fivesmall" horiz-adv-x="465" 
d="M215 -8c-61 0 -115 8 -184 40l42 107c54 -22 85 -33 130 -33c59 0 81 26 81 55c0 44 -37 82 -180 107l-44 7l10 269h321v-122h-199l-2 -53l36 -8c91 -22 202 -82 202 -197c0 -96 -82 -172 -213 -172z" />
    <glyph glyph-name="sixsmall" horiz-adv-x="484" 
d="M174 308l2 -1c17 19 63 37 101 37c99 0 170 -64 170 -172c0 -115 -86 -180 -199 -180c-142 0 -211 110 -211 240c0 248 249 315 354 328l21 -101c-98 -19 -204 -62 -238 -151zM180 205c-8 -47 11 -103 64 -103c32 0 63 19 63 66c0 31 -19 60 -65 60
c-23 0 -47 -10 -62 -23z" />
    <glyph glyph-name="sevensmall" horiz-adv-x="397" 
d="M238 420v2h-212v122h355v-97c-77 -130 -125 -247 -155 -447h-149c23 134 81 294 161 420z" />
    <glyph glyph-name="eightsmall" horiz-adv-x="492" 
d="M298 397c0 36 -27 53 -58 53c-30 0 -54 -19 -54 -46c0 -28 28 -54 72 -68c24 17 40 38 40 61zM311 143c0 36 -47 58 -89 72c-29 -13 -49 -39 -49 -63c0 -38 33 -58 71 -58c46 0 67 26 67 49zM455 144c0 -93 -91 -152 -219 -152c-106 0 -199 44 -199 140
c0 58 21 95 91 136c-57 39 -76 84 -76 135c0 90 92 149 192 149c101 0 186 -59 186 -141c0 -48 -21 -86 -76 -126c67 -32 101 -79 101 -141z" />
    <glyph glyph-name="ninesmall" horiz-adv-x="484" 
d="M309 236l-1 1c-17 -19 -64 -37 -102 -37c-99 0 -169 64 -169 172c0 115 85 180 199 180c141 0 211 -110 211 -240c0 -248 -250 -315 -355 -328l-20 101c98 19 204 62 237 151zM303 339c8 47 -10 103 -64 103c-32 0 -62 -19 -62 -66c0 -31 19 -60 65 -60c23 0 47 10 61 23
z" />
    <glyph glyph-name="thinspace" unicode="&#x2009;" horiz-adv-x="0" 
 />
    </font>
</defs>
</svg>
